/* XPM */
static char * button_move_xy_xpm[] = {
"24 24 32 1",
" 	c None",
".	c #BABABA",
"+	c #8F8F8F",
"@	c #9E9E9E",
"#	c #898989",
"$	c #B79494",
"%	c #8B8B8B",
"&	c #FB0101",
"*	c #F50E0E",
"=	c #E53030",
"-	c #D65050",
";	c #C86F6F",
">	c #929292",
",	c #F70909",
"'	c #E92828",
")	c #DB4646",
"!	c #CC6868",
"~	c #BC8989",
"{	c #B6B6B6",
"]	c #FA0303",
"^	c #EC2121",
"/	c #D64747",
"(	c #8A8A8A",
"_	c #E91717",
":	c #DE2424",
"<	c #D62D2D",
"[	c #D03434",
"}	c #C54242",
"|	c #C24545",
"1	c #C14646",
"2	c #B55555",
"3	c #B05A5A",
"                        ",
"         ......         ",
"        ..............  ",
"       ..............+  ",
"      ..............@#  ",
"    ................##  ",
"   $...............%##  ",
"   &*=-;$.........>###  ",
"   &&&&&&,')!~...{###   ",
"   &&&&&&&&&&&]^/(###   ",
"   &&&&&&&&&&&&&_####   ",
"    &&&&&&&&&&&&:####   ",
"    &&&&&&&&&&&&:####   ",
"    &&&&&&&&&&&&<####   ",
"    &&&&&&&&&&&&[####   ",
"    &&&&&&&&&&&&[####   ",
"    &&&&&&&&&&&&}###    ",
"    &&&&&&&&&&&&|##     ",
"    &&&&&&&&&&&&1##     ",
"     &&&&&&&&&&&2#      ",
"        &&&&&&&&2#      ",
"            &&&&3       ",
"               &        ",
"                        "};
