/* XPM */
static const char * button_world_rotate_xy_xpm[] = {
"24 24 38 1",
" 	c None",
".	c #4BC05B",
"+	c #42C955",
"@	c #49C25A",
"#	c #2FE148",
"$	c #36D94E",
"%	c #29E944",
"&	c #40CE53",
"*	c #5EC36D",
"=	c #4CC05C",
"-	c #47C458",
";	c #2CE646",
">	c #AEAEAE",
",	c #AFD0B4",
"'	c #95CB9C",
")	c #7CC786",
"!	c #5EC36C",
"~	c #4EC15E",
"{	c #4BC15B",
"]	c #32DF4A",
"^	c #B5D1B9",
"/	c #9DCDA4",
"(	c #82C88B",
"_	c #67C474",
":	c #50C15F",
"<	c #3BD350",
"[	c #BCD2BF",
"}	c #98D09F",
"|	c #2AE844",
"1	c #B9D8BE",
"2	c #A9DAB0",
"3	c #9DDCA7",
"4	c #95DD9F",
"5	c #84DF90",
"6	c #80DF8D",
"7	c #7EE08C",
"8	c #6CE17B",
"9	c #64E276",
"                        ",
"         ......         ",
"        .............+  ",
"       .............@#  ",
"      ..............$%  ",
"    ...............&%%  ",
"   *=.............-;%%  ",
"   >>,')!~.......{]%%%  ",
"   >>>>>>>^/(_:..<%%%   ",
"   >>>>>>>>>>>>[}|%%%   ",
"   >>>>>>>>>>>>>1%%%%   ",
"    >>>>>>>>>>>>2%%%%   ",
"    >>>>>>>>>>>>2%%%%   ",
"    >>>>>>>>>>>>3%%%%   ",
"    >>>>>>>>>>>>4%%%%   ",
"    >>>>>>>>>>>>4%%%%   ",
"    >>>>>>>>>>>>5%%%    ",
"    >>>>>>>>>>>>6%%     ",
"    >>>>>>>>>>>>7%%     ",
"     >>>>>>>>>>>8%      ",
"        >>>>>>>>8%      ",
"            >>>>9       ",
"               >        ",
"                        "};
