/* XPM */
static char * button_draw_walls_xpm[] = {
"24 24 356 2",
"  	c None",
". 	c #912C2C",
"+ 	c #831919",
"@ 	c #892121",
"# 	c #922C2C",
"$ 	c #8D2626",
"% 	c #821B1B",
"& 	c #AE5959",
"* 	c #953131",
"= 	c #8B2323",
"- 	c #932D2D",
"; 	c #881F1F",
"> 	c #8F2828",
", 	c #973333",
"' 	c #953030",
") 	c #892222",
"! 	c #963838",
"~ 	c #9D3F3F",
"{ 	c #922B2B",
"] 	c #861E1E",
"^ 	c #8C2424",
"/ 	c #841B1B",
"( 	c #790E0E",
"_ 	c #821818",
": 	c #8D2727",
"< 	c #871E1E",
"[ 	c #892020",
"} 	c #811717",
"| 	c #8B2222",
"1 	c #861D1D",
"2 	c #942F2F",
"3 	c #8A2323",
"4 	c #8B2626",
"5 	c #983636",
"6 	c #902929",
"7 	c #963232",
"8 	c #781818",
"9 	c #871F1F",
"0 	c #801616",
"a 	c #841A1A",
"b 	c #923232",
"c 	c #9C3C3C",
"d 	c #821919",
"e 	c #8C2525",
"f 	c #8D2A2A",
"g 	c #902A2A",
"h 	c #831A1A",
"i 	c #701414",
"j 	c #4D0707",
"k 	c #A24646",
"l 	c #9F3F3F",
"m 	c #A04242",
"n 	c #8E2727",
"o 	c #7F1818",
"p 	c #913232",
"q 	c #AB5353",
"r 	c #9B3939",
"s 	c #943030",
"t 	c #9C3B3B",
"u 	c #9E3E3E",
"v 	c #983535",
"w 	c #A24444",
"x 	c #902B2B",
"y 	c #A54E4E",
"z 	c #A04141",
"A 	c #973434",
"B 	c #963333",
"C 	c #6D1010",
"D 	c #4F0707",
"E 	c #470606",
"F 	c #902D2D",
"G 	c #841F1F",
"H 	c #882222",
"I 	c #771212",
"J 	c #5E0A0A",
"K 	c #883131",
"L 	c #922F2F",
"M 	c #882020",
"N 	c #831B1B",
"O 	c #8B2525",
"P 	c #861F1F",
"Q 	c #8C2727",
"R 	c #851D1D",
"S 	c #8B2424",
"T 	c #640F0F",
"U 	c #A64D4D",
"V 	c #620C0C",
"W 	c #520707",
"X 	c #510707",
"Y 	c #790F0F",
"Z 	c #7A1010",
"` 	c #7F1616",
" .	c #770D0D",
"..	c #5F0909",
"+.	c #8C3939",
"@.	c #912B2B",
"#.	c #7E1313",
"$.	c #7B1111",
"%.	c #760C0C",
"&.	c #550808",
"*.	c #720A0A",
"=.	c #780E0E",
"-.	c #6D0B0B",
";.	c #570707",
">.	c #500606",
",.	c #320404",
"'.	c #750B0B",
").	c #6F0909",
"!.	c #580707",
"~.	c #7E2525",
"{.	c #7A0F0F",
"].	c #780D0D",
"^.	c #7C1111",
"/.	c #7D1313",
"(.	c #4C0808",
"_.	c #8D2828",
":.	c #6C0B0B",
"<.	c #760D0D",
"[.	c #760F0F",
"}.	c #6B0A0A",
"|.	c #390606",
"1.	c #6B0B0B",
"2.	c #6C0C0C",
"3.	c #721111",
"4.	c #721212",
"5.	c #690B0B",
"6.	c #530606",
"7.	c #7B2424",
"8.	c #771515",
"9.	c #6E0D0D",
"0.	c #711010",
"a.	c #6E0C0C",
"b.	c #721010",
"c.	c #6F0E0E",
"d.	c #731313",
"e.	c #450707",
"f.	c #751414",
"g.	c #751616",
"h.	c #6D0E0E",
"i.	c #4E0909",
"j.	c #6A1313",
"k.	c #500808",
"l.	c #7A2F2F",
"m.	c #721F1F",
"n.	c #742424",
"o.	c #702020",
"p.	c #661F1F",
"q.	c #842E2E",
"r.	c #7C2828",
"s.	c #6D1818",
"t.	c #722020",
"u.	c #701D1D",
"v.	c #6A1717",
"w.	c #7A2B2B",
"x.	c #711E1E",
"y.	c #6A1818",
"z.	c #712020",
"A.	c #5F1F1F",
"B.	c #882323",
"C.	c #722121",
"D.	c #762424",
"E.	c #712121",
"F.	c #631313",
"G.	c #630C0C",
"H.	c #540808",
"I.	c #480606",
"J.	c #AB5252",
"K.	c #912D2D",
"L.	c #872222",
"M.	c #8F2D2D",
"N.	c #8E2A2A",
"O.	c #791919",
"P.	c #852424",
"Q.	c #741B1B",
"R.	c #953434",
"S.	c #882121",
"T.	c #811A1A",
"U.	c #872323",
"V.	c #872020",
"W.	c #8F2B2B",
"X.	c #731717",
"Y.	c #4C0606",
"Z.	c #740B0B",
"`.	c #740C0C",
" +	c #680909",
".+	c #781616",
"++	c #641212",
"@+	c #8A2222",
"#+	c #7F1717",
"$+	c #801717",
"%+	c #7E1414",
"&+	c #600C0C",
"*+	c #4F0606",
"=+	c #360404",
"-+	c #7A1111",
";+	c #811818",
">+	c #7C1A1A",
",+	c #661717",
"'+	c #7F1515",
")+	c #620F0F",
"!+	c #4A0606",
"~+	c #340404",
"{+	c #670C0C",
"]+	c #851C1C",
"^+	c #710B0B",
"/+	c #761111",
"(+	c #781212",
"_+	c #7B1616",
":+	c #791414",
"<+	c #801B1B",
"[+	c #750F0F",
"}+	c #6E1111",
"|+	c #5F1111",
"1+	c #831C1C",
"2+	c #740D0D",
"3+	c #6B0909",
"4+	c #720C0C",
"5+	c #740F0F",
"6+	c #791313",
"7+	c #590B0B",
"8+	c #380505",
"9+	c #6D1414",
"0+	c #520808",
"a+	c #821E1E",
"b+	c #691B1B",
"c+	c #6A1D1D",
"d+	c #6D1C1C",
"e+	c #611010",
"f+	c #661A1A",
"g+	c #6B1A1A",
"h+	c #5F1313",
"i+	c #651818",
"j+	c #621A1A",
"k+	c #5F1A1A",
"l+	c #771C1C",
"m+	c #651919",
"n+	c #6A1919",
"o+	c #590A0A",
"p+	c #6F2B2B",
"q+	c #651A1A",
"r+	c #681818",
"s+	c #500E0E",
"t+	c #600D0D",
"u+	c #580808",
"v+	c #8B2D2D",
"w+	c #903232",
"x+	c #963636",
"y+	c #7B1C1C",
"z+	c #933939",
"A+	c #973636",
"B+	c #8E2B2B",
"C+	c #903030",
"D+	c #8E2E2E",
"E+	c #933030",
"F+	c #6B0F0F",
"G+	c #B76A6A",
"H+	c #923030",
"I+	c #811E1E",
"J+	c #7D1919",
"K+	c #5E0E0E",
"L+	c #4B0606",
"M+	c #6A0909",
"N+	c #700A0A",
"O+	c #610B0B",
"P+	c #7F2525",
"Q+	c #770F0F",
"R+	c #7C1212",
"S+	c #A14343",
"T+	c #720B0B",
"U+	c #700909",
"V+	c #590707",
"W+	c #490606",
"X+	c #390404",
"Y+	c #7B1313",
"Z+	c #801818",
"`+	c #600A0A",
" @	c #842D2D",
".@	c #9A3A3A",
"+@	c #6D0A0A",
"@@	c #5C0909",
"#@	c #380404",
"$@	c #600E0E",
"%@	c #640D0D",
"&@	c #893333",
"*@	c #841D1D",
"=@	c #9E4040",
"-@	c #460707",
";@	c #671414",
">@	c #540A0A",
",@	c #5D1717",
"'@	c #5A0F0F",
")@	c #5D0F0F",
"!@	c #580B0B",
"~@	c #460A0A",
"{@	c #681313",
"]@	c #5E1010",
"^@	c #510C0C",
"/@	c #520D0D",
"(@	c #570D0D",
"_@	c #560C0C",
":@	c #571111",
"<@	c #500A0A",
"[@	c #580E0E",
"}@	c #3B0A0A",
"|@	c #7F1919",
"1@	c #5A0C0C",
"2@	c #5E0D0D",
"3@	c #5D0D0D",
"4@	c #540909",
"5@	c #6D1212",
"6@	c #5E0B0B",
"7@	c #963535",
"8@	c #943232",
"9@	c #902C2C",
"0@	c #8E2C2C",
"a@	c #862B2B",
"b@	c #A24747",
"c@	c #861C1C",
"d@	c #8F2A2A",
"e@	c #8F2929",
"f@	c #4D0606",
"g@	c #973535",
"h@	c #750D0D",
"i@	c #730B0B",
"j@	c #710A0A",
"k@	c #741212",
"l@	c #651515",
"m@	c #610C0C",
"n@	c #540707",
"o@	c #7B1010",
"p@	c #780F0F",
"q@	c #770E0E",
"r@	c #791717",
"s@	c #661515",
"t@	c #8C2626",
"u@	c #7B1212",
"v@	c #7D1212",
"w@	c #650E0E",
"x@	c #A54D4D",
"y@	c #720D0D",
"z@	c #7A1818",
"A@	c #661414",
"B@	c #680A0A",
"C@	c #7E1515",
"D@	c #600909",
"E@	c #4E0606",
"F@	c #7B1818",
"G@	c #460606",
"H@	c #4F0808",
"I@	c #560808",
"J@	c #550909",
"K@	c #510909",
"L@	c #4B0707",
"M@	c #430707",
"N@	c #510A0A",
"O@	c #510808",
"      . + @ # $ % & * = - - ; > , ' ) ! ~ > { ] ",
"    ^ / ( _ + % : < [ } ^ | 1 > 2 3 4 5 6 - 7 8 ",
"  9 6 1 0 a b c a = 3 d e e 3 # ) f g < h / i j ",
"k l m n o p q r s t u v w r r x y z A B : C D E ",
"F G H I J K L M N O 4 P Q R S T U R H S ] V W X ",
"Y Z `  ...+.@.} ( #.Y Y $.%.} &.s *.=.$.-.;.>.,.",
"'. .=.).!.~.} {.'.%.].^.$.]./.(._.:.<.[.}.W |.1.",
"2.3.4.5.6.7.8.:.9.0.a.b.c.1.d.e.F 0.f.g.h.i.j.k.",
"l.m.n.o.p.q.r.s.t.u.v.w.x.y.z.A.B.C.D.E.F.G.H.I.",
"J.O K.O L.M.N.O.B.P.Q.R.S.T.L.U.V.4 W.N.X.X >.Y.",
"r #./.Z.).`.]. +{..+++@+} #+$+0 #.%+d } &+I.*+=+",
"2 d #.(  .-+;+Y h >+,+x d } } '+h } / / )+!+~+{+",
"]+^+/+(+_+:+<+[+I }+|+1+^+^+2+3+4+5+6+I 7+8+9+0+",
"a+b+c+d+e+f+g+h+i+j+k+l+i+m+n+o+p+q+r+|+s+t+u+*+",
"v+w+x+x+y+z+A+S.B+C+D+K.L E+E+F+G+H+B+I+J+K+L+Y.",
"M+N+].{.O+P+]+'.%.`.Q+R+^.#.=.D S+%. .T+U+V+W+X+",
"Y+Z++ R+`+ @] ( {.%+$+;+%+0 `.*+.@+@=.Y %.@@#@$@",
"h _ ]+_ %@&@*@{.Z '+_ + /.%+<.>.=@`.'+} Z -@;@>@",
",@'@)@!@~@{@]@^@/@(@_@:@<@_@[@}@|@1@2@3@4@5@6@*+",
"G+7@8@S.M S x 4 9@0@a@b@c@d@* n x e $ e@g.W >.f@",
"g@h@$.*.i@].$.j@i@k@l@3  .R+0 ( j@( %+0 m@f@n@>.",
"c ^+o@p@p@` / q@Y r@s@t@u@/./ v@+@/.0 ;+w@*+W   ",
"x@M+$.'+'+/ 1 y@h@z@A@: } %+[ ^.B@} C@<.D@E@    ",
"F@G@H@&.I@J@K@L@j K@M@&+k.k.N@D G@I@O@*+6.      "};
