/* XPM */
static const char * button_draw_walls_xpm[] = {
"24 24 9 1",
" 	c None",
".	c #000000",
"+	c #848400",
"@	c #FFFF00",
"#	c #FFFFFF",
"$	c #D6D6CE",
"%	c #AEBABA",
"&	c #92AEAE",
"*	c #D9D9D9",
"              ..        ",
"             .+@..      ",
"            .+@.#@.     ",
"           .+@.#@.      ",
"          .+@.#@.       ",
"         .+@.#@.        ",
"        .+@.#@.         ",
"       .$..#@.          ",
"       .$#.@.           ",
"      .$###.            ",
"    ...##.............. ",
"   .%%...%%%%%%%%%%%%.. ",
"  .%%%%%%%%%%%%%%%%%.&. ",
" ...................&&. ",
" .*****************.&&. ",
" .*****************.&&. ",
" .*****************.&&. ",
" .*****************.&&. ",
" .*****************.&&. ",
" .*****************.&&. ",
" .*****************.&&. ",
" .*****************.&&. ",
" .*****************.&.  ",
" ....................   "};
