/* XPM */
static const char * button_room_open_xpm[] = {
"24 24 222 2",
"  	c None",
". 	c #A0A0A0",
"+ 	c #E3E3E3",
"@ 	c #E4E4E4",
"# 	c #E5E5E6",
"$ 	c #E7E7E7",
"% 	c #E8E8E8",
"& 	c #EAE9E9",
"* 	c #EBEAEA",
"= 	c #ECECEB",
"- 	c #D6D6D6",
"; 	c #4E4F4A",
"> 	c #000000",
", 	c #D0CFCF",
"' 	c #D0D1D0",
") 	c #D1D1D1",
"! 	c #E8E8E9",
"~ 	c #D3D3D3",
"{ 	c #D4D4D4",
"] 	c #D5D5D5",
"^ 	c #EEEEEE",
"/ 	c #D7D7D7",
"( 	c #EDEDE5",
"_ 	c #E7E8DB",
": 	c #E5E5E5",
"< 	c #E6E7E6",
"[ 	c #E8E8E7",
"} 	c #E9E9E9",
"| 	c #EAEAEA",
"1 	c #EBECEB",
"2 	c #EDEDED",
"3 	c #F0F0F0",
"4 	c #D8D8D8",
"5 	c #E9E9DF",
"6 	c #DEDFCE",
"7 	c #E6E6E7",
"8 	c #D1D2D2",
"9 	c #C4C3C4",
"0 	c #9F9F9F",
"a 	c #E7E8E7",
"b 	c #E1E1E1",
"c 	c #E2E2E2",
"d 	c #E2E1E2",
"e 	c #E4E5E5",
"f 	c #E5E6E6",
"g 	c #E7E8E8",
"h 	c #ECEBEC",
"i 	c #DDDECD",
"j 	c #9C9C9C",
"k 	c #E5E4E4",
"l 	c #CFCFCF",
"m 	c #9B9B9B",
"n 	c #DCDBDC",
"o 	c #ECECEC",
"p 	c #EEEDEE",
"q 	c #D7D7D6",
"r 	c #E8E9DE",
"s 	c #DFE0D0",
"t 	c #939393",
"u 	c #DAD9D9",
"v 	c #DBDADB",
"w 	c #929292",
"x 	c #D0D0D0",
"y 	c #D2D1D2",
"z 	c #D4D5D4",
"A 	c #D9D8D8",
"B 	c #DBDBDA",
"C 	c #DBDBDB",
"D 	c #DDDDDD",
"E 	c #C8C8C8",
"F 	c #E7E7DD",
"G 	c #858585",
"H 	c #C7C6C7",
"I 	c #CACAC9",
"J 	c #868686",
"K 	c #C1C1C1",
"L 	c #878787",
"M 	c #C9C8C8",
"N 	c #888888",
"O 	c #CBCBCA",
"P 	c #CDCDCC",
"Q 	c #B9B9B9",
"R 	c #E7E7DC",
"S 	c #7B7B7B",
"T 	c #A6A6A5",
"U 	c #A6A6A6",
"V 	c #A7A7A7",
"W 	c #7C7C7C",
"X 	c #B3B3B2",
"Y 	c #B5B5B5",
"Z 	c #B6B6B7",
"` 	c #BABABA",
" .	c #BCBCBC",
"..	c #BFBEBF",
"+.	c #BDBDBD",
"@.	c #C0C0C0",
"#.	c #ADADAD",
"$.	c #919483",
"%.	c #999C8A",
"&.	c #999B89",
"*.	c #989A89",
"=.	c #979A88",
"-.	c #C5C7B4",
";.	c #BFC1AC",
">.	c #BABDA6",
",.	c #BABCA6",
"'.	c #B9BCA5",
").	c #B8BBA5",
"!.	c #B7BAA4",
"~.	c #B6B9A2",
"{.	c #B5B8A1",
"].	c #B3B7A0",
"^.	c #B2B59F",
"/.	c #B1B49E",
"(.	c #B0B39D",
"_.	c #AEB19C",
":.	c #ADB09B",
"<.	c #ACAF9A",
"[.	c #AAAE98",
"}.	c #A9AC97",
"|.	c #A7AB96",
"1.	c #BFC1AE",
"2.	c #B2B59B",
"3.	c #A5A98C",
"4.	c #A5A98B",
"5.	c #A4A88B",
"6.	c #A3A78A",
"7.	c #A2A689",
"8.	c #A0A487",
"9.	c #9FA386",
"0.	c #9DA185",
"a.	c #9CA083",
"b.	c #9B9F82",
"c.	c #999D81",
"d.	c #989C80",
"e.	c #969A7F",
"f.	c #95997E",
"g.	c #93977C",
"h.	c #92967B",
"i.	c #90947A",
"j.	c #8F9379",
"k.	c #8E9277",
"l.	c #B4B6A4",
"m.	c #B2B59C",
"n.	c #A4A88A",
"o.	c #A1A587",
"p.	c #A0A486",
"q.	c #9EA285",
"r.	c #9CA084",
"s.	c #9B9F83",
"t.	c #9A9E82",
"u.	c #979B7F",
"v.	c #969A7E",
"w.	c #94987D",
"x.	c #91957B",
"y.	c #909479",
"z.	c #8F9378",
"A.	c #8D9177",
"B.	c #8C9076",
"C.	c #8B8F75",
"D.	c #808074",
"E.	c #B4B79F",
"F.	c #A2A688",
"G.	c #9A9E81",
"H.	c #91957A",
"I.	c #8B8F76",
"J.	c #8A8E75",
"K.	c #898D73",
"L.	c #6C6F5B",
"M.	c #64665A",
"N.	c #9DA184",
"O.	c #94987C",
"P.	c #8E9278",
"Q.	c #8A8E74",
"R.	c #878B72",
"S.	c #868A71",
"T.	c #545647",
"U.	c #B3B6A0",
"V.	c #979B80",
"W.	c #8C9077",
"X.	c #888C73",
"Y.	c #868A70",
"Z.	c #848870",
"`.	c #83876E",
" +	c #525445",
".+	c #B1B39E",
"++	c #95997D",
"@+	c #898D74",
"#+	c #868A72",
"$+	c #858970",
"%+	c #84886F",
"&+	c #82866E",
"*+	c #81856D",
"=+	c #7F836C",
"-+	c #A0A38F",
";+	c #80846C",
">+	c #7E826B",
",+	c #7D8169",
"'+	c #7F8171",
")+	c #888C72",
"!+	c #83876F",
"~+	c #7F836B",
"{+	c #7E826A",
"]+	c #7C8069",
"^+	c #636654",
"/+	c #4E4F45",
"(+	c #858971",
"_+	c #81856E",
":+	c #7D816A",
"<+	c #3B3C35",
"[+	c #70735F",
"}+	c #6F725E",
"|+	c #6E715C",
"1+	c #6C705C",
"2+	c #6B6E5A",
"3+	c #696C58",
"4+	c #686C58",
"5+	c #676A57",
"6+	c #666956",
"7+	c #656855",
"8+	c #646754",
"9+	c #4F5143",
"              . . . . . . . . . . . .           ",
"              . + + @ # $ % & * = - .           ",
"    ; > > > > . + , ' ) ! ~ { ] ^ / .           ",
"    > ( _ _ _ . : < [ } | 1 2 ^ 3 4 .           ",
"    > 5 6 6 6 . 7 8 ~ 9 . . . . . . . . . . .   ",
"    > 5 6 6 6 0 a } | 0 b c d + e f g | h - .   ",
"    > 5 6 i i j k l , m n m m m m b j o p q .   ",
"    > r s s s t 4 u v w x y ~ z / A B C D E .   ",
"    > F s s s G H E I J K J L L L M N O P Q .   ",
"    > R s s s S T U V W X Y Z Q `  ...+.@.#..   ",
"  > > > > > > > > > > > > > > > > > > > > > >   ",
"> $.%.%.%.%.%.%.%.%.%.%.%.%.%.&.&.*.=.=.=.=.=.> ",
"> -.;.>.>.>.>.,.'.).!.~.{.].^./.(._.:.<.[.}.|.> ",
"> 1.2.3.4.4.5.6.7.8.9.0.a.b.c.d.e.f.g.h.i.j.k.> ",
"> l.m.n.6.7.o.p.q.r.s.t.d.u.v.w.g.x.y.z.A.B.C.> ",
"> D.E.F.o.p.q.r.s.G.d.u.f.w.g.H.y.z.A.I.J.K.L.> ",
"> M.E.9.N.a.b.c.d.u.f.O.h.H.y.P.A.C.Q.K.R.S.T.> ",
"  > U.a.b.c.V.v.f.g.h.H.j.k.W.C.Q.X.R.Y.Z.`. +> ",
"  > .+c.V.v.++g.h.i.j.k.B.C.@+X.#+$+%+&+*+=+>   ",
"  > -+v.++g.h.i.z.k.B.C.@+X.R.$+%+&+*+;+>+,+>   ",
"  > '+g.H.y.P.A.B.J.K.)+S.$+!+&+;+~+{+,+]+^+>   ",
"  > /+j.P.A.C.Q.K.R.(+Z.`._+;+>+:+]+]+]+]+^+>   ",
"  > <+[+}+|+1+L.2+3+4+5+6+7+8+^+^+^+^+^+^+9+>   ",
"    > > > > > > > > > > > > > > > > > > > >     "};
