/* XPM */
static char * button_delete_xpm[] = {
"22 22 106 2",
"  	c None",
". 	c #5A5C59",
"+ 	c #626460",
"@ 	c #5D605B",
"# 	c #595A56",
"$ 	c #555753",
"% 	c #9A9C98",
"& 	c #A6A8A4",
"* 	c #767874",
"= 	c #565854",
"- 	c #6A6C68",
"; 	c #A4A6A2",
"> 	c #9FA09D",
", 	c #5A5B57",
"' 	c #555654",
") 	c #989A96",
"! 	c #979995",
"~ 	c #A3A5A1",
"{ 	c #757774",
"] 	c #979994",
"^ 	c #A2A3A0",
"/ 	c #575955",
"( 	c #62645F",
"_ 	c #9E9F9C",
": 	c #949692",
"< 	c #757773",
"[ 	c #A2A4A0",
"} 	c #969793",
"| 	c #9B9D9A",
"1 	c #929490",
"2 	c #747672",
"3 	c #686A66",
"4 	c #939490",
"5 	c #9FA19E",
"6 	c #989A97",
"7 	c #8F918C",
"8 	c #9C9D9A",
"9 	c #727470",
"0 	c #676965",
"a 	c #90928D",
"b 	c #686966",
"c 	c #60625E",
"d 	c #959794",
"e 	c #8B8D89",
"f 	c #999A97",
"g 	c #8D8E8A",
"h 	c #666864",
"i 	c #5F625E",
"j 	c #939591",
"k 	c #80827D",
"l 	c #7E807C",
"m 	c #959693",
"n 	c #666863",
"o 	c #686965",
"p 	c #91928E",
"q 	c #7F817C",
"r 	c #7E807B",
"s 	c #90928F",
"t 	c #6E706C",
"u 	c #8D8E8B",
"v 	c #8D8F8B",
"w 	c #8C8E8A",
"x 	c #838581",
"y 	c #6C6E6A",
"z 	c #646662",
"A 	c #898A86",
"B 	c #7D7F7B",
"C 	c #898A87",
"D 	c #5D605C",
"E 	c #878985",
"F 	c #7F817E",
"G 	c #8A8B87",
"H 	c #646661",
"I 	c #848683",
"J 	c #7A7C77",
"K 	c #5E605C",
"L 	c #848582",
"M 	c #7D7E7A",
"N 	c #868884",
"O 	c #696B66",
"P 	c #80827E",
"Q 	c #80827F",
"R 	c #616360",
"S 	c #5D5F5B",
"T 	c #80817E",
"U 	c #828380",
"V 	c #676966",
"W 	c #565753",
"X 	c #737471",
"Y 	c #7D7F7A",
"Z 	c #61635E",
"` 	c #5C5E5A",
" .	c #7C7E7A",
"..	c #5B5E59",
"+.	c #545653",
"@.	c #737470",
"#.	c #787A77",
"$.	c #5F615D",
"%.	c #5A5C58",
"&.	c #777975",
"*.	c #767875",
"=.	c #575855",
"-.	c #525350",
";.	c #515450",
">.	c #4F514E",
",.	c #52534F",
"                                            ",
"                                            ",
"                                            ",
"        . +                     @ #         ",
"      $ % & * =               - ; > ,       ",
"      ' ) ! ~ { =           - ~ ] ^ /       ",
"        ( _ : ^ < =       - [ } [ -         ",
"          ( | 1 > 2 =   3 > 4 5 3           ",
"            ( 6 7 8 9 0 8 a 8 b             ",
"              c d e ) f g ) h               ",
"                i j k l m n                 ",
"                o p q r s t =               ",
"              h u k v w x v y =             ",
"            z A B C z D E F G - =           ",
"          H I J I z     K L M N O =         ",
"        + P * Q R         S T J U V         ",
"      W B X Y Z             `  .* F ..      ",
"      +.@.#.$.                %.&.*.=.      ",
"        -.;.                    >.,.        ",
"                                            ",
"                                            ",
"                                            "};
