/* XPM */
static char * button_screenshot_xpm[] = {
"24 24 461 2",
"  	c None",
". 	c #959692",
"+ 	c #B3B4B1",
"@ 	c #D0D1CF",
"# 	c #EEEEED",
"$ 	c #F6F6F5",
"% 	c #DEE5EB",
"& 	c #B8CCE0",
"* 	c #A1BDDA",
"= 	c #9FA19D",
"- 	c #888A85",
"; 	c #A6A8A4",
"> 	c #C4C5C2",
", 	c #E2E3E1",
"' 	c #EBEEF0",
") 	c #C7D5E4",
"! 	c #A4BFDB",
"~ 	c #85ABD4",
"{ 	c #79A4D1",
"] 	c #76A2D0",
"^ 	c #E0E7EC",
"/ 	c #BABBB9",
"( 	c #9A9C98",
"_ 	c #B8BAB7",
": 	c #D7D8D6",
"< 	c #F1F1F0",
"[ 	c #F3F4F4",
"} 	c #D6E0E9",
"| 	c #B1C7DE",
"1 	c #93B4D7",
"2 	c #80A9D4",
"3 	c #82AAD5",
"4 	c #86ACD6",
"5 	c #7F898D",
"6 	c #819AB0",
"7 	c #87ADD6",
"8 	c #85ACD5",
"9 	c #BCCEE1",
"0 	c #D8D8D7",
"a 	c #91938E",
"b 	c #AEAFAC",
"c 	c #CBCCC9",
"d 	c #E8E9E8",
"e 	c #E4E9EE",
"f 	c #BFD0E2",
"g 	c #9FBCDA",
"h 	c #89AED6",
"i 	c #89AED7",
"j 	c #90B4D9",
"k 	c #93B5DA",
"l 	c #92B5DA",
"m 	c #95B6DB",
"n 	c #827B68",
"o 	c #79643F",
"p 	c #9AB9D8",
"q 	c #9DBCDD",
"r 	c #9EBBDA",
"s 	c #F1F2F1",
"t 	c #8C8E89",
"u 	c #DDDEDC",
"v 	c #F4F4F3",
"w 	c #EFF1F2",
"x 	c #CEDAE6",
"y 	c #AAC3DC",
"z 	c #93B4D8",
"A 	c #8DB1D8",
"B 	c #98B9DC",
"C 	c #A0BEDF",
"D 	c #A0BEDE",
"E 	c #9FBEDE",
"F 	c #A1BFDE",
"G 	c #A1BEDC",
"H 	c #A0B9D4",
"I 	c #9AACBD",
"J 	c #7F6F51",
"K 	c #7A6744",
"L 	c #8F9390",
"M 	c #9CA6AC",
"N 	c #9EA7AD",
"O 	c #B8B9B6",
"P 	c #B6B8B4",
"Q 	c #C1C2C0",
"R 	c #D9E1E8",
"S 	c #9BB9D9",
"T 	c #91B4D9",
"U 	c #9CBBDD",
"V 	c #A7C1DC",
"W 	c #A6BCD3",
"X 	c #A1B5C8",
"Y 	c #9CAEBE",
"Z 	c #98A8B4",
"` 	c #96A3AC",
" .	c #9FA8AE",
"..	c #A8AEB1",
"+.	c #B1B5B4",
"@.	c #BBBDBA",
"#.	c #C8C9C6",
"$.	c #D3D4D2",
"%.	c #E8E8E7",
"&.	c #F0F1EF",
"*.	c #F4F4F2",
"=.	c #F1F2EF",
"-.	c #EEEBE5",
";.	c #EDDDCB",
">.	c #EBE4D9",
",.	c #E3E9ED",
"'.	c #8DACCB",
").	c #A8ADAE",
"!.	c #B6B8B6",
"~.	c #C1C2BF",
"{.	c #CDCDCB",
"].	c #D8D9D7",
"^.	c #E3E4E2",
"/.	c #EDEDEC",
"(.	c #F5F6F4",
"_.	c #F1F1EE",
":.	c #F0E6DA",
"<.	c #EED9C1",
"[.	c #EDCAA6",
"}.	c #ECBC8B",
"|.	c #EDB072",
"1.	c #EFA55B",
"2.	c #F19C49",
"3.	c #F29436",
"4.	c #F48B22",
"5.	c #F68514",
"6.	c #F68311",
"7.	c #EABA88",
"8.	c #899FB3",
"9.	c #DDDDDC",
"0.	c #F0E9DE",
"a.	c #F0D4B7",
"b.	c #EFC59B",
"c.	c #EFB982",
"d.	c #F0AD69",
"e.	c #F1A458",
"f.	c #F39E4B",
"g.	c #F4993F",
"h.	c #F69434",
"i.	c #F79636",
"j.	c #F79A3D",
"k.	c #F89F44",
"l.	c #F8A24A",
"m.	c #F8A64E",
"n.	c #F8A750",
"o.	c #F8A64C",
"p.	c #F8A546",
"q.	c #F8A340",
"r.	c #F8A13A",
"s.	c #F79B2F",
"t.	c #EBAF71",
"u.	c #A6A7A4",
"v.	c #D2D3D1",
"w.	c #EFBF8E",
"x.	c #F8A14B",
"y.	c #F9B671",
"z.	c #FABE7F",
"A.	c #FAC58B",
"B.	c #FBC78F",
"C.	c #FAC78D",
"D.	c #FAC588",
"E.	c #FAC383",
"F.	c #FAC17D",
"G.	c #FABF77",
"H.	c #FABD71",
"I.	c #F9BB6B",
"J.	c #F9B965",
"K.	c #F9B75F",
"L.	c #F9B659",
"M.	c #F9B453",
"N.	c #F9B24D",
"O.	c #F9B147",
"P.	c #F8AF40",
"Q.	c #EDA45A",
"R.	c #989A96",
"S.	c #D9D9D8",
"T.	c #C6C7C4",
"U.	c #EFCCA7",
"V.	c #FABC78",
"W.	c #FCDAAF",
"X.	c #FCD9AC",
"Y.	c #FCD7A6",
"Z.	c #FBD5A1",
"`.	c #FBD39B",
" +	c #FBD195",
".+	c #FBCF8E",
"++	c #FBCD88",
"@+	c #FBCB81",
"#+	c #FAC97B",
"$+	c #FAC775",
"%+	c #FAC66F",
"&+	c #FAC469",
"*+	c #FAC363",
"=+	c #FAC25D",
"-+	c #FAC157",
";+	c #F9C051",
">+	c #F9BF4B",
",+	c #EFA049",
"'+	c #B5B6B3",
")+	c #D5D9DC",
"!+	c #B8BAB8",
"~+	c #EFD9C1",
"{+	c #FAB86E",
"]+	c #FDE3B9",
"^+	c #FCE0B3",
"/+	c #FCDEAC",
"(+	c #FCDCA6",
"_+	c #FCDB9F",
":+	c #FCD999",
"<+	c #FBD793",
"[+	c #FBD68C",
"}+	c #FBD486",
"|+	c #FBD380",
"1+	c #FBD178",
"2+	c #FACE69",
"3+	c #FACB5D",
"4+	c #FAC955",
"5+	c #FAC950",
"6+	c #FAC94D",
"7+	c #FACA4B",
"8+	c #FACB49",
"9+	c #F29E3A",
"0+	c #BBC9D8",
"a+	c #A9AEAF",
"b+	c #F0E6D9",
"c+	c #F9AE58",
"d+	c #FDE4B1",
"e+	c #FCE3AC",
"f+	c #FCE2A7",
"g+	c #FCE1A2",
"h+	c #FCE09D",
"i+	c #FCE19A",
"j+	c #FDEAB4",
"k+	c #FDE9AC",
"l+	c #FBD462",
"m+	c #FACD47",
"n+	c #FACA3B",
"o+	c #FACC3A",
"p+	c #FACE3C",
"q+	c #FAD03D",
"r+	c #FAD23E",
"s+	c #FAD440",
"t+	c #FAD641",
"u+	c #FAD843",
"v+	c #F5A029",
"w+	c #EFEFEE",
"x+	c #9FB9D5",
"y+	c #A5AAAC",
"z+	c #F1EFEB",
"A+	c #F7A749",
"B+	c #FDE7A6",
"C+	c #FDE7A3",
"D+	c #FCE7A0",
"E+	c #FCE79C",
"F+	c #FCE695",
"G+	c #FEF7D5",
"H+	c #FFFFFF",
"I+	c #FDF4C0",
"J+	c #FBDB46",
"K+	c #FBDD46",
"L+	c #FBDF47",
"M+	c #FBE149",
"N+	c #FBE24A",
"O+	c #CDB93D",
"P+	c #EDD848",
"Q+	c #FCE64D",
"R+	c #FCE74E",
"S+	c #F8A721",
"T+	c #94B4D7",
"U+	c #A0A6A9",
"V+	c #F3F3F1",
"W+	c #F5A748",
"X+	c #FDEC9D",
"Y+	c #FDED9B",
"Z+	c #FDED98",
"`+	c #FCEB7E",
" @	c #FCE75D",
".@	c #FFFEF8",
"+@	c #FFFFFC",
"@@	c #FCEA5D",
"#@	c #FBE84E",
"$@	c #E6D548",
"%@	c #C6B73E",
"&@	c #786F26",
"*@	c #070602",
"=@	c #100F05",
"-@	c #6A6221",
";@	c #B5A739",
">@	c #E3A023",
",@	c #DDE4EB",
"'@	c #A5C1E0",
")@	c #A0A7AB",
"!@	c #F2F2F1",
"~@	c #F3A74D",
"{@	c #FDF193",
"]@	c #FDF18F",
"^@	c #F9E968",
"/@	c #AA9D35",
"(@	c #B5A83D",
"_@	c #FEFBE4",
":@	c #FDFBEA",
"<@	c #9A8F36",
"[@	c #25220B",
"}@	c #020201",
"|@	c #000000",
"1@	c #030200",
"2@	c #B9CCE0",
"3@	c #C9DAED",
"4@	c #ACB2B6",
"5@	c #ECEDEB",
"6@	c #F0A655",
"7@	c #FCEE82",
"8@	c #B1A548",
"9@	c #2E2B0F",
"0@	c #010100",
"a@	c #3A382D",
"b@	c #838383",
"c@	c #888888",
"d@	c #3D3C33",
"e@	c #A0C0D0",
"f@	c #E0EFE1",
"g@	c #B9C2BA",
"h@	c #EBA964",
"i@	c #675D2C",
"j@	c #040302",
"k@	c #120E0B",
"l@	c #292723",
"m@	c #403E3A",
"n@	c #57554F",
"o@	c #6E6D67",
"p@	c #86857F",
"q@	c #A09E98",
"r@	c #BBB9B2",
"s@	c #88C484",
"t@	c #A6E26C",
"u@	c #9EC777",
"v@	c #D8D8D6",
"w@	c #928475",
"x@	c #060402",
"y@	c #1C1A17",
"z@	c #34312C",
"A@	c #4C4945",
"B@	c #63615D",
"C@	c #7A7973",
"D@	c #93918A",
"E@	c #AEADA7",
"F@	c #C8C7C2",
"G@	c #E0DFD9",
"H@	c #EDEEEB",
"I@	c #EFF0EE",
"J@	c #E5E6E4",
"K@	c #DCDDDB",
"L@	c #C8C8C6",
"M@	c #BBBCB9",
"N@	c #77CB32",
"O@	c #84D833",
"P@	c #89CA48",
"Q@	c #CDCECC",
"R@	c #DADAD6",
"S@	c #D7D4CE",
"T@	c #ECECE9",
"U@	c #F1F2F0",
"V@	c #EBEBE9",
"W@	c #D9DAD8",
"X@	c #CECFCD",
"Y@	c #C2C3C0",
"Z@	c #B6B9B4",
"`@	c #ACAFAD",
" #	c #A1A6A6",
".#	c #969C9F",
"+#	c #8F999E",
"@#	c #8796A4",
"##	c #A4ACB1",
"$#	c #ABACA9",
"%#	c #68BF1B",
"&#	c #70CD15",
"*#	c #75CE1D",
"=#	c #A5AD9D",
"-#	c #BCBEB9",
";#	c #ADB6A4",
">#	c #9EAF8D",
",#	c #91A878",
"'#	c #84A267",
")#	c #83A661",
"!#	c #86AD5F",
"~#	c #89B461",
"{#	c #8EBC65",
"]#	c #94C56C",
"^#	c #9ACC77",
"/#	c #A2D087",
"(#	c #ADD4A2",
"_#	c #B8D8BE",
":#	c #C0D8D7",
"<#	c #99BAD9",
"[#	c #E6EBEE",
"}#	c #B4B5B2",
"|#	c #D2E0CF",
"1#	c #A7CA96",
"2#	c #81BC57",
"3#	c #69B42A",
"4#	c #6ABE1A",
"5#	c #6FCA16",
"6#	c #71CF16",
"7#	c #72D017",
"8#	c #74D219",
"9#	c #78D31E",
"0#	c #7CD525",
"a#	c #81D72E",
"b#	c #88D839",
"c#	c #8DDA43",
"d#	c #92DB4D",
"e#	c #97DC57",
"f#	c #9BDC61",
"g#	c #9EDC6B",
"h#	c #A0DB74",
"i#	c #8EBF98",
"j#	c #939591",
"k#	c #DFE0DE",
"l#	c #F5F5F4",
"m#	c #EBEFE9",
"n#	c #C2D7B7",
"o#	c #97C278",
"p#	c #72B63A",
"q#	c #63B714",
"r#	c #6AC512",
"s#	c #72D015",
"t#	c #73D216",
"u#	c #73D217",
"v#	c #75D319",
"w#	c #77D31D",
"x#	c #7BD523",
"y#	c #80D62C",
"z#	c #85D736",
"A#	c #87D53E",
"B#	c #9FC698",
"C#	c #AEB0AC",
"D#	c #CBCCCA",
"E#	c #E8E9E7",
"F#	c #DFE8D9",
"G#	c #B2CF9A",
"H#	c #88BA5B",
"I#	c #66B121",
"J#	c #62B90F",
"K#	c #6CC813",
"L#	c #73D116",
"M#	c #6BC416",
"N#	c #C1D6B9",
"O#	c #969793",
"P#	c #B6B7B4",
"Q#	c #D4D5D3",
"R#	c #F0F1F0",
"S#	c #F4F5F3",
"T#	c #D2E0C6",
"U#	c #A3C684",
"V#	c #7BB547",
"W#	c #60B014",
"X#	c #65BD10",
"Y#	c #6FCC14",
"Z#	c #61B314",
"`#	c #E8EDE5",
" $	c #B0B1AD",
"                        . + @ # $ % & * $ =     ",
"                - ; > , $ ' ) ! ~ { { ] ^ /     ",
"          ( _ : < [ } | 1 2 3 4 5 6 7 8 9 0     ",
"  a b c d $ e f g h i j k l k m n o p q r s t   ",
"u v w x y z A B C D E D F G H I J K L M N O P Q ",
"R S T U V W X Y Z `  ...+.@.#.$.u %.&.*.=.-.;.>.",
",.'.).!.~.{.].^./.(.v _.:.<.[.}.|.1.2.3.4.5.6.7.",
"$ 8.9.0.a.b.c.d.e.f.g.h.i.j.k.l.m.n.o.p.q.r.s.t.",
"@.u.v.w.x.y.z.A.B.C.D.E.F.G.H.I.J.K.L.M.N.O.P.Q.",
"R.S.T.U.V.W.X.Y.Z.`. +.+++@+#+$+%+&+*+=+-+;+>+,+",
"'+)+!+~+{+]+^+/+(+_+:+<+[+}+|+1+2+3+4+5+6+7+8+9+",
"$.0+a+b+c+d+e+f+g+h+i+j+k+l+m+n+o+p+q+r+s+t+u+v+",
"w+x+y+z+A+B+C+D+E+F+G+H+H+I+J+K+L+M+N+O+P+Q+R+S+",
"$ T+U+V+W+X+Y+Z+`+ @.@H+H++@@@#@$@%@&@*@=@-@;@>@",
",@'@)@!@~@{@]@^@/@(@_@H+H+:@<@[@}@|@|@|@|@|@|@1@",
"2@3@4@5@6@7@8@9@|@0@a@b@c@d@|@|@|@|@|@|@|@|@|@|@",
"e@f@g@, h@i@0@|@|@|@|@|@|@|@|@j@k@l@m@n@o@p@q@r@",
"s@t@u@v@w@|@x@y@z@A@B@C@D@E@F@G@H@&.I@J@K@$.L@M@",
"N@O@P@Q@R@S@T@&.U@V@, W@X@Y@Z@`@ #.#+#@###$#    ",
"%#&#*#=#-#;#>#,#'#)#!#~#{#]#^#/#(#_#:#<#[#}#    ",
"|#1#2#3#4#5#6#7#8#9#0#a#b#c#d#e#f#g#h#i#$ j#    ",
"Y@k#l#m#n#o#p#q#r#s#t#t#u#v#w#x#y#z#A#B#%.      ",
"    a C#D#E#$ F#G#H#I#J#K#L#t#t#t#t#M#N#D#      ",
"            O#P#Q#R#S#T#U#V#W#X#Y#t#Z#`# $      "};
