/* XPM */
static char * button_world_rotate_xy_xpm[] = {
"24 24 121 2",
"  	c None",
". 	c #9E9E9E",
"+ 	c #4B4B4B",
"@ 	c #2E2E2E",
"# 	c #747474",
"$ 	c #818181",
"% 	c #828282",
"& 	c #838383",
"* 	c #7E7E7E",
"= 	c #2C2C2C",
"- 	c #343434",
"; 	c #A9A9A9",
"> 	c #D8D8D8",
", 	c #DBDBDB",
"' 	c #DCDCDC",
") 	c #DDDDDD",
"! 	c #DEDEDE",
"~ 	c #D1D1D1",
"{ 	c #C8C8C8",
"] 	c #4C4C4C",
"^ 	c #BABABA",
"/ 	c #C7C7C7",
"( 	c #B7B7B7",
"_ 	c #9C9C9C",
": 	c #6E6E6E",
"< 	c #707070",
"[ 	c #D5D5D5",
"} 	c #D6D6D6",
"| 	c #D7D7D7",
"1 	c #CACACA",
"2 	c #A3A3A3",
"3 	c #B5B5B5",
"4 	c #1C1C1C",
"5 	c #6A6A6A",
"6 	c #CBCBCB",
"7 	c #B3B3B3",
"8 	c #757575",
"9 	c #484848",
"0 	c #2D2D2D",
"a 	c #282828",
"b 	c #CFCFCF",
"c 	c #D9D9D9",
"d 	c #C3C3C3",
"e 	c #999999",
"f 	c #454545",
"g 	c #CECECE",
"h 	c #CCCCCC",
"i 	c #ADADAD",
"j 	c #5A5A5A",
"k 	c #161616",
"l 	c #070707",
"m 	c #252525",
"n 	c #848484",
"o 	c #BCBCBC",
"p 	c #A2A2A2",
"q 	c #2F2F2F",
"r 	c #1B1B1B",
"s 	c #8A8A8A",
"t 	c #B2B2B2",
"u 	c #B6B6B6",
"v 	c #A6A6A6",
"w 	c #9F9F9F",
"x 	c #A0A0A0",
"y 	c #BEBEBE",
"z 	c #4D4D4D",
"A 	c #A8A8A8",
"B 	c #737373",
"C 	c #696969",
"D 	c #808080",
"E 	c #575757",
"F 	c #5C5C5C",
"G 	c #B4B4B4",
"H 	c #A4A4A4",
"I 	c #A5A5A5",
"J 	c #C2C2C2",
"K 	c #4E4E4E",
"L 	c #C5C5C5",
"M 	c #8C8C8C",
"N 	c #6F6F6F",
"O 	c #979797",
"P 	c #B0B0B0",
"Q 	c #939393",
"R 	c #ABABAB",
"S 	c #ACACAC",
"T 	c #AAAAAA",
"U 	c #C4C4C4",
"V 	c #C0C0C0",
"W 	c #7F7F7F",
"X 	c #AEAEAE",
"Y 	c #9B9B9B",
"Z 	c #9A9A9A",
"` 	c #949494",
" .	c #4A4A4A",
"..	c #727272",
"+.	c #8E8E8E",
"@.	c #888888",
"#.	c #3D3D3D",
"$.	c #383838",
"%.	c #464646",
"&.	c #989898",
"*.	c #232323",
"=.	c #6D6D6D",
"-.	c #515151",
";.	c #595959",
">.	c #2B2B2B",
",.	c #313131",
"'.	c #494949",
").	c #272727",
"!.	c #616161",
"~.	c #5E5E5E",
"{.	c #555555",
"].	c #7B7B7B",
"^.	c #BDBDBD",
"/.	c #7D7D7D",
"(.	c #191919",
"_.	c #787878",
":.	c #8D8D8D",
"<.	c #101010",
"[.	c #505050",
"}.	c #535353",
"|.	c #4F4F4F",
"                      . +                       ",
"                      . +                       ",
"                      . +                       ",
"                      . +                       ",
"              @ # $ $ . + % % & & & & * =       ",
"            - ; > > > . + , , ' ) ! ~ { ]       ",
"          + ^ / ( _ : < + [ } | > 1 2 3 +       ",
"      4 5 6 7 8 9 0 a # b > c | d e e ( ]       ",
"      f g h i j k l m n / g g o . _ . ^ ]       ",
"      + 6 3 p j q r - s t u u v w x p y z       ",
"      + 6 A B C D E F _ G u u ; H I A J K       ",
"      + L M N O P w Q R u u u S A T S U K       ",
". . . + V W W ; u 3 t 3 u u u X S Y Z ` . . . . ",
"+ + +  .t ..+.3 u u u u u 3 R Y @.#.$.%.+ + + + ",
"      + A ..&.G u u u u u t Q F - *.m =.-.      ",
"      + 6 u u u u u u u u 3 w ;.r l >.w -.      ",
"      + 6 u u u u u u u u u P n ,.k '.s ).      ",
"      + 6 u u u u u 7 G 3 ; O =.!.~.{.).        ",
"      + 6 u u u u u Z &.+.W N ].^./.(.          ",
"      + [ 1 1 1 1 1 _.].].s Z U :.<.            ",
"      r [.[.[.[.[.[.K K [.}.|.[.4               ",
"                      _  .                      ",
"                      . +                       ",
"                      . +                       "};
