/* XPM */
static const char * button_move_xz_xpm[] = {
"24 24 79 1",
" 	c None",
".	c #230000",
"+	c #250000",
"@	c #2A0000",
"#	c #480000",
"$	c #C10101",
"%	c #D60101",
"&	c #2B0000",
"*	c #4B0000",
"=	c #DC0101",
"-	c #F50101",
";	c #FB0101",
">	c #D00101",
",	c #9F0101",
"'	c #C60101",
")	c #C40404",
"!	c #490F0F",
"~	c #0B0404",
"{	c #5A2020",
"]	c #5B5555",
"^	c #141414",
"/	c #DB0101",
"(	c #511212",
"_	c #6C6767",
":	c #727272",
"<	c #181818",
"[	c #070707",
"}	c #371818",
"|	c #BB0606",
"1	c #F50202",
"2	c #BF0404",
"3	c #422323",
"4	c #787878",
"5	c #757575",
"6	c #212121",
"7	c #8C8787",
"8	c #573737",
"9	c #462020",
"0	c #5B1C1C",
"a	c #C10808",
"b	c #6F6A6A",
"c	c #838383",
"d	c #696969",
"e	c #171717",
"f	c #262626",
"g	c #B4B4B4",
"h	c #BEBEBE",
"i	c #B9B9B9",
"j	c #A8A2A2",
"k	c #C00A0A",
"l	c #BC0202",
"m	c #4B1212",
"n	c #868686",
"o	c #272727",
"p	c #A6A6A6",
"q	c #D4D4D4",
"r	c #D9D9D9",
"s	c #A8A3A3",
"t	c #563838",
"u	c #3B1C1C",
"v	c #1F1919",
"w	c #898989",
"x	c #3F3F3F",
"y	c #BDBDBD",
"z	c #9D9D9D",
"A	c #303030",
"B	c #353535",
"C	c #6D6D6D",
"D	c #282828",
"E	c #636363",
"F	c #414141",
"G	c #323232",
"H	c #545454",
"I	c #242424",
"J	c #232323",
"K	c #101010",
"L	c #000000",
"M	c #8D8D8D",
"N	c #222222",
"         .+++.          ",
"       @#$%%%$#&&&&&@   ",
"      *$=-;;;-=%%%%>,.  ",
"     *'-;;;;;;;;;;-)!~  ",
"    *'-;;;;;;;;;;-){]^  ",
"   @$-;;;;;;;;;;;/(_:<  ",
"  [}|%%%=1;;;;;;-2345<  ",
"  6789990a%%%=1-){bcde  ",
"  fghiiij89990klm_n4o   ",
"  fpqrrrqhiiistuv5w5<   ",
"   xyrrrrrrrrqhzA5w5<   ",
"   firrrrrrrrrriB5w5<   ",
"   firrrrrrrrrriB5w5<   ",
"   firrrrrrrrrriB5w5<   ",
"   firrrrrrrrrriB5w5<   ",
"   firrrrrrrrrriB5nde   ",
"   firrrrrrrrrriB:CD    ",
"   fpqrrrrrrrrriBEo     ",
"    FpihqrrrrrriGHe     ",
"     IfxpiihqrriJK      ",
"        Iffxpihg6L      ",
"            IfxMI       ",
"               N        ",
"                        "};
