/* XPM */
static char * button_world_rotate_xz_xpm[] = {
"24 24 33 1",
" 	c None",
".	c #AFAFAF",
"+	c #85B38C",
"@	c #3FDD56",
"#	c #59CE69",
"$	c #29EA45",
"%	c #7AB983",
"&	c #2AEA46",
"*	c #32E54B",
"=	c #4BC15B",
"-	c #52BE61",
";	c #63B86F",
">	c #74B37C",
",	c #83AD88",
"'	c #47D85C",
")	c #4FC05E",
"!	c #5FB96B",
"~	c #6EB477",
"{	c #7FAE85",
"]	c #9EABA0",
"^	c #69C376",
"/	c #4CC15C",
"(	c #5BBB68",
"_	c #65BA71",
":	c #2BE946",
"<	c #46C757",
"[	c #43CB56",
"}	c #40CE54",
"|	c #3ED153",
"1	c #3BD451",
"2	c #3AD550",
"3	c #36DA4D",
"4	c #35DC4C",
"                        ",
"         ......         ",
"        .............+  ",
"       ..............@  ",
"      ..............#$  ",
"    ...............%&$  ",
"   ................*$$  ",
"   =-;>,..........'$$$  ",
"   ======)!~{]...^$$$   ",
"   ===========/(_:$$$   ",
"   =============<$$$$   ",
"    ============[$$$$   ",
"    ============[$$$$   ",
"    ============}$$$$   ",
"    ============|$$$$   ",
"    ============|$$$$   ",
"    ============1$$$    ",
"    ============2$$     ",
"    ============2$$     ",
"     ===========3$      ",
"        ========3$      ",
"            ====4       ",
"               =        ",
"                        "};
