/* XPM */
static const char * button_world_rotate_xy_xpm[] = {
"24 24 81 1",
" 	c None",
".	c #0A1D0E",
"+	c #0B1D0E",
"@	c #0C2210",
"#	c #16381A",
"$	c #399246",
"%	c #40A34D",
"&	c #0D2210",
"*	c #163B1B",
"=	c #42A74F",
"-	c #49BC59",
";	c #4BC05B",
">	c #3E9F4B",
",	c #307A39",
"'	c #0B1B0D",
")	c #3B9748",
"!	c #3B9847",
"~	c #15451C",
"{	c #040B05",
"]	c #1B6225",
"^	c #1B942C",
"/	c #06220B",
"(	c #0D1F10",
"_	c #41A850",
":	c #184E20",
"<	c #20B235",
"[	c #22C138",
"}	c #07290C",
"|	c #070707",
"1	c #213023",
"2	c #3C9047",
"3	c #399445",
"4	c #14531D",
"5	c #24CC3B",
"6	c #23C63A",
"7	c #212121",
"8	c #898B89",
"9	c #414F43",
"0	c #2B3D2E",
"a	c #2E4C33",
"b	c #3E954A",
"c	c #4ABC5A",
"d	c #4ABC59",
"e	c #21B736",
"f	c #27DF41",
"g	c #20B234",
"h	c #07270C",
"i	c #262626",
"j	c #B4B4B4",
"k	c #BEBEBE",
"l	c #B9B9B9",
"m	c #A4A7A4",
"n	c #2F4C33",
"o	c #3F954A",
"p	c #398F44",
"q	c #164A1E",
"r	c #28E443",
"s	c #0B4313",
"t	c #A6A6A6",
"u	c #D4D4D4",
"v	c #D9D9D9",
"w	c #253427",
"x	c #0C2C11",
"y	c #29E944",
"z	c #3F3F3F",
"A	c #BDBDBD",
"B	c #9D9D9D",
"C	c #223E26",
"D	c #26432A",
"E	c #21B735",
"F	c #0C4615",
"G	c #1EA931",
"H	c #414141",
"I	c #253E29",
"J	c #1A8E2A",
"K	c #242424",
"L	c #212522",
"M	c #051D08",
"N	c #000000",
"O	c #8D8D8D",
"P	c #222222",
"         .+++.          ",
"       @#$%%%$#&&&&&@   ",
"      *$=-;;;-=%%%%>,'  ",
"     *)-;;;;;;;;;;-!~{  ",
"    *)-;;;;;;;;;;-!]^/  ",
"   ($-;;;;;;;;;;;_:<[}  ",
"  |12%%%=-;;;;;;-3456}  ",
"  789000ab%%%=cd!]efgh  ",
"  ijklllm9000nopq<r5s   ",
"  ituvvvuklllm9wx6y6}   ",
"   zAvvvvvvvvukBC6y6}   ",
"   ilvvvvvvvvvvlD6y6}   ",
"   ilvvvvvvvvvvlD6y6}   ",
"   ilvvvvvvvvvvlD6y6}   ",
"   ilvvvvvvvvvvlD6y6}   ",
"   ilvvvvvvvvvvlD6rgh   ",
"   ilvvvvvvvvvvlD[EF    ",
"   ituvvvvvvvvvlDGs     ",
"    HtlkuvvvvvvlIJh     ",
"     KiztllkuvvlLM      ",
"        Kiiztlkj7N      ",
"            KizOK       ",
"               P        ",
"                        "};
