/* XPM */
static const char * button_move_xy_xpm[] = {
"24 24 73 1",
" 	c None",
".	c #1F1F1F",
"+	c #202020",
"@	c #242424",
"#	c #3F3F3F",
"$	c #A6A6A6",
"%	c #B9B9B9",
"&	c #262626",
"*	c #414141",
"=	c #BEBEBE",
"-	c #D4D4D4",
";	c #D9D9D9",
">	c #B4B4B4",
",	c #898989",
"'	c #ABABAB",
")	c #AAAAAA",
"!	c #090909",
"~	c #525252",
"{	c #5A5A5A",
"]	c #141414",
"^	c #BDBDBD",
"/	c #484848",
"(	c #6B6B6B",
"_	c #727272",
":	c #181818",
"<	c #080000",
"[	c #371D1D",
"}	c #A39D9D",
"|	c #A5A5A5",
"1	c #3E3E3E",
"2	c #787878",
"3	c #757575",
"4	c #260000",
"5	c #A10505",
"6	c #5B1B1B",
"7	c #462020",
"8	c #573737",
"9	c #A8A2A2",
"0	c #6E6E6E",
"a	c #838383",
"b	c #696969",
"c	c #171717",
"d	c #2B0000",
"e	c #D00101",
"f	c #DC0101",
"g	c #D60101",
"h	c #C10606",
"i	c #A2A2A2",
"j	c #434343",
"k	c #868686",
"l	c #272727",
"m	c #C10101",
"n	c #F50101",
"o	c #FB0101",
"p	c #3C1B1B",
"q	c #1F1919",
"r	c #480000",
"s	c #DB0101",
"t	c #B60101",
"u	c #341515",
"v	c #3A1515",
"w	c #6D6D6D",
"x	c #282828",
"y	c #636363",
"z	c #4B0000",
"A	c #371212",
"B	c #545454",
"C	c #2A0000",
"D	c #280303",
"E	c #101010",
"F	c #000000",
"G	c #A30101",
"H	c #280000",
"         .+++.          ",
"       @#$%%%$#&&&&&@   ",
"      *$=-;;;-=%%%%>,.  ",
"     *'-;;;;;;;;;;-)*!  ",
"    *'-;;;;;;;;;;-)~{]  ",
"   @$-;;;;;;;;;;;^/(_:  ",
"  <[}%%%=-;;;;;;-|123:  ",
"  45677789%%%=--)~0abc  ",
"  defgggh677789ij(k2l   ",
"  dmnooonfgggh6pq3,3:   ",
"   rsoooooooonftu3,3:   ",
"   dgoooooooooogv3,3:   ",
"   dgoooooooooogv3,3:   ",
"   dgoooooooooogv3,3:   ",
"   dgoooooooooogv3,3:   ",
"   dgoooooooooogv3kbc   ",
"   dgoooooooooogv_wx    ",
"   dmnooooooooogvyl     ",
"    zmgfnoooooogABc     ",
"     CdrmggfnoogDE      ",
"        Cddrmgfe4F      ",
"            CdrGC       ",
"               H        ",
"                        "};
