/* XPM */
static char * button_move_xpm[] = {
"24 24 112 2",
"  	c None",
". 	c #0C0C0C",
"+ 	c #323232",
"@ 	c #B9B9B9",
"# 	c #2F2F2F",
"$ 	c #101010",
"% 	c #696969",
"& 	c #D9D9D9",
"* 	c #CECECE",
"= 	c #D7D7D7",
"- 	c #505050",
"; 	c #0E0E0E",
"> 	c #111111",
", 	c #969696",
"' 	c #D8D8D8",
") 	c #DBDBDB",
"! 	c #B6B6B6",
"~ 	c #DCDCDC",
"{ 	c #DDDDDD",
"] 	c #787878",
"^ 	c #0F0F0F",
"/ 	c #050505",
"( 	c #121212",
"_ 	c #282828",
": 	c #B8B8B8",
"< 	c #202020",
"[ 	c #151515",
"} 	c #0D0D0D",
"| 	c #010101",
"1 	c #BBBBBB",
"2 	c #DFDFDF",
"3 	c #1F1F1F",
"4 	c #030303",
"5 	c #070707",
"6 	c #252525",
"7 	c #262626",
"8 	c #535353",
"9 	c #DEDEDE",
"0 	c #BFBFBF",
"a 	c #E0E0E0",
"b 	c #3B3B3B",
"c 	c #242424",
"d 	c #0B0B0B",
"e 	c #040404",
"f 	c #131313",
"g 	c #181818",
"h 	c #E1E1E1",
"i 	c #C2C2C2",
"j 	c #E2E2E2",
"k 	c #C3C3C3",
"l 	c #C4C4C4",
"m 	c #C5C5C5",
"n 	c #C7C7C7",
"o 	c #C8C8C8",
"p 	c #CCCCCC",
"q 	c #E3E3E3",
"r 	c #222222",
"s 	c #9C9C9C",
"t 	c #3E3E3E",
"u 	c #232323",
"v 	c #303030",
"w 	c #C6C6C6",
"x 	c #C9C9C9",
"y 	c #CACACA",
"z 	c #CBCBCB",
"A 	c #D0D0D0",
"B 	c #E5E5E5",
"C 	c #EBEBEB",
"D 	c #6D6D6D",
"E 	c #CDCDCD",
"F 	c #CFCFCF",
"G 	c #D3D3D3",
"H 	c #EAEAEA",
"I 	c #ECECEC",
"J 	c #E9E9E9",
"K 	c #404040",
"L 	c #D1D1D1",
"M 	c #D2D2D2",
"N 	c #D6D6D6",
"O 	c #E8E8E8",
"P 	c #3C3C3C",
"Q 	c #E6E6E6",
"R 	c #E7E7E7",
"S 	c #D4D4D4",
"T 	c #D5D5D5",
"U 	c #EDEDED",
"V 	c #EFEFEF",
"W 	c #2B2B2B",
"X 	c #616161",
"Y 	c #1B1B1B",
"Z 	c #090909",
"` 	c #161616",
" .	c #F0F0F0",
"..	c #555555",
"+.	c #888888",
"@.	c #191919",
"#.	c #171717",
"$.	c #EEEEEE",
"%.	c #8C8C8C",
"&.	c #F1F1F1",
"*.	c #343434",
"=.	c #E4E4E4",
"-.	c #F2F2F2",
";.	c #060606",
">.	c #333333",
",.	c #F3F3F3",
"'.	c #AFAFAF",
").	c #F4F4F4",
"!.	c #F6F6F6",
"~.	c #979797",
"{.	c #585858",
"].	c #292929",
"                                                ",
"                        .                       ",
"                      + @ #                     ",
"                  $ % & * = - ;                 ",
"                > , ' ) ! ~ { ] ^               ",
"              / ( ( _ ) : { < [ } |             ",
"                    _ { 1 2 3                   ",
"          4   5 6 7 8 9 0 a b 7 c d   e         ",
"        f ;   g h { 9 ~ i 9 h j j $   } $       ",
"      ( 1 7   g h i k l m n o p q $   r s $     ",
"    ( @ j t u v q m w n x y z A B > g v C D }   ",
"  > ! ' { h h j j o y z p E F G H H C I I J K   ",
"  < ' A m n o x y p E * F L M G N = ' & ) O y } ",
"    P h Q Q R O O F A M G S T & U I I U V O W   ",
"    ; X R ^ [ Y H M S T N = & ~ I Z ` ;  ...    ",
"      > +.@.  #.C N = ' & ) ~ 9 $.[   g %.>     ",
"        > }   #.U $.$.$.{  . .&. .g   ( f       ",
"          4   . [ [ *. .a &.7 ` ` ;   e         ",
"                    r &.=.-.@.                  ",
"              ;.f #.>.,.R ,.W < $ /             ",
"                [ '.,.).H !.!.~.f               ",
"                  f ] ,.). .{.(                 ",
"                    ^ P y ].                    ",
"                        >                       "};
