/* XPM */
static char * button_reset_camera_xpm[] = {
"24 24 366 2",
"  	c None",
". 	c #ADD07F",
"+ 	c #C0D2A7",
"@ 	c #ABAAB2",
"# 	c #C4DEAD",
"$ 	c #E2E9E3",
"% 	c #A6CB7A",
"& 	c #63A813",
"* 	c #C5D9AE",
"= 	c #93919B",
"- 	c #95919A",
"; 	c #EBEED8",
"> 	c #CBDFC0",
", 	c #7DB339",
"' 	c #94BE67",
") 	c #E4E9DE",
"! 	c #7DBC35",
"~ 	c #7FBA3F",
"{ 	c #DBE0DA",
"] 	c #939096",
"^ 	c #7F7E86",
"/ 	c #B9D294",
"( 	c #87B64C",
"_ 	c #BCD0AC",
": 	c #AACA84",
"< 	c #65B10F",
"[ 	c #C7D6AC",
"} 	c #D2DFBB",
"| 	c #7BB333",
"1 	c #9AB175",
"2 	c #A5A6A4",
"3 	c #96949B",
"4 	c #8D908F",
"5 	c #C4DDAB",
"6 	c #A2C181",
"7 	c #C4CFBE",
"8 	c #76B232",
"9 	c #7CB339",
"0 	c #D0D7C7",
"a 	c #95BF4B",
"b 	c #82B447",
"c 	c #B0B4AC",
"d 	c #999C98",
"e 	c #91958D",
"f 	c #A29EA2",
"g 	c #A9AAAA",
"h 	c #D7D7DA",
"i 	c #D8D7CF",
"j 	c #ADCA92",
"k 	c #9DBE79",
"l 	c #B6C997",
"m 	c #76B323",
"n 	c #96B47A",
"o 	c #9FA6A7",
"p 	c #889583",
"q 	c #8E9284",
"r 	c #95A392",
"s 	c #B9C5BC",
"t 	c #DCE3D8",
"u 	c #BAD99F",
"v 	c #A3C679",
"w 	c #A8B69F",
"x 	c #DBD9DF",
"y 	c #DCE5DD",
"z 	c #E7EDE9",
"A 	c #CCCDC2",
"B 	c #A5AA97",
"C 	c #85A362",
"D 	c #719E43",
"E 	c #9CAB85",
"F 	c #BDC8B6",
"G 	c #77B042",
"H 	c #78AF3B",
"I 	c #D2DBCA",
"J 	c #BBD69C",
"K 	c #62AC0F",
"L 	c #95C264",
"M 	c #84908E",
"N 	c #9F9FA2",
"O 	c #E0E0DE",
"P 	c #E9EBEE",
"Q 	c #EEECEC",
"R 	c #DBD9D1",
"S 	c #B7C8B4",
"T 	c #6DAE21",
"U 	c #72B030",
"V 	c #C6D4BF",
"W 	c #A0C373",
"X 	c #68AF0D",
"Y 	c #ABD08C",
"Z 	c #D8E4C9",
"` 	c #7BB92C",
" .	c #7BB82E",
"..	c #D2DFC6",
"+.	c #8B8B92",
"@.	c #929199",
"#.	c #DCE2D5",
"$.	c #CFE0BC",
"%.	c #CFDBC3",
"&.	c #C3C9BD",
"*.	c #8BB952",
"=.	c #6CBA0D",
"-.	c #A3CB82",
";.	c #ADCE95",
">.	c #6BB716",
",.	c #75BF2E",
"'.	c #ADD391",
").	c #96C663",
"!.	c #6FBE12",
"~.	c #90CD53",
"{.	c #A3D27A",
"].	c #5E9444",
"^.	c #6F926B",
"/.	c #A2C989",
"(.	c #73B435",
"_.	c #7EBB46",
":.	c #78B42D",
"<.	c #68B912",
"[.	c #71C011",
"}.	c #80C32E",
"|.	c #A7D366",
"1.	c #B4E06B",
"2.	c #9DD948",
"3.	c #A0E23B",
"4.	c #AAEA43",
"5.	c #B6F34B",
"6.	c #BDF758",
"7.	c #C1F95C",
"8.	c #5AAC13",
"9.	c #57A124",
"0.	c #ACCF79",
"a.	c #B0DC69",
"b.	c #9CD74C",
"c.	c #7DC30D",
"d.	c #81C90D",
"e.	c #89CF14",
"f.	c #92D229",
"g.	c #B8E36F",
"h.	c #B1E756",
"i.	c #A3E23D",
"j.	c #ACE83E",
"k.	c #B2EC51",
"l.	c #B8F457",
"m.	c #C2F55E",
"n.	c #C3F46F",
"o.	c #67A62C",
"p.	c #68A23E",
"q.	c #B6D982",
"r.	c #A3D464",
"s.	c #A1D856",
"t.	c #96D23A",
"u.	c #99DD3E",
"v.	c #A4E148",
"w.	c #ACDE50",
"x.	c #D1EB98",
"y.	c #CEEF90",
"z.	c #C1EE77",
"A.	c #C4EF6B",
"B.	c #C8F16F",
"C.	c #C7EA84",
"D.	c #BBC8AB",
"E.	c #B2B6B0",
"F.	c #B5B7BA",
"G.	c #ABB3B5",
"H.	c #AEA8B9",
"I.	c #A5A6B3",
"J.	c #A4CC66",
"K.	c #AAD764",
"L.	c #8ECC32",
"M.	c #7FC209",
"N.	c #85C80C",
"O.	c #89CE17",
"P.	c #92D61D",
"Q.	c #BCE477",
"R.	c #C2EA72",
"S.	c #B6E952",
"T.	c #AAEA3C",
"U.	c #B1DC60",
"V.	c #ABB4A2",
"W.	c #B1B2BD",
"X.	c #D3D1D5",
"Y.	c #E5E4EF",
"Z.	c #E1E6E6",
"`.	c #DFDBE2",
" +	c #BFBDC4",
".+	c #9B9AA6",
"++	c #9D9DA6",
"@+	c #BBDA88",
"#+	c #8DCD3B",
"$+	c #97D445",
"%+	c #9AD13F",
"&+	c #A1D64E",
"*+	c #A4DA4A",
"=+	c #AFDD54",
"-+	c #C3E983",
";+	c #AFE64B",
">+	c #B2E650",
",+	c #B6E169",
"'+	c #B2BAA5",
")+	c #B5B4C1",
"!+	c #9D9190",
"~+	c #76614D",
"{+	c #CEC5BC",
"]+	c #C9C5C6",
"^+	c #705F59",
"/+	c #A18F97",
"(+	c #C5C3CC",
"_+	c #9696A3",
":+	c #A6A5AE",
"<+	c #A0CC56",
"[+	c #73BC04",
"}+	c #77BF07",
"|+	c #7FC309",
"1+	c #83CA0F",
"2+	c #8CD117",
"3+	c #9AD52F",
"4+	c #BBE67A",
"5+	c #A9E33C",
"6+	c #B2E556",
"7+	c #B5CC96",
"8+	c #DAD8DE",
"9+	c #9F9589",
"0+	c #603511",
"a+	c #5C3009",
"b+	c #BAAA9C",
"c+	c #846C5B",
"d+	c #5B3009",
"e+	c #452109",
"f+	c #BFB3B3",
"g+	c #B9B9C3",
"h+	c #9A9AA3",
"i+	c #B4D982",
"j+	c #A0D55A",
"k+	c #97D33C",
"l+	c #95D52C",
"m+	c #94D62F",
"n+	c #95D732",
"o+	c #9BD53B",
"p+	c #B5E16D",
"q+	c #A3DA34",
"r+	c #AADD4D",
"s+	c #C1CFB6",
"t+	c #E2E4EA",
"u+	c #C1B5AF",
"v+	c #623D1E",
"w+	c #745638",
"x+	c #DFD9D4",
"y+	c #8A705F",
"z+	c #5E3004",
"A+	c #593210",
"B+	c #CABDB9",
"C+	c #CDCCD6",
"D+	c #AAA9B4",
"E+	c #B7B5BA",
"F+	c #B6D384",
"G+	c #C1E193",
"H+	c #9FCF55",
"I+	c #88C52B",
"J+	c #90CD30",
"K+	c #9DD53B",
"L+	c #A9DF45",
"M+	c #B8E655",
"N+	c #BBED57",
"O+	c #C2E580",
"P+	c #D5D7D4",
"Q+	c #D9D3DA",
"R+	c #BCA6A6",
"S+	c #D9CCC5",
"T+	c #E6E1E2",
"U+	c #E3E3E9",
"V+	c #D9D3D4",
"W+	c #947F66",
"X+	c #B1A296",
"Y+	c #D6D3D4",
"Z+	c #CCCDD7",
"`+	c #B9B8C2",
" @	c #B4B3B9",
".@	c #D4ECA9",
"+@	c #D0ED98",
"@@	c #BCE57F",
"#@	c #B9E474",
"$@	c #BCE471",
"%@	c #B6E266",
"&@	c #BBDB85",
"*@	c #D4DADA",
"=@	c #837463",
"-@	c #5A3105",
";@	c #755A3D",
">@	c #E4E2E1",
",@	c #DEE3E9",
"'@	c #DEDDE4",
")@	c #CBC7CC",
"!@	c #9E8D84",
"~@	c #B7ADAB",
"{@	c #C6C7D1",
"]@	c #C2C1CC",
"^@	c #BBB9C1",
"/@	c #E2E9D8",
"(@	c #D4D4D8",
"_@	c #846A5E",
":@	c #602D07",
"<@	c #623A19",
"[@	c #DDDCDA",
"}@	c #E0DAE0",
"|@	c #D8D7D8",
"1@	c #7B685A",
"2@	c #5D2E06",
"3@	c #603D24",
"4@	c #BDB4BA",
"5@	c #C8C6CC",
"6@	c #C5C1C9",
"7@	c #DDDBDF",
"8@	c #AC9894",
"9@	c #5D3C17",
"0@	c #9F8471",
"a@	c #C7C1BD",
"b@	c #A89B9A",
"c@	c #CAC5C0",
"d@	c #6C4B2F",
"e@	c #5F2F04",
"f@	c #542C0F",
"g@	c #B3A7AF",
"h@	c #C9CAD2",
"i@	c #C9C9D4",
"j@	c #DFDFE4",
"k@	c #E6E1E7",
"l@	c #D9D3CE",
"m@	c #D1CED2",
"n@	c #6A4B36",
"o@	c #5C3005",
"p@	c #7F6753",
"q@	c #A78A7F",
"r@	c #624321",
"s@	c #7C6963",
"t@	c #C4C3CB",
"u@	c #CFCFD5",
"v@	c #D4D2D2",
"w@	c #E1E1E1",
"x@	c #DBDAE0",
"y@	c #C1BFBF",
"z@	c #5A330E",
"A@	c #5C2F03",
"B@	c #6B4A31",
"C@	c #C3BBC5",
"D@	c #B9B5BE",
"E@	c #DBD3D4",
"F@	c #866E56",
"G@	c #8A684F",
"H@	c #88694E",
"I@	c #DAD8DF",
"J@	c #CFCAD1",
"K@	c #917764",
"L@	c #765439",
"M@	c #9C8B7C",
"N@	c #B7B6C0",
"O@	c #B5B1BB",
"P@	c #DAD7DB",
"Q@	c #BFB3AC",
"R@	c #785E45",
"S@	c #8D6F55",
"T@	c #997C61",
"U@	c #D7D5DC",
"V@	c #CAC9D8",
"W@	c #C6C0C7",
"X@	c #BCBDC5",
"Y@	c #B6BDC8",
"                          . + @                 ",
"                    # $ % & * = -               ",
"              ; > , ' ) ! ~ { ] ^               ",
"          / ( _ : < [ } | 1 2 3 4               ",
"    5 6 7 8 9 0 a b c d e f g                   ",
"h i j k l m n o p q r s t u v w                 ",
"x y z A B C D E F G H I J K L M N               ",
"O P Q R S T U V W X Y Z `  ...+.@.              ",
"#.$.%.&.*.=.-.;.>.,.'.).!.~.{.].^.              ",
"/.(._.:.<.[.}.|.1.2.3.4.5.6.7.8.9.              ",
"0.a.b.c.d.e.f.g.h.i.j.k.l.m.n.o.p.              ",
"q.r.s.t.u.v.w.x.y.z.A.B.C.D.E.F.G.H.I.          ",
"J.K.L.M.N.O.P.Q.R.S.T.U.V.W.X.Y.Z.`. +.+++      ",
"@+#+$+%+&+*+=+-+;+>+,+'+)+!+~+{+]+^+/+(+_+:+    ",
"<+[+}+|+1+2+3+4+5+6+7+8+9+0+a+b+c+d+e+f+g+h+    ",
"i+j+k+l+m+n+o+p+q+r+s+t+u+v+w+x+y+z+A+B+C+D+E+  ",
"F+G+H+I+J+K+L+M+N+O+P+Q+R+S+T+U+V+W+X+Y+Z+`+ @  ",
"      .@+@@@#@$@%@&@*@=@-@;@>@,@'@)@!@~@{@]@^@  ",
"                  /@(@_@:@<@[@}@|@1@2@3@4@5@6@  ",
"                    7@8@9@0@a@b@c@d@e@f@g@h@i@  ",
"                    j@k@l@m@n@o@p@q@r@s@t@u@v@  ",
"                      w@x@y@z@A@B@C@E+D@E@F@G@H@",
"                        I@J@K@L@M@N@O@P@Q@R@S@T@",
"                          U@V@W@X@Y@            "};
