/* XPM */
static const char * button_move_xy_xpm[] = {
"24 24 31 1",
" 	c None",
".	c #D9D9D9",
"+	c #8F8F8F",
"@	c #9E9E9E",
"#	c #898989",
"$	c #B79494",
"%	c #8B8B8B",
"&	c #FB0101",
"*	c #F50E0E",
"=	c #E53030",
"-	c #D65050",
";	c #C86F6F",
">	c #929292",
",	c #F70909",
"'	c #E92828",
")	c #DB4646",
"!	c #CC6868",
"~	c #BC8989",
"{	c #FA0303",
"]	c #EC2121",
"^	c #D64747",
"/	c #8A8A8A",
"(	c #E91717",
"_	c #DE2424",
":	c #D62D2D",
"<	c #D03434",
"[	c #C54242",
"}	c #C24545",
"|	c #C14646",
"1	c #B55555",
"2	c #B05A5A",
"                        ",
"         ......         ",
"        ..............  ",
"       ..............+  ",
"      ..............@#  ",
"    ................##  ",
"   $...............%##  ",
"   &*=-;$.........>###  ",
"   &&&&&&,')!~....###   ",
"   &&&&&&&&&&&{]^/###   ",
"   &&&&&&&&&&&&&(####   ",
"    &&&&&&&&&&&&_####   ",
"    &&&&&&&&&&&&_####   ",
"    &&&&&&&&&&&&:####   ",
"    &&&&&&&&&&&&<####   ",
"    &&&&&&&&&&&&<####   ",
"    &&&&&&&&&&&&[###    ",
"    &&&&&&&&&&&&}##     ",
"    &&&&&&&&&&&&|##     ",
"     &&&&&&&&&&&1#      ",
"        &&&&&&&&1#      ",
"            &&&&2       ",
"               &        ",
"                        "};
