/* XPM */
static char * button_world_rotate_xy_xpm[] = {
"24 24 284 2",
"  	c None",
". 	c #97C6F6",
"+ 	c #98C7F6",
"@ 	c #99C7F5",
"# 	c #94C0ED",
"$ 	c #84ACD5",
"% 	c #99C8F7",
"& 	c #9AC8F7",
"* 	c #9BC9F6",
"= 	c #9CCAF6",
"- 	c #9ECBF7",
"; 	c #A0CCF7",
"> 	c #A2CDF7",
", 	c #A4CFF7",
"' 	c #A7CFF6",
") 	c #A3C8ED",
"! 	c #93B6D9",
"~ 	c #7A9CBE",
"{ 	c #5C7A98",
"] 	c #A6D2F8",
"^ 	c #A7D1F8",
"/ 	c #A9D2F8",
"( 	c #ABD3F8",
"_ 	c #ADD4F8",
": 	c #AFD5F8",
"< 	c #B1D7F9",
"[ 	c #B3D8F9",
"} 	c #B6D8F7",
"| 	c #B2D0EE",
"1 	c #A3C0DD",
"2 	c #87A8C5",
"3 	c #62809F",
"4 	c #455B73",
"5 	c #B3DDFA",
"6 	c #B4DCFA",
"7 	c #B6DCFA",
"8 	c #B8DCFA",
"9 	c #BADCFA",
"0 	c #BCDDFA",
"a 	c #BEDFFA",
"b 	c #C0E0FA",
"c 	c #C2E1FA",
"d 	c #C6E0F9",
"e 	c #C1D8F0",
"f 	c #B4CAE2",
"g 	c #93B3CD",
"h 	c #6786A6",
"i 	c #485F77",
"j 	c #3E5268",
"k 	c #BFE9FC",
"l 	c #C1E7FB",
"m 	c #C3E7FB",
"n 	c #C5E7FB",
"o 	c #C7E7FB",
"p 	c #C9E7FB",
"q 	c #CBE7FB",
"r 	c #CCE8FB",
"s 	c #CEE9FC",
"t 	c #D1EAFC",
"u 	c #D7E9FA",
"v 	c #D1E2F3",
"w 	c #C4D6E8",
"x 	c #9DBDD6",
"y 	c #6C8DAD",
"z 	c #8897A8",
"A 	c #42576C",
"B 	c #3D5267",
"C 	c #3D5166",
"D 	c #CDF2FD",
"E 	c #D0F2FD",
"F 	c #D2F2FD",
"G 	c #D4F2FD",
"H 	c #D6F2FD",
"I 	c #D7F2FD",
"J 	c #D9F2FD",
"K 	c #DBF2FD",
"L 	c #DDF2FD",
"M 	c #E1F4FD",
"N 	c #E7F2FB",
"O 	c #E2ECF6",
"P 	c #D5E3EE",
"Q 	c #A6C7DF",
"R 	c #7092B3",
"S 	c #4D657F",
"T 	c #CFD1D4",
"U 	c #7C848D",
"V 	c #3E5267",
"W 	c #D2F8FC",
"X 	c #D9F9FD",
"Y 	c #DBF9FD",
"Z 	c #DDF9FD",
"` 	c #DFF9FD",
" .	c #E0F9FD",
"..	c #E2F9FD",
"+.	c #E4F9FD",
"@.	c #E6F9FD",
"#.	c #E8F9FD",
"$.	c #EEFAFD",
"%.	c #F8FBFE",
"&.	c #F3F7FB",
"*.	c #E4EFF6",
"=.	c #ADD0E8",
"-.	c #7598BA",
";.	c #4F6883",
">.	c #919EAB",
",.	c #C1C1C1",
"'.	c #96999D",
").	c #8DB9D7",
"!.	c #97B9D0",
"~.	c #9ABCD2",
"{.	c #9DBFD4",
"].	c #9FC1D5",
"^.	c #A2C3D7",
"/.	c #A4C5D8",
"(.	c #A7C6D8",
"_.	c #A9C6D9",
":.	c #ABC6D9",
"<.	c #ADC6D9",
"[.	c #BBCDDD",
"}.	c #DDE5ED",
"|.	c #EFF8FC",
"1.	c #B4D8F1",
"2.	c #789CBF",
"3.	c #516B87",
"4.	c #748494",
"5.	c #D2D2D3",
"6.	c #9B9B9B",
"7.	c #6B7683",
"8.	c #6D91B6",
"9.	c #6B8EB3",
"0.	c #6C8FB4",
"a.	c #6D90B4",
"b.	c #6D90B5",
"c.	c #6E91B5",
"d.	c #7696B9",
"e.	c #97B1CA",
"f.	c #A0C5E2",
"g.	c #7BA0C4",
"h.	c #536E8A",
"i.	c #455C73",
"j.	c #D1D4D8",
"k.	c #A1A3A5",
"l.	c #626970",
"m.	c #45586C",
"n.	c #939BA4",
"o.	c #697684",
"p.	c #7794B4",
"q.	c #A7B6C5",
"r.	c #C1C7CD",
"s.	c #C7CCD2",
"t.	c #B8C4D0",
"u.	c #859FBA",
"v.	c #6B8DB1",
"w.	c #54708D",
"x.	c #455D74",
"y.	c #6C7C8D",
"z.	c #D0D0D0",
"A.	c #707B87",
"B.	c #3F5469",
"C.	c #44576B",
"D.	c #9D9D9D",
"E.	c #5B6978",
"F.	c #829BB4",
"G.	c #C2C3C4",
"H.	c #C3C4C4",
"I.	c #BABFC4",
"J.	c #C4C5C6",
"K.	c #C7C7C7",
"L.	c #D3D3D3",
"M.	c #ABB6C2",
"N.	c #6C8EB1",
"O.	c #6282A3",
"P.	c #4D6681",
"Q.	c #445C73",
"R.	c #9AA3AD",
"S.	c #B9B9B9",
"T.	c #4A5D72",
"U.	c #3E5369",
"V.	c #526375",
"W.	c #BDBDBD",
"X.	c #43566A",
"Y.	c #6D8FB3",
"Z.	c #BDC0C3",
"`.	c #A5A9AD",
" +	c #6F8DAC",
".+	c #7292B4",
"++	c #9AABBC",
"@+	c #C5C6C6",
"#+	c #CCCCCC",
"$+	c #919BA5",
"%+	c #6B8EB2",
"&+	c #6486A8",
"*+	c #4F6A85",
"=+	c #445B73",
"-+	c #ABB0B5",
";+	c #9DA0A2",
">+	c #40556B",
",+	c #3F5369",
"'+	c #89949F",
")+	c #A0A5AA",
"!+	c #7C99B7",
"~+	c #6F8398",
"{+	c #91A5BA",
"]+	c #C6C6C6",
"^+	c #B0B0B0",
"/+	c #6E849B",
"(+	c #6789AC",
"_+	c #536E8B",
":+	c #9FA1A4",
"<+	c #95999D",
"[+	c #40546A",
"}+	c #44586D",
"|+	c #CBCED1",
"1+	c #63707E",
"2+	c #7B98B6",
"3+	c #B8B8B8",
"4+	c #697F97",
"5+	c #B6BCC3",
"6+	c #C3C3C3",
"7+	c #737C86",
"8+	c #698BAF",
"9+	c #567390",
"0+	c #7E8287",
"a+	c #A3A4A5",
"b+	c #4F6175",
"c+	c #ADB4BB",
"d+	c #9FA3A8",
"e+	c #3F5267",
"f+	c #6C8FB3",
"g+	c #859CB4",
"h+	c #6B8AAB",
"i+	c #A0AFBE",
"j+	c #7C8084",
"k+	c #6A8DB2",
"l+	c #5A7796",
"m+	c #455C74",
"n+	c #586470",
"o+	c #ACACAC",
"p+	c #A0A2A4",
"q+	c #4E5F72",
"r+	c #A6B1BE",
"s+	c #7A8189",
"t+	c #5E7D9D",
"u+	c #475E77",
"v+	c #42576E",
"w+	c #566371",
"x+	c #697582",
"y+	c #45596D",
"z+	c #6C8EB3",
"A+	c #96A7BA",
"B+	c #A5B3C2",
"C+	c #6F91B5",
"D+	c #879EB6",
"E+	c #C3C4C5",
"F+	c #6B8096",
"G+	c #49617B",
"H+	c #41566E",
"I+	c #3F546B",
"J+	c #3F536A",
"K+	c #819BB7",
"L+	c #CFCFCF",
"M+	c #CECECF",
"N+	c #BDBEBF",
"O+	c #7D8EA1",
"P+	c #6485A8",
"Q+	c #4C657F",
"R+	c #41566D",
"S+	c #40546B",
"T+	c #3E5368",
"U+	c #91A5BB",
"V+	c #969A9E",
"W+	c #889FB6",
"X+	c #6F90B2",
"Y+	c #6788AC",
"Z+	c #4F6985",
"`+	c #41566C",
" @	c #3F546A",
".@	c #6C8CAE",
"+@	c #40566C",
"@@	c #6A8CB1",
"#@	c #55718F",
"$@	c #6A8DB1",
"%@	c #6282A4",
"&@	c #4E6782",
"                                                ",
"                                  . + @ # $     ",
"                    % & * = - ; > , ' ) ! ~ {   ",
"                  ] ^ / ( _ : < [ } | 1 2 3 4   ",
"              5 6 7 8 9 0 a b c d e f g h i j   ",
"          k l m n o p q r s t u v w x y z A B C ",
"        D E F G H I J K L M N O P Q R S T U V C ",
"    W X Y Z `  ...+.@.#.$.%.&.*.=.-.;.>.,.'.V C ",
"  ).!.~.{.].^./.(._.:.<.[.}.|.1.2.3.4.5.6.7.V C ",
"  8.9.9.9.9.9.0.0.a.b.c.d.e.f.g.h.i.j.k.l.m.n.o.",
"  9.9.9.9.p.q.r.s.t.u.9.9.b.v.w.x.y.z.A.B.C.D.E.",
"  9.9.9.F.G.H.I.J.K.L.M.N.9.O.P.Q.R.S.T.U.V.W.X.",
"    9.Y.Z.`. +9..+++@+#+$+%+&+*+=+-+;+>+,+'+)+C ",
"    9.!+,.~+9.9.9.9.{+]+^+/+(+_+=+:+<+[+}+|+1+C ",
"    9.2+3+4+9.9.9.9.9.5+6+7+8+9+=+0+a+b+c+d+e+  ",
"      f+g+h+9.9.9.9.9.i+]+j+k+l+m+n+6.o+p+q+    ",
"      9.9.9.9.9.9.9.9.r+]+s+9.t+u+v+w+x+y+      ",
"      9.9.9.z+A+B+C+D+E+S.F+9.O.G+H+I+J+V       ",
"        9.9.K+@+L+M+]+N+O+9.9.P+Q+R+S+T+        ",
"        9.9.9.U+V+U+W+X+9.9.9.Y+Z+`+ @          ",
"              9..@9.9.9.9.9.9.8+h.+@            ",
"                    9.9.9.9.9.@@#@>+            ",
"                            $@%@&@              ",
"                                                "};
