/* XPM */
static char * button_world_rotate_xz_xpm[] = {
"24 24 336 2",
"  	c None",
". 	c #0F1215",
"+ 	c #090C0F",
"@ 	c #303F4B",
"# 	c #58636C",
"$ 	c #78838C",
"% 	c #60676C",
"& 	c #2F3234",
"* 	c #292A2C",
"= 	c #080909",
"- 	c #000000",
"; 	c #050607",
"> 	c #050708",
", 	c #050709",
"' 	c #09121A",
") 	c #5B6F7F",
"! 	c #626B70",
"~ 	c #9DA5AA",
"{ 	c #8F979D",
"] 	c #161717",
"^ 	c #020202",
"/ 	c #3D4246",
"( 	c #79848C",
"_ 	c #4C5963",
": 	c #2F404F",
"< 	c #5F6E7B",
"[ 	c #7A838B",
"} 	c #C1CBD2",
"| 	c #656A6E",
"1 	c #0A0B0B",
"2 	c #77828A",
"3 	c #C5D3DD",
"4 	c #D3DEE7",
"5 	c #C9D5DD",
"6 	c #818E97",
"7 	c #3C4D5B",
"8 	c #556775",
"9 	c #828D95",
"0 	c #C0CCD5",
"a 	c #C0CCD4",
"b 	c #64696D",
"c 	c #A0AEB7",
"d 	c #131516",
"e 	c #1F2224",
"f 	c #A7B4BD",
"g 	c #D1DEE8",
"h 	c #CDDBE5",
"i 	c #D2DFE8",
"j 	c #C8D7E0",
"k 	c #6F808D",
"l 	c #3B4A56",
"m 	c #606D75",
"n 	c #BFCAD1",
"o 	c #DAE5ED",
"p 	c #DCE8F0",
"q 	c #C0CCD3",
"r 	c #2E3235",
"s 	c #010101",
"t 	c #202427",
"u 	c #070809",
"v 	c #4F5960",
"w 	c #C7D8E3",
"x 	c #D0DEE7",
"y 	c #D0DEE8",
"z 	c #CDDCE6",
"A 	c #C9D8E2",
"B 	c #A7BAC8",
"C 	c #576774",
"D 	c #455561",
"E 	c #9EACB6",
"F 	c #D3E0E9",
"G 	c #D5E2EB",
"H 	c #BBCBD7",
"I 	c #444D53",
"J 	c #161A1C",
"K 	c #798A95",
"L 	c #3F484E",
"M 	c #97ACB9",
"N 	c #CDDEE8",
"O 	c #BACCDB",
"P 	c #C4D5E1",
"Q 	c #C3D4DF",
"R 	c #C2D3DF",
"S 	c #B3C7D6",
"T 	c #859BAC",
"U 	c #4E5C66",
"V 	c #BED0DB",
"W 	c #CDDCE7",
"X 	c #BED0DD",
"Y 	c #8095A3",
"Z 	c #111416",
"` 	c #0E1012",
" .	c #7C8F9D",
"..	c #A0BACA",
"+.	c #6D808C",
"@.	c #A3BBCC",
"#.	c #C7D9E5",
"$.	c #B8CCDA",
"%.	c #A8BECF",
"&.	c #A2B8CA",
"*.	c #AEC2D2",
"=.	c #ADC3D2",
"-.	c #97B0C3",
";.	c #4D5F6C",
">.	c #40505D",
",.	c #6A7B88",
"'.	c #A9BECD",
").	c #ADC1D0",
"!.	c #99B2C5",
"~.	c #47555F",
"{.	c #1D2226",
"].	c #9CBACD",
"^.	c #A4C4D9",
"/.	c #A1C1D6",
"(.	c #BBD2E1",
"_.	c #CBDCE7",
":.	c #C8DAE5",
"<.	c #BACEDC",
"[.	c #B1C6D5",
"}.	c #AFC4D4",
"|.	c #A4BCCD",
"1.	c #95AFC2",
"2.	c #708696",
"3.	c #0D1824",
"4.	c #38444E",
"5.	c #798D9C",
"6.	c #6987A1",
"7.	c #7F9CB4",
"8.	c #7A97AF",
"9.	c #2D383F",
"0.	c #2F3941",
"a.	c #93B4CD",
"b.	c #92B4CC",
"c.	c #97B7CE",
"d.	c #C7DAE6",
"e.	c #C4D6E3",
"f.	c #BFD3E0",
"g.	c #B9CEDC",
"h.	c #B3C8D7",
"i.	c #A0B8C9",
"j.	c #93ACC0",
"k.	c #90AABE",
"l.	c #5C778D",
"m.	c #0B151E",
"n.	c #222F3B",
"o.	c #657D90",
"p.	c #8FA9BE",
"q.	c #7897AF",
"r.	c #728FA5",
"s.	c #1F282F",
"t.	c #030405",
"u.	c #5C7587",
"v.	c #82A6C1",
"w.	c #82A6C0",
"x.	c #90AFC6",
"y.	c #BFD3E1",
"z.	c #BBD0DE",
"A.	c #B6CCDB",
"B.	c #B0C7D6",
"C.	c #A9C1D1",
"D.	c #A1BACC",
"E.	c #8BA6BA",
"F.	c #809CB0",
"G.	c #3C5B77",
"H.	c #0A121A",
"I.	c #162430",
"J.	c #38566F",
"K.	c #5E7E9A",
"L.	c #7F9CB3",
"M.	c #859DAC",
"N.	c #1E2427",
"O.	c #0D1013",
"P.	c #6688A3",
"Q.	c #7096B4",
"R.	c #6F96B3",
"S.	c #7096B2",
"T.	c #ABC2D4",
"U.	c #B2C9D9",
"V.	c #AEC5D6",
"W.	c #A8C0D1",
"X.	c #A3BBCD",
"Y.	c #9DB6C9",
"Z.	c #95AEC2",
"`.	c #6C89A1",
" +	c #2F4F6E",
".+	c #172533",
"++	c #344C60",
"@+	c #405E78",
"#+	c #5B758A",
"$+	c #7A8C98",
"%+	c #2F3337",
"&+	c #2E3337",
"*+	c #7898B0",
"=+	c #60819B",
"-+	c #5C819E",
";+	c #6989A3",
">+	c #6888A2",
",+	c #A2BACC",
"'+	c #98B1C4",
")+	c #88A3B8",
"!+	c #496782",
"~+	c #203E5B",
"{+	c #071017",
"]+	c #3A3F44",
"^+	c #3E4246",
"/+	c #2F3134",
"(+	c #27292B",
"_+	c #2D2E2F",
":+	c #38393A",
"<+	c #3B3C3C",
"[+	c #747D83",
"}+	c #537A99",
"|+	c #507696",
"1+	c #4C7292",
"2+	c #4D7090",
"3+	c #92ADC1",
"4+	c #98B1C5",
"5+	c #93ADC1",
"6+	c #6D89A1",
"7+	c #294967",
"8+	c #183149",
"9+	c #020508",
"0+	c #383838",
"a+	c #212121",
"b+	c #25282B",
"c+	c #272829",
"d+	c #1D1D1D",
"e+	c #262626",
"f+	c #4B6C89",
"g+	c #4A6F8F",
"h+	c #476C8D",
"i+	c #44698A",
"j+	c #3F6484",
"k+	c #809CB2",
"l+	c #92ACC0",
"m+	c #8CA8BD",
"n+	c #5F7C95",
"o+	c #20405F",
"p+	c #0D1C2B",
"q+	c #424242",
"r+	c #1F1F1F",
"s+	c #282829",
"t+	c #373F47",
"u+	c #42576A",
"v+	c #636E77",
"w+	c #414242",
"x+	c #2F373F",
"y+	c #3B5E7D",
"z+	c #3E6383",
"A+	c #3D6081",
"B+	c #3A5E7E",
"C+	c #355979",
"D+	c #7A96AD",
"E+	c #8AA6BA",
"F+	c #83A0B5",
"G+	c #44617B",
"H+	c #142C43",
"I+	c #04090D",
"J+	c #282828",
"K+	c #414141",
"L+	c #1B242D",
"M+	c #25415A",
"N+	c #4B5C6A",
"O+	c #151515",
"P+	c #242D36",
"Q+	c #335575",
"R+	c #335778",
"S+	c #305474",
"T+	c #2E5070",
"U+	c #63819A",
"V+	c #82A0B5",
"W+	c #6E8CA3",
"X+	c #152F4A",
"Y+	c #08131F",
"Z+	c #010102",
"`+	c #1C1C1C",
" @	c #020507",
".@	c #192531",
"+@	c #24272A",
"@@	c #111112",
"#@	c #212C36",
"$@	c #2B4D6C",
"%@	c #2C4F6F",
"&@	c #2A4D6E",
"*@	c #284B6A",
"=@	c #254867",
"-@	c #476782",
";@	c #7697AD",
">@	c #3E5A73",
",@	c #0A1827",
"'@	c #010305",
")@	c #5B6D7A",
"!@	c #566470",
"~@	c #1E2226",
"{@	c #1B2733",
"]@	c #1D3B57",
"^@	c #224363",
"/@	c #204261",
"(@	c #1F3F5F",
"_@	c #1C3D5C",
":@	c #1A3753",
"<@	c #152A40",
"[@	c #06101B",
"}@	c #2D2D2D",
"|@	c #181818",
"1@	c #404040",
"2@	c #0D0D0D",
"3@	c #303334",
"4@	c #333435",
"5@	c #262B31",
"6@	c #1C2630",
"7@	c #081420",
"8@	c #183654",
"9@	c #183755",
"0@	c #16324F",
"a@	c #112840",
"b@	c #0A1928",
"c@	c #04090F",
"d@	c #000101",
"e@	c #454545",
"f@	c #202020",
"g@	c #272727",
"h@	c #292929",
"i@	c #2C2D2D",
"j@	c #1B2025",
"k@	c #040B12",
"l@	c #02060A",
"m@	c #03070D",
"n@	c #050D15",
"o@	c #000102",
"p@	c #131313",
"q@	c #2F2F2F",
"r@	c #4B4B4B",
"s@	c #5B5B5B",
"t@	c #2E2E2E",
"u@	c #1B1B1B",
"                          . +                 @ ",
"              # $ % & * = - ; > ,           @ ' ",
"          ) ! ~ { ] - - - ^ / ( _ :       @ '   ",
"        < [ } | - - - - 1 2 3 4 5 6 7   @ '     ",
"      8 9 0 a b c d - - e f g h i j k l '       ",
"      m n o p q r s t u v w x y z A B C         ",
"    D E F G H I - J K L M N O P Q R S T @       ",
"    U V W X Y Z `  ...+.@.#.$.%.&.*.=.-.;.      ",
"  >.,.'.).!.~.- {.].^./.(._.:.<.[.}.|.1.2.3.    ",
"  4.5.6.7.8.9.- 0.a.b.c.d.e.f.g.h.i.j.k.l.m.    ",
"  n.o.p.q.r.s.t.u.v.w.x.y.z.A.B.C.D.E.F.G.H.    ",
"  I.J.K.L.M.N.O.P.Q.R.S.T.U.V.W.X.Y.Z.`. +'     ",
"  .+++@+#+$+%+&+*+=+@ ' -+;+>+,+Y.'+)+!+~+{+    ",
"  ]+^+/+(+_+:+<+[+@ ' }+|+1+2+3+4+5+6+7+8+9+    ",
"  0+a+a+b+c+d+e+@ ' f+g+h+i+j+k+l+m+n+o+p+-     ",
"q+r+s+t+u+v+w+@ ' x+y+z+A+B+C+D+E+F+G+H+I+      ",
"J+d+K+L+M+N+@ ' O+P+Q+C+R+S+T+U+V+W+X+Y+Z+      ",
"`+r+   @.@@ ' +@@@#@$@%@&@*@=@-@;@>@,@'@-       ",
"r+`+    @ ' )@!@~@{@]@^@/@(@_@:@<@[@- -         ",
"}@|@1@@ ' 2@3@4@5@6@7@8@9@0@a@b@c@d@-           ",
"e@f@@ ' g@h@J+|@i@j@k@l@m@n@l@o@-               ",
"  @ ' O+p@p@`+q@r@    - -                       ",
"@ ' s@t@O+u@q+                                  ",
"'                                               "};
