/* XPM */
static char * button_snap_to_grid_xpm[] = {
"24 24 31 1",
" 	c None",
".	c #000000",
"+	c #FFFFFF",
"@	c #010101",
"#	c #EAEAEA",
"$	c #E49D6D",
"%	c #E08D55",
"&	c #D4603D",
"*	c #FAFAFA",
"=	c #DADADA",
"-	c #C3C2C1",
";	c #C21717",
">	c #D25235",
",	c #9B9997",
"'	c #B21515",
")	c #BD3826",
"!	c #C82E23",
"~	c #EFEFEF",
"{	c #EBEBEB",
"]	c #757575",
"^	c #CBCBCB",
"/	c #E7E7E7",
"(	c #D86C41",
"_	c #CE442D",
":	c #9E1313",
"<	c #B4B2AE",
"[	c #D1D1D1",
"}	c #A6A5A4",
"|	c #83817B",
"1	c #7D7B77",
"2	c #646463",
"                        ",
" .    .    .    .    .  ",
"  +    +    +    +    + ",
"                        ",
"                        ",
"                        ",
" .    @@@@@@@@@@@@.  .  ",
"  +   @+##$%%%%%%%&@. * ",
"      @=--;;;;;;;;;>@   ",
"      @-,,''''''';;;).  ",
"      @@@@@@@@@@@;;;'@  ",
" .    .    .    .@!;'@  ",
"  +    ~    {    ]>;'@^ ",
"                  &;'@  ",
"                 @&;'@  ",
"      @@@@@@@@@@@&!;'@  ",
" .    @+#/$%%%%%(_;;:.  ",
"  +   @=<<;;;;;;;;;'@ [ ",
"      @}|1'''''''':@.   ",
"      @@@@@@@@@@@@2     ",
"                        ",
" .    .    .    .    .  ",
"  +    +    +    +    + ",
"                        "};
