/* XPM */
static char * button_move_xz_xpm[] = {
"24 24 32 1",
" 	c None",
".	c #FB0101",
"+	c #E02121",
"@	c #F60707",
"#	c #9D7171",
"$	c #B65353",
"%	c #898989",
"&	c #D52E2E",
"*	c #8A8888",
"=	c #F82222",
"-	c #FB0303",
";	c #EE1111",
">	c #917F7F",
",	c #BABABA",
"'	c #EAA5A5",
")	c #EF7A7A",
"!	c #F35252",
"~	c #F82121",
"{	c #FB0606",
"]	c #FA0303",
"^	c #A66767",
"/	c #E9B0B0",
"(	c #ED8989",
"_	c #F25C5C",
":	c #F62F2F",
"<	c #FA0A0A",
"[	c #C54141",
"}	c #E8BABA",
"|	c #E39090",
"1	c #8B8787",
"2	c #ACACAC",
"3	c #A8A8A8",
"                        ",
"         ......         ",
"        .............+  ",
"       .............@#  ",
"      ..............$%  ",
"    ...............&*%  ",
"   =-.............;>%%  ",
"   ,,')!~{.......]^%%%  ",
"   ,,,,,,,/(_:<..[%%%   ",
"   ,,,,,,,,,,,,}|1%%%   ",
"   ,,,,,,,,,,,,,,%%%%   ",
"    ,,,,,,,,,,,,,%%%%   ",
"    ,,,,,,,,,,,,,%%%%   ",
"    ,,,,,,,,,,,,,%%%%   ",
"    ,,,,,,,,,,,,,%%%%   ",
"    ,,,,,,,,,,,,,%%%%   ",
"    ,,,,,,,,,,,,,%%%    ",
"    ,,,,,,,,,,,,,%%     ",
"    ,,,,,,,,,,,,,%%     ",
"     ,,,,,,,,,,,2%      ",
"        ,,,,,,,,2%      ",
"            ,,,,3       ",
"               ,        ",
"                        "};
