/* XPM */
static const char * button_draw_cube_xpm[] = {
"24 24 93 2",
"  	c None",
". 	c #0A0A0A",
"+ 	c #191919",
"@ 	c #181818",
"# 	c #030303",
"$ 	c #111111",
"% 	c #222222",
"& 	c #D0D0D0",
"* 	c #E7E7E7",
"= 	c #E8E8E8",
"- 	c #E9E9E9",
"; 	c #EAEAEA",
"> 	c #EBEBEB",
", 	c #D9D9D9",
"' 	c #060606",
") 	c #131313",
"! 	c #434343",
"~ 	c #DEDEDE",
"{ 	c #DCDCDC",
"] 	c #D1D1D1",
"^ 	c #D2D2D2",
"/ 	c #D3D3D3",
"( 	c #D4D4D4",
"_ 	c #D5D5D5",
": 	c #D6D6D6",
"< 	c #D7D7D7",
"[ 	c #D8D8D8",
"} 	c #A8A8A8",
"| 	c #6D6D6D",
"1 	c #E6E6E6",
"2 	c #CFCFCF",
"3 	c #9E9E9E",
"4 	c #989898",
"5 	c #0E0E0E",
"6 	c #DADADA",
"7 	c #C7C7C7",
"8 	c #999999",
"9 	c #979797",
"0 	c #9B9B9B",
"a 	c #050505",
"b 	c #BBBBBB",
"c 	c #E5E5E5",
"d 	c #DBDBDB",
"e 	c #BFBFBF",
"f 	c #9A9A9A",
"g 	c #9F9F9F",
"h 	c #000000",
"i 	c #E0E0E0",
"j 	c #B6B6B6",
"k 	c #9C9C9C",
"l 	c #9D9D9D",
"m 	c #A3A3A3",
"n 	c #A0A0A0",
"o 	c #A1A1A1",
"p 	c #A2A2A2",
"q 	c #A4A4A4",
"r 	c #A5A5A5",
"s 	c #A6A6A6",
"t 	c #ACACAC",
"u 	c #A9A9A9",
"v 	c #ABABAB",
"w 	c #AFAFAF",
"x 	c #ADADAD",
"y 	c #AEAEAE",
"z 	c #B0B0B0",
"A 	c #B3B3B3",
"B 	c #DDDDDD",
"C 	c #B1B1B1",
"D 	c #B2B2B2",
"E 	c #B4B4B4",
"F 	c #B7B7B7",
"G 	c #DFDFDF",
"H 	c #B5B5B5",
"I 	c #B9B9B9",
"J 	c #BCBCBC",
"K 	c #E1E1E1",
"L 	c #BABABA",
"M 	c #BDBDBD",
"N 	c #C0C0C0",
"O 	c #E3E3E3",
"P 	c #C1C1C1",
"Q 	c #C2C2C2",
"R 	c #C3C3C3",
"S 	c #C4C4C4",
"T 	c #E2E2E2",
"U 	c #313131",
"V 	c #C6C6C6",
"W 	c #272727",
"X 	c #010101",
"Y 	c #CACACA",
"Z 	c #1E1E1E",
"` 	c #161616",
" .	c #090909",
"                                                ",
"                                                ",
"              . + + + + + + + + + + + + + @ #   ",
"          $ % & * * * = = - - - ; ; > > ; , '   ",
"        ) ! ~ { & & ] ^ / ( ( _ : < [ / } & '   ",
"      $ | 1 [ ] ^ ^ / ( _ : : < [ , 2 3 4 & '   ",
"    5 4 = _ ^ / / ( _ : < [ [ , 6 7 8 9 0 ^ '   ",
"  a b c ( / ( _ _ : < [ , 6 6 d e 8 f 0 g ( '   ",
"  h i j j j j j j j j j j j j j k l 3 g m : '   ",
"  h i j j j j j j j j j j j j j n o p m } [ '   ",
"  h i j j j j j j j j j j j j j q r s } t , '   ",
"  h i j j j j j j j j j j j j j } u v t w d '   ",
"  h i j j j j j j j j j j j j j x y w z A B '   ",
"  h i j j j j j j j j j j j j j C D A E F G '   ",
"  h i j j j j j j j j j j j j j H j F I J K '   ",
"  h i j j j j j j j j j j j j j I L J M N O '   ",
"  h i j j j j j j j j j j j j j M e N P ^ i '   ",
"  h i j j j j j j j j j j j j j Q R S _ T U     ",
"  h i j j j j j j j j j j j j j V 7 [ T W X     ",
"  h i j j j j j j j j j j j j j Y d T Z X       ",
"  h i j j j j j j j j j j j j j ~ K ` h         ",
"  h i ~ ~ ~ ~ ~ ~ ~ ~ ~ ~ ~ ~ ~ G )             ",
"  h  . . . . . . . . . . . . . .'               ",
"                                                "};
