/* XPM */
static char * button_world_sphere_xpm[] = {
"24 24 333 2",
"  	c None",
". 	c #58636C",
"+ 	c #7C8891",
"@ 	c #8F9AA1",
"# 	c #969FA5",
"$ 	c #9AA1A6",
"% 	c #88939B",
"& 	c #7A8994",
"* 	c #647583",
"= 	c #31404B",
"- 	c #5B6F7F",
"; 	c #626B70",
"> 	c #9FA7AD",
", 	c #BEC9D1",
"' 	c #D8E2E7",
") 	c #E5EDF2",
"! 	c #C7D4DF",
"~ 	c #BFCEDA",
"{ 	c #B4C3D0",
"] 	c #8F9CA6",
"^ 	c #505D68",
"/ 	c #304251",
"( 	c #5F6E7B",
"_ 	c #7A838B",
": 	c #C7D1D8",
"< 	c #D6E1E9",
"[ 	c #D0DEE8",
"} 	c #D8E6EE",
"| 	c #D2E0E9",
"1 	c #C5D6E2",
"2 	c #CDDBE6",
"3 	c #BFD1DE",
"4 	c #CCDAE5",
"5 	c #D5E0E9",
"6 	c #C9D5DD",
"7 	c #818E97",
"8 	c #3C4D5B",
"9 	c #556775",
"0 	c #828D95",
"a 	c #C0CCD5",
"b 	c #D3E0E9",
"c 	c #DBE7EE",
"d 	c #C9DBE6",
"e 	c #C6DAE6",
"f 	c #C4D8E5",
"g 	c #C2D6E5",
"h 	c #BED2E0",
"i 	c #C9D9E4",
"j 	c #D1DEE8",
"k 	c #CDDBE5",
"l 	c #D2DFE8",
"m 	c #C8D7E0",
"n 	c #6F808D",
"o 	c #3B4A56",
"p 	c #606D75",
"q 	c #BFCAD1",
"r 	c #DAE5ED",
"s 	c #DCE8F0",
"t 	c #D6E4EC",
"u 	c #C3D9E8",
"v 	c #C2DAE8",
"w 	c #BFD6E6",
"x 	c #BAD1E1",
"y 	c #C7D8E3",
"z 	c #D0DEE7",
"A 	c #CDDCE6",
"B 	c #C9D8E2",
"C 	c #A7BAC8",
"D 	c #576774",
"E 	c #455561",
"F 	c #9EACB6",
"G 	c #D5E2EB",
"H 	c #C4D5E1",
"I 	c #B2C9DA",
"J 	c #B5CEDE",
"K 	c #BDD6E7",
"L 	c #BDD7E8",
"M 	c #B8D3E3",
"N 	c #B7D0E0",
"O 	c #CDDEE8",
"P 	c #BACCDB",
"Q 	c #C3D4DF",
"R 	c #C2D3DF",
"S 	c #B3C7D6",
"T 	c #859BAC",
"U 	c #303F4B",
"V 	c #4E5C66",
"W 	c #BED0DB",
"X 	c #CDDCE7",
"Y 	c #BED0DD",
"Z 	c #A1BCCE",
"` 	c #A9C4D7",
" .	c #AFCADD",
"..	c #B2CEE1",
"+.	c #B2CFE1",
"@.	c #AECBDE",
"#.	c #B0CADC",
"$.	c #C7D9E5",
"%.	c #B8CCDA",
"&.	c #A8BECF",
"*.	c #A2B8CA",
"=.	c #AEC2D2",
"-.	c #ADC3D2",
";.	c #97B0C3",
">.	c #4D5F6C",
",.	c #40505D",
"'.	c #6A7B88",
").	c #A9BECD",
"!.	c #ADC1D0",
"~.	c #9BB4C7",
"{.	c #9AB7CC",
"].	c #9EBCD2",
"^.	c #A2C0D6",
"/.	c #A5C4D9",
"(.	c #A4C4D9",
"_.	c #A1C1D6",
":.	c #BBD2E1",
"<.	c #CBDCE7",
"[.	c #C8DAE5",
"}.	c #BACEDC",
"|.	c #B1C6D5",
"1.	c #AFC4D4",
"2.	c #A4BCCD",
"3.	c #95AFC2",
"4.	c #708696",
"5.	c #0D1824",
"6.	c #38444E",
"7.	c #798D9C",
"8.	c #6987A1",
"9.	c #7F9CB4",
"0.	c #82A1BA",
"a.	c #8AAAC2",
"b.	c #8EAEC6",
"c.	c #91B2CA",
"d.	c #93B4CD",
"e.	c #92B4CC",
"f.	c #97B7CE",
"g.	c #C7DAE6",
"h.	c #C4D6E3",
"i.	c #BFD3E0",
"j.	c #B9CEDC",
"k.	c #B3C8D7",
"l.	c #A0B8C9",
"m.	c #93ACC0",
"n.	c #90AABE",
"o.	c #5C778D",
"p.	c #0B151E",
"q.	c #222F3B",
"r.	c #657D90",
"s.	c #8FA9BE",
"t.	c #7897AF",
"u.	c #7F9FB7",
"v.	c #7B9DB8",
"w.	c #7EA1BC",
"x.	c #81A4BE",
"y.	c #82A6C1",
"z.	c #82A6C0",
"A.	c #90AFC6",
"B.	c #BFD3E1",
"C.	c #BBD0DE",
"D.	c #B6CCDB",
"E.	c #B0C7D6",
"F.	c #A9C1D1",
"G.	c #A1BACC",
"H.	c #8BA6BA",
"I.	c #809CB0",
"J.	c #3C5B77",
"K.	c #0A121A",
"L.	c #162430",
"M.	c #38566F",
"N.	c #5E7E9A",
"O.	c #7F9CB3",
"P.	c #9BB6C8",
"Q.	c #9DB8CB",
"R.	c #7E9FB8",
"S.	c #6F94B1",
"T.	c #7096B4",
"U.	c #6F96B3",
"V.	c #7096B2",
"W.	c #ABC2D4",
"X.	c #B2C9D9",
"Y.	c #AEC5D6",
"Z.	c #A8C0D1",
"`.	c #A3BBCD",
" +	c #9DB6C9",
".+	c #95AEC2",
"++	c #6C89A1",
"@+	c #2F4F6E",
"#+	c #09121A",
"$+	c #162432",
"%+	c #2A465E",
"&+	c #406585",
"*+	c #6485A0",
"=+	c #9DB7C9",
"-+	c #A9C1D2",
";+	c #A3BDCE",
">+	c #799AB4",
",+	c #638AA8",
"'+	c #5E85A5",
")+	c #5D84A3",
"!+	c #5C819E",
"~+	c #6989A3",
"{+	c #6888A2",
"]+	c #A2BACC",
"^+	c #98B1C4",
"/+	c #88A3B8",
"(+	c #496782",
"_+	c #203E5B",
":+	c #071017",
"<+	c #101C27",
"[+	c #1E3447",
"}+	c #3C6080",
"|+	c #718FA8",
"1+	c #9FB8CA",
"2+	c #A3BCCD",
"3+	c #A6BECF",
"4+	c #A4BDCE",
"5+	c #82A0B8",
"6+	c #587D9C",
"7+	c #537A99",
"8+	c #507696",
"9+	c #4C7292",
"0+	c #4D7090",
"a+	c #92ADC1",
"b+	c #98B1C5",
"c+	c #93ADC1",
"d+	c #6D89A1",
"e+	c #294967",
"f+	c #183149",
"g+	c #020508",
"h+	c #121F2C",
"i+	c #325574",
"j+	c #5F7E98",
"k+	c #94AEC2",
"l+	c #9DB6C8",
"m+	c #89A4B9",
"n+	c #4C6F8E",
"o+	c #4A6F8F",
"p+	c #476C8D",
"q+	c #44698A",
"r+	c #3F6484",
"s+	c #809CB2",
"t+	c #92ACC0",
"u+	c #8CA8BD",
"v+	c #5F7C95",
"w+	c #20405F",
"x+	c #0D1C2B",
"y+	c #000000",
"z+	c #080E14",
"A+	c #1E354B",
"B+	c #325372",
"C+	c #617E97",
"D+	c #97B1C4",
"E+	c #99B2C6",
"F+	c #6A87A0",
"G+	c #3D6181",
"H+	c #3E6383",
"I+	c #3D6081",
"J+	c #3A5E7E",
"K+	c #355979",
"L+	c #7A96AD",
"M+	c #8AA6BA",
"N+	c #83A0B5",
"O+	c #44617B",
"P+	c #142C43",
"Q+	c #04090D",
"R+	c #0C1621",
"S+	c #213E59",
"T+	c #375876",
"U+	c #8FAABF",
"V+	c #7E9AAF",
"W+	c #446380",
"X+	c #355879",
"Y+	c #335778",
"Z+	c #305474",
"`+	c #2E5070",
" @	c #63819A",
".@	c #82A0B5",
"+@	c #6E8CA3",
"@@	c #152F4A",
"#@	c #08131F",
"$@	c #010102",
"%@	c #020507",
"&@	c #0F1D2C",
"*@	c #23405D",
"=@	c #84A2B7",
"-@	c #87A4B9",
";@	c #536F88",
">@	c #2B4D6D",
",@	c #2D5070",
"'@	c #2C4F6F",
")@	c #2A4D6E",
"!@	c #284B6A",
"~@	c #254867",
"{@	c #476782",
"]@	c #7697AD",
"^@	c #3E5A73",
"/@	c #0A1827",
"(@	c #010305",
"_@	c #010304",
":@	c #0B131B",
"<@	c #546C7D",
"[@	c #4C677E",
"}@	c #23405E",
"|@	c #234363",
"1@	c #234464",
"2@	c #224363",
"3@	c #204261",
"4@	c #1F3F5F",
"5@	c #1C3D5C",
"6@	c #1A3753",
"7@	c #152A40",
"8@	c #06101B",
"9@	c #080D11",
"0@	c #111E2B",
"a@	c #12283F",
"b@	c #183551",
"c@	c #1A3857",
"d@	c #1A3959",
"e@	c #183755",
"f@	c #16324F",
"g@	c #112840",
"h@	c #0A1928",
"i@	c #04090F",
"j@	c #000101",
"k@	c #010203",
"l@	c #020609",
"m@	c #050D15",
"n@	c #07111C",
"o@	c #07111B",
"p@	c #07101B",
"q@	c #02060A",
"r@	c #000102",
"                                                ",
"              . + @ # $ % & * =                 ",
"          - ; > , ' ) ) ! ~ { ] ^ /             ",
"        ( _ : < [ } | 1 2 3 4 5 6 7 8           ",
"      9 0 a b c d e f g h i j k l m n o         ",
"      p q r s t d u v w x y z [ A B C D         ",
"    E F b G H I J K L M N O P H Q R S T U       ",
"    V W X Y Z `  ...+.@.#.$.%.&.*.=.-.;.>.      ",
"  ,.'.).!.~.{.].^./.(._.:.<.[.}.|.1.2.3.4.5.    ",
"  6.7.8.9.0.a.b.c.d.e.f.g.h.i.j.k.l.m.n.o.p.    ",
"  q.r.s.t.u.v.w.x.y.z.A.B.C.D.E.F.G.H.I.J.K.    ",
"  L.M.N.O.P.Q.R.S.T.U.V.W.X.Y.Z.`. +.+++@+#+    ",
"  $+%+&+*+=+-+;+>+,+'+)+!+~+{+]+ +^+/+(+_+:+    ",
"  <+[+}+|+1+2+3+4+5+6+7+8+9+0+a+b+c+d+e+f+g+    ",
"    h+i+j+k+l+1+G.m+n+o+p+q+r+s+t+u+v+w+x+y+    ",
"    z+A+B+C+3.D+E+F+G+H+I+J+K+L+M+N+O+P+Q+      ",
"      R+S+T+u+U+V+W+X+K+Y+Z+`+ @.@+@@@#@$@      ",
"      %@&@*@=@-@;@>@,@'@)@!@~@{@]@^@/@(@y+      ",
"        _@:@<@[@}@|@1@2@3@4@5@6@7@8@y+y+        ",
"          y+9@0@a@b@c@d@e@f@g@h@i@j@y+          ",
"              k@l@m@n@o@p@m@q@r@y+              ",
"                      y+y+                      ",
"                                                ",
"                                                "};
