/* XPM */
static char * button_move_xz_xpm[] = {
"24 24 115 2",
"  	c None",
". 	c #0C0C0C",
"+ 	c #323232",
"@ 	c #B9B9B9",
"# 	c #2F2F2F",
"$ 	c #101010",
"% 	c #696969",
"& 	c #D9D9D9",
"* 	c #CECECE",
"= 	c #D7D7D7",
"- 	c #505050",
"; 	c #0E0E0E",
"> 	c #111111",
", 	c #969696",
"' 	c #D8D8D8",
") 	c #DBDBDB",
"! 	c #B6B6B6",
"~ 	c #DCDCDC",
"{ 	c #DDDDDD",
"] 	c #787878",
"^ 	c #0F0F0F",
"/ 	c #050505",
"( 	c #121212",
"_ 	c #282828",
": 	c #B8B8B8",
"< 	c #202020",
"[ 	c #151515",
"} 	c #0D0D0D",
"| 	c #010101",
"1 	c #BBBBBB",
"2 	c #DFDFDF",
"3 	c #1F1F1F",
"4 	c #030303",
"5 	c #070707",
"6 	c #252525",
"7 	c #262626",
"8 	c #535353",
"9 	c #DEDEDE",
"0 	c #BFBFBF",
"a 	c #E0E0E0",
"b 	c #3B3B3B",
"c 	c #242424",
"d 	c #0B0B0B",
"e 	c #040404",
"f 	c #131313",
"g 	c #181818",
"h 	c #E1E1E1",
"i 	c #C2C2C2",
"j 	c #E2E2E2",
"k 	c #000000",
"l 	c #CCCCCC",
"m 	c #E3E3E3",
"n 	c #222222",
"o 	c #9C9C9C",
"p 	c #3E3E3E",
"q 	c #232323",
"r 	c #303030",
"s 	c #C5C5C5",
"t 	c #C6C6C6",
"u 	c #C7C7C7",
"v 	c #AAAAAA",
"w 	c #909090",
"x 	c #D0D0D0",
"y 	c #E5E5E5",
"z 	c #EBEBEB",
"A 	c #6D6D6D",
"B 	c #C8C8C8",
"C 	c #CACACA",
"D 	c #666666",
"E 	c #CFCFCF",
"F 	c #D3D3D3",
"G 	c #EAEAEA",
"H 	c #ECECEC",
"I 	c #E9E9E9",
"J 	c #404040",
"K 	c #C9C9C9",
"L 	c #CDCDCD",
"M 	c #555555",
"N 	c #3C3C3C",
"O 	c #D2D2D2",
"P 	c #D6D6D6",
"Q 	c #E8E8E8",
"R 	c #E6E6E6",
"S 	c #E7E7E7",
"T 	c #8D8D8D",
"U 	c #1C1C1C",
"V 	c #C4C4C4",
"W 	c #D4D4D4",
"X 	c #D5D5D5",
"Y 	c #EDEDED",
"Z 	c #EFEFEF",
"` 	c #2B2B2B",
" .	c #616161",
"..	c #1B1B1B",
"+.	c #090909",
"@.	c #161616",
"#.	c #F0F0F0",
"$.	c #888888",
"%.	c #191919",
"&.	c #171717",
"*.	c #EEEEEE",
"=.	c #8C8C8C",
"-.	c #F1F1F1",
";.	c #343434",
">.	c #E4E4E4",
",.	c #F2F2F2",
"'.	c #060606",
").	c #333333",
"!.	c #F3F3F3",
"~.	c #AFAFAF",
"{.	c #F4F4F4",
"].	c #F6F6F6",
"^.	c #979797",
"/.	c #585858",
"(.	c #292929",
"                                                ",
"                        .                       ",
"                      + @ #                     ",
"                  $ % & * = - ;                 ",
"                > , ' ) ! ~ { ] ^               ",
"              / ( ( _ ) : { < [ } |             ",
"                    _ { 1 2 3                   ",
"          4   5 6 7 8 9 0 a b 7 c d   e         ",
"        f ;   g h { 9 ~ i 9 h j j $   } $       ",
"      ( 1 7   g h i k k k k } l m $   n o $     ",
"    ( @ j p q r m s t u v d w x y > g r z A }   ",
"  > ! ' { h h j j B C s 6 D E F G G z H H I J   ",
"  < ' x s u B K C l L M N x O F P = ' & ) Q C } ",
"    N h R R S Q Q E T U V W X & Y H H Y Z Q `   ",
"    ;  .S ^ [ ..G O } k k k k ~ H +.@.; #.M     ",
"      > $.%.  &.z P = ' & ) ~ 9 *.[   g =.>     ",
"        > }   &.Y *.*.*.{ #.#.-.#.g   ( f       ",
"          4   . [ [ ;.#.a -.7 @.@.;   e         ",
"                    n -.>.,.%.                  ",
"              '.f &.).!.S !.` < $ /             ",
"                [ ~.!.{.G ].].^.f               ",
"                  f ] !.{.#./.(                 ",
"                    ^ N C (.                    ",
"                        >                       "};
