/* XPM */
static const char * button_world_rotate_xz_xpm[] = {
"24 24 84 1",
" 	c None",
".	c #1F1F1F",
"+	c #202020",
"@	c #242424",
"#	c #3F3F3F",
"$	c #A6A6A6",
"%	c #B9B9B9",
"&	c #262626",
"*	c #414141",
"=	c #BEBEBE",
"-	c #D4D4D4",
";	c #D9D9D9",
">	c #B4B4B4",
",	c #898989",
"'	c #ABABAB",
")	c #A8ACA9",
"!	c #364B3A",
"~	c #070C07",
"{	c #3B6843",
"]	c #1E9630",
"^	c #06230B",
"/	c #BDBDBD",
"(	c #3C5440",
"_	c #24B339",
":	c #23C23A",
"<	c #07290C",
"[	c #030503",
"}	c #243126",
"|	c #9FA2A0",
"1	c #A3A7A4",
"2	c #27562D",
"3	c #28CA3F",
"4	c #24C73B",
"5	c #0C1C0D",
"6	c #337C3D",
"7	c #2E4C33",
"8	c #2B3D2E",
"9	c #404F43",
"0	c #A4A7A4",
"a	c #24B83A",
"b	c #28DF43",
"c	c #20B235",
"d	c #07280C",
"e	c #0D2210",
"f	c #3EA04B",
"g	c #42A84F",
"h	c #40A44D",
"i	c #3D9548",
"j	c #A2A2A2",
"k	c #37503B",
"l	c #23B338",
"m	c #28E544",
"n	c #24CC3C",
"o	c #0B4313",
"p	c #0D200F",
"q	c #399346",
"r	c #49BD59",
"s	c #4BC15B",
"t	c #253427",
"u	c #0D2C11",
"v	c #24C63B",
"w	c #29EA45",
"x	c #23C73B",
"y	c #16381A",
"z	c #41A950",
"A	c #368C42",
"B	c #103B16",
"C	c #114018",
"D	c #20B335",
"E	c #22C239",
"F	c #21B836",
"G	c #0C4615",
"H	c #1EAA32",
"I	c #163B1B",
"J	c #103A16",
"K	c #1A8F2A",
"L	c #0C2210",
"M	c #0C220F",
"N	c #051D08",
"O	c #0B1E0E",
"P	c #000000",
"Q	c #317D3B",
"R	c #0D1F0E",
"S	c #0C1F10",
"         .+++.          ",
"       @#$%%%$#&&&&&@   ",
"      *$=-;;;-=%%%%>,.  ",
"     *'-;;;;;;;;;;-)!~  ",
"    *'-;;;;;;;;;;-){]^  ",
"   @$-;;;;;;;;;;;/(_:<  ",
"  [}|%%%=-;;;;;;-1234<  ",
"  56788890%%%=--){abcd  ",
"  efghhhi788890jklmno   ",
"  pqrsssrghhhi7tuvwx<   ",
"   yzssssssssrgABxwx<   ",
"   ehsssssssssshCxwx<   ",
"   ehsssssssssshCxwx<   ",
"   ehsssssssssshCxwx<   ",
"   ehsssssssssshCxwx<   ",
"   ehsssssssssshCxmDd   ",
"   ehsssssssssshCEFG    ",
"   pqrssssssssshCHo     ",
"    IqhgrsssssshJKd     ",
"     LeyqhhgrsshMN      ",
"        LeeyqhgfOP      ",
"            LeyQR       ",
"               S        ",
"                        "};
