/* XPM */
static char * button_world_rotate_xz_xpm[] = {
"24 24 126 2",
"  	c None",
". 	c #262626",
"+ 	c #424242",
"@ 	c #505050",
"# 	c #232323",
"$ 	c #191919",
"% 	c #101010",
"& 	c #121212",
"* 	c #2B2B2B",
"= 	c #1F1F1F",
"- 	c #0A0A0A",
"; 	c #040404",
"> 	c #0C0C0C",
", 	c #434343",
"' 	c #2A2A2A",
") 	c #080808",
"! 	c #222222",
"~ 	c #2E2E2E",
"{ 	c #747474",
"] 	c #818181",
"^ 	c #7C7C7C",
"/ 	c #5B5B5B",
"( 	c #525252",
"_ 	c #606060",
": 	c #474747",
"< 	c #737373",
"[ 	c #828282",
"} 	c #7E7E7E",
"| 	c #2C2C2C",
"1 	c #343434",
"2 	c #A9A9A9",
"3 	c #D8D8D8",
"4 	c #D1D1D1",
"5 	c #A3A3A3",
"6 	c #B2B2B2",
"7 	c #D2D2D2",
"8 	c #BCBCBC",
"9 	c #AFAFAF",
"0 	c #CFCFCF",
"a 	c #C8C8C8",
"b 	c #4C4C4C",
"c 	c #4B4B4B",
"d 	c #BABABA",
"e 	c #C7C7C7",
"f 	c #8F8F8F",
"g 	c #909090",
"h 	c #C6C6C6",
"i 	c #D6D6D6",
"j 	c #D5D5D5",
"k 	c #C9C9C9",
"l 	c #B5B5B5",
"m 	c #1C1C1C",
"n 	c #6A6A6A",
"o 	c #D7D7D7",
"p 	c #D3D3D3",
"q 	c #808080",
"r 	c #A5A5A5",
"s 	c #D9D9D9",
"t 	c #C3C3C3",
"u 	c #999999",
"v 	c #B7B7B7",
"w 	c #454545",
"x 	c #CECECE",
"y 	c #CACACA",
"z 	c #CBCBCB",
"A 	c #AAAAAA",
"B 	c #9E9E9E",
"C 	c #9C9C9C",
"D 	c #B6B6B6",
"E 	c #959595",
"F 	c #6F6F6F",
"G 	c #9A9A9A",
"H 	c #B3B3B3",
"I 	c #A6A6A6",
"J 	c #9F9F9F",
"K 	c #A0A0A0",
"L 	c #A2A2A2",
"M 	c #BEBEBE",
"N 	c #4D4D4D",
"O 	c #ADADAD",
"P 	c #A4A4A4",
"Q 	c #A8A8A8",
"R 	c #C2C2C2",
"S 	c #4E4E4E",
"T 	c #939393",
"U 	c #5E5E5E",
"V 	c #5A5A5A",
"W 	c #5D5D5D",
"X 	c #585858",
"Y 	c #848484",
"Z 	c #ACACAC",
"` 	c #878787",
" .	c #696969",
"..	c #414141",
"+.	c #B0B0B0",
"@.	c #555555",
"#.	c #B1B1B1",
"$.	c #ABABAB",
"%.	c #535353",
"&.	c #303030",
"*.	c #B4B4B4",
"=.	c #CCCCCC",
"-.	c #888888",
";.	c #797979",
">.	c #B8B8B8",
",.	c #D0D0D0",
"'.	c #515151",
").	c #7F7F7F",
"!.	c #BDBDBD",
"~.	c #BFBFBF",
"{.	c #C4C4C4",
"].	c #989898",
"^.	c #272727",
"/.	c #8B8B8B",
"(.	c #C1C1C1",
"_.	c #919191",
":.	c #181818",
"<.	c #5F5F5F",
"[.	c #6B6B6B",
"}.	c #717171",
"|.	c #575757",
"1.	c #DBDBDB",
"2.	c #8C8C8C",
"3.	c #131313",
"4.	c #9D9D9D",
"5.	c #0E0E0E",
"                                . +           @ ",
"                          # $ % & *         @   ",
"                          = - ; >         @     ",
"                        , ' % ) % !             ",
"              ~ { ] ] ^ / ( _ , : < [ } |       ",
"            1 2 3 3 4 5 } 6 7 8 9 0 4 a b       ",
"          c d 3 7 4 e f g h i j 7 k 5 l c       ",
"      m n 0 o 7 p p d q r i s o t u u v b       ",
"      w x x k y z k 2 ^ A z x 8 B C B d b       ",
"      c z D D D D 6 E F G H D I J K L M N       ",
"      c z D D D D 9 O D D D D 2 P r Q R S       ",
"B B B c z D l T U V W X Y Z D Z Q A B B B B B B ",
"@ @ @ c z D ` / I D D O  ...D +.9 @ @ @ @ @ @ @ ",
"      c z A @.#.D D D $.%.&.D *.H l v =.@       ",
"      c z -.;.D B @ D H Z Z D v >.d 8 ,.'.      ",
"      c z ).Y B @ D D D D D D d !.~.{.i '.      ",
"      c z G U @ D D D D D D D !.R h i ].^.      ",
"      c z K N /.l D D D A l D (.y i _.:.        ",
"      c B @ O <.[.f T }.|.O D a 1.2.3.          ",
"      B @ y y e r Y [ 4.t y y 3 2.5.            ",
"    B @ @ @ @ @ @ @ @ @ @ @ @ @ m               ",
"  B @                                           ",
"B @                                             ",
"@                                               "};
