/* XPM */
static char * button_group_add_xpm[] = {
"24 24 73 1",
" 	c None",
".	c #000000",
"+	c #121212",
"@	c #070707",
"#	c #E8E8E8",
"$	c #E3E3E3",
"%	c #E4E4E4",
"&	c #E9E9E9",
"*	c #E7E7E7",
"=	c #B9B9B9",
"-	c #BABABA",
";	c #BBBBBB",
">	c #BCBCBC",
",	c #BDBDBD",
"'	c #BEBEBE",
")	c #BFBFBF",
"!	c #C0C0C0",
"~	c #C1C1C1",
"{	c #EAEAEA",
"]	c #C2C2C2",
"^	c #C3C3C3",
"/	c #EBEBEB",
"(	c #C4C4C4",
"_	c #C5C5C5",
":	c #C6C6C6",
"<	c #ECECEC",
"[	c #111111",
"}	c #1D1D1D",
"|	c #C7C7C7",
"1	c #C8C8C8",
"2	c #EDEDED",
"3	c #101010",
"4	c #C9C9C9",
"5	c #CACACA",
"6	c #CBCBCB",
"7	c #EEEEEE",
"8	c #F0F0F0",
"9	c #030303",
"0	c #CCCCCC",
"a	c #CDCDCD",
"b	c #CECECE",
"c	c #CFCFCF",
"d	c #D0D0D0",
"e	c #D1D1D1",
"f	c #D2D2D2",
"g	c #D3D3D3",
"h	c #D4D4D4",
"i	c #F1F1F1",
"j	c #D5D5D5",
"k	c #D6D6D6",
"l	c #D7D7D7",
"m	c #D8D8D8",
"n	c #D9D9D9",
"o	c #F2F2F2",
"p	c #DADADA",
"q	c #DBDBDB",
"r	c #F3F3F3",
"s	c #EFEFEF",
"t	c #F4F4F4",
"u	c #080808",
"v	c #DCDCDC",
"w	c #DDDDDD",
"x	c #DEDEDE",
"y	c #DFDFDF",
"z	c #E0E0E0",
"A	c #E1E1E1",
"B	c #F5F5F5",
"C	c #E2E2E2",
"D	c #F6F6F6",
"E	c #E5E5E5",
"F	c #F8F8F8",
"G	c #010101",
"H	c #161616",
"                        ",
"        .++++++.        ",
"        @#$$%%&@        ",
"        @*=-;>&@        ",
"        @#;>,'&@        ",
"        @&')!~{@        ",
"        @&!~]^/@        ",
"        @{^(_:<@        ",
" .[[[[[[}/_:|12}33[[[3. ",
" ./&&&{{{&1456/22277789 ",
" ./^(_:|14560abcdefghi9 ",
" .<:|145660abcdefghjki9 ",
" .214560abcdefghjklmno9 ",
" .7560abcdefghjklmnpqr9 ",
" .ssss8888hjklorrrtttt9 ",
" .......uiklmnou....... ",
"        uonpqvru        ",
"        uoqvwxtu        ",
"        urxyzABu        ",
"        utzAC$Du        ",
"        uB$$%EDu        ",
"        uDtBBBFu        ",
"        GHHHHHHG        ",
"                        "};
