/* XPM */
static char * button_ruler_xpm[] = {
"22 22 3 1",
" 	c None",
".	c #D9D9D9",
"+	c #000000",
"                      ",
"                      ",
" .+                   ",
" .+                   ",
" .+                   ",
" .+             .+    ",
" .+             .+    ",
" .+             .+    ",
" .+             .+    ",
" .+ .+ .+ .+ .+ .+ .+ ",
" .+ .+ .+ .+ .+ .+ .+ ",
" .+ .+ .+ .+ .+ .+ .+ ",
" .+ .+ .+ .+ .+ .+ .+ ",
" .+ .+ .+ .+ .+ .+ .+ ",
" .+ .+ .+ .+ .+ .+ .+ ",
" .+ .+ .+ .+ .+ .+ .+ ",
" .+ .+ .+ .+ .+ .+ .+ ",
" .+ .+ .+ .+ .+ .+ .+ ",
" .+ .+ .+ .+ .+ .+ .+ ",
" .+ .+ .+ .+ .+ .+ .+ ",
" ++ ++ ++ ++ ++ ++ ++ ",
"                      "};
