/* XPM */
static char * button_world_rotate_xy_xpm[] = {
"24 24 319 2",
"  	c None",
". 	c #0F1215",
"+ 	c #090C0F",
"@ 	c #58636C",
"# 	c #78838C",
"$ 	c #60676C",
"% 	c #2F3234",
"& 	c #292A2C",
"* 	c #080909",
"= 	c #000000",
"- 	c #050607",
"; 	c #050708",
"> 	c #050709",
", 	c #5B6F7F",
"' 	c #626B70",
") 	c #9DA5AA",
"! 	c #8F979D",
"~ 	c #161717",
"{ 	c #020202",
"] 	c #3D4246",
"^ 	c #79848C",
"/ 	c #4C5963",
"( 	c #2F404F",
"_ 	c #5F6E7B",
": 	c #7A838B",
"< 	c #C1CBD2",
"[ 	c #656A6E",
"} 	c #0A0B0B",
"| 	c #77828A",
"1 	c #C5D3DD",
"2 	c #D3DEE7",
"3 	c #C9D5DD",
"4 	c #818E97",
"5 	c #3C4D5B",
"6 	c #556775",
"7 	c #828D95",
"8 	c #C0CCD5",
"9 	c #C0CCD4",
"0 	c #64696D",
"a 	c #A0AEB7",
"b 	c #131516",
"c 	c #1F2224",
"d 	c #A7B4BD",
"e 	c #D1DEE8",
"f 	c #CDDBE5",
"g 	c #D2DFE8",
"h 	c #C8D7E0",
"i 	c #6F808D",
"j 	c #3B4A56",
"k 	c #606D75",
"l 	c #BFCAD1",
"m 	c #DAE5ED",
"n 	c #DCE8F0",
"o 	c #C0CCD3",
"p 	c #2E3235",
"q 	c #010101",
"r 	c #202427",
"s 	c #070809",
"t 	c #4F5960",
"u 	c #C7D8E3",
"v 	c #D0DEE7",
"w 	c #D0DEE8",
"x 	c #CDDCE6",
"y 	c #C9D8E2",
"z 	c #A7BAC8",
"A 	c #576774",
"B 	c #455561",
"C 	c #9EACB6",
"D 	c #D3E0E9",
"E 	c #D5E2EB",
"F 	c #BBCBD7",
"G 	c #444D53",
"H 	c #161A1C",
"I 	c #798A95",
"J 	c #3F484E",
"K 	c #97ACB9",
"L 	c #CDDEE8",
"M 	c #BACCDB",
"N 	c #C4D5E1",
"O 	c #C3D4DF",
"P 	c #C2D3DF",
"Q 	c #B3C7D6",
"R 	c #859BAC",
"S 	c #303F4B",
"T 	c #4E5C66",
"U 	c #BDCFDA",
"V 	c #CDDCE7",
"W 	c #BED0DD",
"X 	c #8095A3",
"Y 	c #111416",
"Z 	c #0E1012",
"` 	c #7C8F9D",
" .	c #A0BACA",
"..	c #6D808C",
"+.	c #A3BBCC",
"@.	c #C7D9E5",
"#.	c #B8CCDA",
"$.	c #A8BECF",
"%.	c #A2B8CA",
"&.	c #AEC2D2",
"*.	c #ADC3D2",
"=.	c #97B0C3",
"-.	c #4D5F6C",
";.	c #40505D",
">.	c #6A7B88",
",.	c #A9BECD",
"'.	c #ADC1D0",
").	c #99B2C5",
"!.	c #47555F",
"~.	c #1D2226",
"{.	c #9CBACD",
"].	c #A4C4D9",
"^.	c #A1C1D6",
"/.	c #BBD2E1",
"(.	c #CBDCE7",
"_.	c #C8DAE5",
":.	c #BACEDC",
"<.	c #B1C6D5",
"[.	c #AFC4D4",
"}.	c #A4BCCD",
"|.	c #95AFC2",
"1.	c #5D6F7C",
"2.	c #060B11",
"3.	c #38444E",
"4.	c #798D9C",
"5.	c #5F7A91",
"6.	c #3E4C58",
"7.	c #7A97AF",
"8.	c #2D383F",
"9.	c #2F3941",
"0.	c #93B4CD",
"a.	c #92B4CC",
"b.	c #97B7CE",
"c.	c #C7DAE6",
"d.	c #C4D6E3",
"e.	c #BFD3E0",
"f.	c #B9CEDC",
"g.	c #B3C8D7",
"h.	c #94ABBA",
"i.	c #798E9E",
"j.	c #3D4851",
"k.	c #0F1317",
"l.	c #000001",
"m.	c #222F3B",
"n.	c #657D90",
"o.	c #87A0B4",
"p.	c #2E3A43",
"q.	c #6C879C",
"r.	c #1F282F",
"s.	c #030405",
"t.	c #5C7587",
"u.	c #82A6C1",
"v.	c #82A6C0",
"w.	c #90AFC6",
"x.	c #BFD3E1",
"y.	c #BBD0DE",
"z.	c #B6CCDB",
"A.	c #B0C7D6",
"B.	c #A9C1D1",
"C.	c #657580",
"D.	c #2F3940",
"E.	c #050606",
"F.	c #162430",
"G.	c #38566F",
"H.	c #5E7E9A",
"I.	c #546877",
"J.	c #323B41",
"K.	c #1B1F23",
"L.	c #0D1013",
"M.	c #6688A3",
"N.	c #7096B4",
"O.	c #6F96B3",
"P.	c #7096B2",
"Q.	c #ABC2D4",
"R.	c #B2C9D9",
"S.	c #AEC5D6",
"T.	c #A8C0D1",
"U.	c #A3BBCD",
"V.	c #8DA4B5",
"W.	c #5F6F7C",
"X.	c #12171B",
"Y.	c #162432",
"Z.	c #2A465E",
"`.	c #406585",
" +	c #58758D",
".+	c #414C54",
"++	c #101315",
"@+	c #1C2023",
"#+	c #7696AF",
"$+	c #638AA8",
"%+	c #5E85A5",
"&+	c #5D84A3",
"*+	c #5C819E",
"=+	c #6989A3",
"-+	c #6888A2",
";+	c #A2BACC",
">+	c #94ACBE",
",+	c #101316",
"'+	c #030608",
")+	c #101C27",
"!+	c #1E3447",
"~+	c #3C6080",
"{+	c #718FA8",
"]+	c #94ACBD",
"^+	c #0C0E10",
"/+	c #3F4950",
"(+	c #5D7384",
"_+	c #50718D",
":+	c #4D718E",
"<+	c #4F7494",
"[+	c #466987",
"}+	c #364F66",
"|+	c #2F383E",
"1+	c #0C0E0F",
"2+	c #091017",
"3+	c #13273A",
"4+	c #121F2C",
"5+	c #325574",
"6+	c #5F7E98",
"7+	c #92ABBF",
"8+	c #414B52",
"9+	c #0F1113",
"0+	c #131518",
"a+	c #050707",
"b+	c #0D1318",
"c+	c #05070A",
"d+	c #101921",
"e+	c #070B0E",
"f+	c #010203",
"g+	c #0E1114",
"h+	c #242F39",
"i+	c #1C3955",
"j+	c #050C13",
"k+	c #080E14",
"l+	c #1E354B",
"m+	c #325372",
"n+	c #607D95",
"o+	c #4F5D67",
"p+	c #060708",
"q+	c #667784",
"r+	c #384855",
"s+	c #1B2A39",
"t+	c #1A2A37",
"u+	c #0D151D",
"v+	c #0B1218",
"w+	c #0D171F",
"x+	c #283138",
"y+	c #404D56",
"z+	c #687F90",
"A+	c #415C75",
"B+	c #142C43",
"C+	c #03080B",
"D+	c #0C1621",
"E+	c #213E59",
"F+	c #375876",
"G+	c #829CAF",
"H+	c #131619",
"I+	c #344049",
"J+	c #42617D",
"K+	c #345677",
"L+	c #345878",
"M+	c #2D4D6A",
"N+	c #294864",
"O+	c #294865",
"P+	c #5D7990",
"Q+	c #809EB3",
"R+	c #6E8CA3",
"S+	c #152F4A",
"T+	c #08131F",
"U+	c #010102",
"V+	c #020507",
"W+	c #0F1D2C",
"X+	c #23405D",
"Y+	c #84A2B7",
"Z+	c #4B5B67",
"`+	c #030506",
" @	c #1F3850",
".@	c #2D5070",
"+@	c #2C4F6F",
"@@	c #2A4D6E",
"#@	c #284B6A",
"$@	c #254867",
"%@	c #476782",
"&@	c #7697AD",
"*@	c #3E5A73",
"=@	c #0A1827",
"-@	c #010305",
";@	c #010304",
">@	c #0B131B",
",@	c #546C7D",
"'@	c #476076",
")@	c #060C11",
"!@	c #0F1D2B",
"~@	c #1E3C58",
"{@	c #224363",
"]@	c #204261",
"^@	c #1F3F5F",
"/@	c #1C3D5C",
"(@	c #1A3753",
"_@	c #152A40",
":@	c #06101B",
"<@	c #080D11",
"[@	c #111E2B",
"}@	c #10253B",
"|@	c #0B1926",
"1@	c #091521",
"2@	c #183654",
"3@	c #183755",
"4@	c #16324F",
"5@	c #112840",
"6@	c #0A1928",
"7@	c #04090F",
"8@	c #000101",
"9@	c #020609",
"0@	c #040B12",
"a@	c #02060A",
"b@	c #03070D",
"c@	c #050D15",
"d@	c #000102",
"                          . +                   ",
"              @ # $ % & * = - ; >               ",
"          , ' ) ! ~ = = = { ] ^ / (             ",
"        _ : < [ = = = = } | 1 2 3 4 5           ",
"      6 7 8 9 0 a b = = c d e f g h i j         ",
"      k l m n o p q r s t u v w x y z A       = ",
"    B C D E F G = H I J K L M N O P Q R S     = ",
"    T U V W X Y Z `  ...+.@.#.$.%.&.*.=.-.  = = ",
"  ;.>.,.'.).!.= ~.{.].^./.(._.:.<.[.}.|.1.2.= = ",
"  3.4.5.6.7.8.= 9.0.a.b.c.d.e.f.g.h.i.j.k.l.= = ",
"  m.n.o.p.q.r.s.t.u.v.w.x.y.z.A.B.C.D.E.= = = = ",
"  F.G.H.I.J.K.L.M.N.O.P.Q.R.S.T.U.V.W.X.= = = = ",
"  Y.Z.`. +.+++@+#+$+%+&+*+=+-+;+>+>.,+l.'+= =   ",
"  )+!+~+{+]+^+= /+(+_+:+<+[+}+|+K.1+= 2+3+=     ",
"    4+5+6+7+8+9+0+a+b+c+d+e+f+= = g+h+i+j+=     ",
"    k+l+m+n+o+p+q+r+s+t+u+v+w+x+y+z+A+B+C+      ",
"      D+E+F+G+H+I+J+K+L+M+N+O+P+Q+R+S+T+U+      ",
"      V+W+X+Y+Z+`+ @.@+@@@#@$@%@&@*@=@-@=       ",
"        ;@>@,@'@)@!@~@{@]@^@/@(@_@:@= =         ",
"          = <@[@}@|@1@2@3@4@5@6@7@8@=           ",
"              f+9@0@0@a@b@c@a@d@=               ",
"                      = =                       ",
"                                                ",
"                                                "};
