/* XPM */
static const char * button_ruler_xpm[] = {
"22 22 2 1",
" 	c None",
".	c #808080",
"                      ",
"                      ",
"  .                   ",
"  .                   ",
"  .                   ",
"  .              .    ",
"  .              .    ",
"  .              .    ",
"  .              .    ",
"  .  .  .  .  .  .  . ",
"  .  .  .  .  .  .  . ",
"  .  .  .  .  .  .  . ",
"  .  .  .  .  .  .  . ",
"  .  .  .  .  .  .  . ",
"  .  .  .  .  .  .  . ",
"  .  .  .  .  .  .  . ",
"  .  .  .  .  .  .  . ",
"  .  .  .  .  .  .  . ",
"  .  .  .  .  .  .  . ",
"  .  .  .  .  .  .  . ",
"                      ",
"                      "};
