/* XPM */
static const char * button_move_xz_xpm[] = {
"24 24 5 1",
" 	c None",
".	c #000000",
"+	c #FF0000",
"@	c #92AEAE",
"#	c #D9D9D9",
"                        ",
"                        ",
"        ............... ",
"       .+++++++++++++.. ",
"      .+++++++++++++.@. ",
"     .+++++++++++++.@@. ",
"    .+++++++++++++.@@@. ",
"   .+++++++++++++.@@@@. ",
"  ...............@@@@@. ",
"  .#############.@@@@@. ",
"  .#############.@@@@@. ",
"  .#############.@@@@@. ",
"  .#############.@@@@@. ",
"  .#############.@@@@@. ",
"  .#############.@@@@@. ",
"  .#############.@@@@@. ",
"  .#############.@@@@.  ",
"  .#############.@@@.   ",
"  .#############.@@.    ",
"  .#############.@.     ",
"  .#############..      ",
"  ...............       ",
"                        ",
"                        "};
