/* XPM */
static const char * button_reset_object_xpm[] = {
"24 24 4 1",
" 	c None",
".	c #000000",
"+	c #A6A6A6",
"@	c #D9D9D9",
"                        ",
"          .....         ",
"          .+++.         ",
"          .@@+.         ",
"          .@@+.         ",
"          .@@+.         ",
"          .@@+.         ",
"          .@@+.         ",
"          .@@+.         ",
"          .@@+.         ",
"          .@@+.         ",
"     ......@@+......    ",
"      ..@@@@@++++..     ",
"       ..@@@@@@+..      ",
"        ..@@@@+..       ",
"         ..@@+..        ",
"          ..+..         ",
"           ...          ",
"            .           ",
"                        ",
"  ..................... ",
"  .@@@@@@@@@@@@@@@@@@+. ",
"  .@@@@@@@@@@@@@@@@@@+. ",
"  ..................... "};
