/* XPM */
static const char * button_reset_object_xpm[] = {
"24 24 3 1",
" 	c None",
".	c #000000",
"+	c #D9D9D9",
"                        ",
"           ...          ",
"          .+++.         ",
"          .+++.         ",
"          .+++.         ",
"          .+++.         ",
"          .+++.         ",
"          .+++.         ",
"          .+++.         ",
"          .+++.         ",
"      .....+++.....     ",
"     .+++++++++++++.    ",
"      .+++++++++++.     ",
"       .+++++++++.      ",
"        .+++++++.       ",
"         .+++++.        ",
"          .+++.         ",
"           .+.          ",
"            .           ",
"                        ",
"     ...............    ",
"    .+++++++++++++++.   ",
"    .+++++++++++++++.   ",
"     ...............    "};
