/* XPM */
static char * button_reset_camera_xpm[] = {
"24 24 410 2",
"  	c None",
". 	c #007593",
"+ 	c #0084B0",
"@ 	c #008DBF",
"# 	c #0097C5",
"$ 	c #0099BD",
"% 	c #008BAA",
"& 	c #007691",
"* 	c #00799A",
"= 	c #0089A8",
"- 	c #008DB7",
"; 	c #008FD6",
"> 	c #007ADB",
", 	c #008AEA",
"' 	c #00B8F8",
") 	c #00D1FF",
"! 	c #00C0EF",
"~ 	c #00ABD4",
"{ 	c #0093B3",
"] 	c #007396",
"^ 	c #03679E",
"/ 	c #0469B2",
"( 	c #03AEDF",
"_ 	c #19CCF7",
": 	c #029FE5",
"< 	c #0076DB",
"[ 	c #2491EA",
"} 	c #02C7FC",
"| 	c #0098F0",
"1 	c #0089EC",
"2 	c #00A7EB",
"3 	c #0097CC",
"4 	c #007298",
"5 	c #0F6D9E",
"6 	c #4890C9",
"7 	c #1A87E5",
"8 	c #08AEF5",
"9 	c #4ADFFE",
"0 	c #16A6ED",
"a 	c #067FDE",
"b 	c #5CBCF3",
"c 	c #06D2FF",
"d 	c #00C9FC",
"e 	c #0583EC",
"f 	c #0082E8",
"g 	c #008CE0",
"h 	c #0095E0",
"i 	c #00A4DC",
"j 	c #017FA0",
"k 	c #2594B5",
"l 	c #74BFDF",
"m 	c #87CBEF",
"n 	c #2796ED",
"o 	c #0A91EE",
"p 	c #6DE4FD",
"q 	c #3FAFF8",
"r 	c #2598E5",
"s 	c #81DCF9",
"t 	c #0ED3FE",
"u 	c #09ACF9",
"v 	c #0C86EF",
"w 	c #029AE8",
"x 	c #0F9AE0",
"y 	c #01A0E6",
"z 	c #009CE6",
"A 	c #00A8E0",
"B 	c #006B98",
"C 	c #1975AB",
"D 	c #8BD6EB",
"E 	c #AFECFA",
"F 	c #8ED5F1",
"G 	c #1C9CED",
"H 	c #1993F4",
"I 	c #73D9FB",
"J 	c #65BAFD",
"K 	c #4FB1F2",
"L 	c #90EBFC",
"M 	c #18CDFE",
"N 	c #1795F9",
"O 	c #0FA4F4",
"P 	c #2DACE6",
"Q 	c #28A9E5",
"R 	c #008CDF",
"S 	c #006AD4",
"T 	c #008FE3",
"U 	c #00B3DF",
"V 	c #006C84",
"W 	c #0C66A0",
"X 	c #62A2D5",
"Y 	c #9AD1F5",
"Z 	c #BEECFB",
"` 	c #C9F2FA",
" .	c #5EBFF0",
"..	c #28A2FA",
"+.	c #4EB8F8",
"@.	c #43A4E8",
"#.	c #349BD6",
"$.	c #4BBED8",
"%.	c #1AAEEB",
"&.	c #239DFA",
"*.	c #4CC0F3",
"=.	c #57B8E8",
"-.	c #1392E4",
";.	c #0771DE",
">.	c #0177DE",
",.	c #0097E9",
"'.	c #00BEF4",
").	c #00A8CF",
"!.	c #007293",
"~.	c #3286B3",
"{.	c #92CDF0",
"].	c #A1D8F8",
"^.	c #BCE3F9",
"/.	c #92D8FA",
"(.	c #5CDAFC",
"_.	c #1CADF3",
":.	c #126691",
"<.	c #0D303E",
"[.	c #0E0D0E",
"}.	c #0D0F10",
"|.	c #0E3648",
"1.	c #2779A2",
"2.	c #74D2F6",
"3.	c #53B7FB",
"4.	c #1C8AF6",
"5.	c #08A3F5",
"6.	c #00BEF9",
"7.	c #00B3EF",
"8.	c #0099E2",
"9.	c #00A5D9",
"0.	c #006D99",
"a.	c #64B0D5",
"b.	c #93D1F1",
"c.	c #B7E2F8",
"d.	c #79C8FB",
"e.	c #2AA8FD",
"f.	c #17BFFB",
"g.	c #308FA8",
"h.	c #181D20",
"i.	c #0E0B0B",
"j.	c #0F171A",
"k.	c #23759E",
"l.	c #2FA0FB",
"m.	c #25BFFD",
"n.	c #28D3FC",
"o.	c #23B7EC",
"p.	c #0C9AE1",
"q.	c #0097E1",
"r.	c #00A8E8",
"s.	c #008CAD",
"t.	c #005F87",
"u.	c #045A9E",
"v.	c #8BCBF0",
"w.	c #99D8F5",
"x.	c #9ADDF6",
"y.	c #16B1F1",
"z.	c #11B2FC",
"A.	c #0F9DCB",
"B.	c #80989C",
"C.	c #1F1D1D",
"D.	c #15292F",
"E.	c #5DB9D7",
"F.	c #83DBFB",
"G.	c #56C2F0",
"H.	c #1BB0EB",
"I.	c #00B6F2",
"J.	c #00B6F5",
"K.	c #00C3FB",
"L.	c #00A5C9",
"M.	c #006491",
"N.	c #0F62A9",
"O.	c #93C8F0",
"P.	c #B0DCF7",
"Q.	c #95DAF7",
"R.	c #49CDF7",
"S.	c #4BDBFC",
"T.	c #1992AD",
"U.	c #717676",
"V.	c #0F1315",
"W.	c #3584A2",
"X.	c #48B2FD",
"Y.	c #23A7FB",
"Z.	c #15A7FB",
"`.	c #0A99F4",
" +	c #018AEC",
".+	c #009FF2",
"++	c #00B9E4",
"@+	c #007793",
"#+	c #1485B1",
"$+	c #8FCEED",
"%+	c #AFDDF3",
"&+	c #93D0EF",
"*+	c #52BDEB",
"=+	c #67D6F6",
"-+	c #107692",
";+	c #262625",
">+	c #0E0C0C",
",+	c #14738F",
"'+	c #3BB8FB",
")+	c #179FF2",
"!+	c #0387E9",
"~+	c #0083E6",
"{+	c #0081E5",
"]+	c #0095EB",
"^+	c #00C2F3",
"/+	c #007892",
"(+	c #0D89B3",
"_+	c #8FD2EF",
":+	c #9CE1F7",
"<+	c #90E4FB",
"[+	c #22C5FE",
"}+	c #35B6FE",
"|+	c #1476AD",
"1+	c #0E151A",
"2+	c #0D1315",
"3+	c #2E81A2",
"4+	c #6CBCFC",
"5+	c #58B9F2",
"6+	c #20A3E6",
"7+	c #0092E0",
"8+	c #0090DF",
"9+	c #009BE5",
"0+	c #00C1F3",
"a+	c #00728E",
"b+	c #0288AF",
"c+	c #87DDF7",
"d+	c #8ADEFB",
"e+	c #AADFFB",
"f+	c #42ADF6",
"g+	c #5CBAFA",
"h+	c #35AFE7",
"i+	c #0D3847",
"j+	c #0F343C",
"k+	c #35B0DC",
"l+	c #3EB8FE",
"m+	c #3FB0FB",
"n+	c #47B8F8",
"o+	c #2ABAF0",
"p+	c #03A1E6",
"q+	c #00A5E8",
"r+	c #00BDED",
"s+	c #005E80",
"t+	c #005D9B",
"u+	c #69B2E7",
"v+	c #7CBDF0",
"w+	c #89C6EE",
"x+	c #6AC4ED",
"y+	c #86E9FC",
"z+	c #4FD5FE",
"A+	c #1685BD",
"B+	c #0E2129",
"C+	c #0D191C",
"D+	c #2395AD",
"E+	c #7DEAFD",
"F+	c #45D6FC",
"G+	c #03BBF8",
"H+	c #03ADEF",
"I+	c #029DE6",
"J+	c #00A0E6",
"K+	c #009DE4",
"L+	c #009DD1",
"M+	c #005592",
"N+	c #2C7EC0",
"O+	c #38A4E3",
"P+	c #31B1E9",
"Q+	c #29CDFA",
"R+	c #16CBFD",
"S+	c #46BAFE",
"T+	c #48B1FD",
"U+	c #139DD4",
"V+	c #0C5975",
"W+	c #0C303B",
"X+	c #0B3039",
"Y+	c #0C4F67",
"Z+	c #079CC5",
"`+	c #18D3FB",
" @	c #5FE4FE",
".@	c #76E4FC",
"+@	c #33AFF2",
"@@	c #0394EE",
"#@	c #009FED",
"$@	c #0096E4",
"%@	c #007EAD",
"&@	c #006B8E",
"*@	c #0171A6",
"=@	c #0197DC",
"-@	c #00B4F4",
";@	c #00A2F2",
">@	c #16B5FB",
",@	c #70C6FE",
"'@	c #6AD8FE",
")@	c #1CB8FF",
"!@	c #20AAFF",
"~@	c #37C9ED",
"{@	c #2AC6EA",
"]@	c #1AAAFE",
"^@	c #13B3FF",
"/@	c #01CEFF",
"(@	c #04C8FB",
"_@	c #25CDF9",
":@	c #3FD5FC",
"<@	c #129BEF",
"[@	c #007DE8",
"}@	c #0088EA",
"|@	c #00ACE6",
"1@	c #007CA1",
"2@	c #006D86",
"3@	c #007EA3",
"4@	c #0087CA",
"5@	c #01A6F4",
"6@	c #35CFFD",
"7@	c #68D4FA",
"8@	c #1BCEFD",
"9@	c #14B3FF",
"0@	c #22B4FF",
"a@	c #87ECFD",
"b@	c #54E1FE",
"c@	c #11B6FD",
"d@	c #17A5FA",
"e@	c #02C6FD",
"f@	c #00AFF6",
"g@	c #05B0EE",
"h@	c #03BDF7",
"i@	c #0094EE",
"j@	c #00A1F1",
"k@	c #00AED5",
"l@	c #006698",
"m@	c #0057A0",
"n@	c #0081D9",
"o@	c #3ACEFA",
"p@	c #14A3F2",
"q@	c #01C6FD",
"r@	c #10AEFA",
"s@	c #09B6F8",
"t@	c #6AE0F9",
"u@	c #44DDFD",
"v@	c #03BCF9",
"w@	c #0E97ED",
"x@	c #03C6FC",
"y@	c #00A6F4",
"z@	c #0090EB",
"A@	c #0092E1",
"B@	c #00B1F0",
"C@	c #007F9B",
"D@	c #00619B",
"E@	c #008CC1",
"F@	c #01C7FB",
"G@	c #0894EF",
"H@	c #009BF0",
"I@	c #01C4FA",
"J@	c #0694E8",
"K@	c #01A4F0",
"L@	c #30C5F3",
"M@	c #26C8F6",
"N@	c #00ADF4",
"O@	c #028EE3",
"P@	c #03B3F2",
"Q@	c #00BEFA",
"R@	c #0084EA",
"S@	c #007FE3",
"T@	c #008CDE",
"U@	c #009EE3",
"V@	c #0095BD",
"W@	c #00B1DD",
"X@	c #009EF2",
"Y@	c #007EE9",
"Z@	c #009CEE",
"`@	c #00A3E7",
" #	c #0081E0",
".#	c #0097EF",
"+#	c #0CBBF2",
"@#	c #0CA3E6",
"##	c #009EEF",
"$#	c #007CDD",
"%#	c #009CE4",
"&#	c #00C7FA",
"*#	c #0095EF",
"=#	c #0082E9",
"-#	c #0094C4",
";#	c #0096D6",
">#	c #008DE8",
",#	c #008CE1",
"'#	c #0091DF",
")#	c #0079E1",
"!#	c #008DED",
"~#	c #01BDF4",
"{#	c #0195E0",
"]#	c #0089E4",
"^#	c #006DD9",
"/#	c #008EDE",
"(#	c #00B7F2",
"_#	c #0098C0",
":#	c #0097C3",
"<#	c #008ECD",
"[#	c #008BDC",
"}#	c #00BFF6",
"|#	c #0078DA",
"1#	c #0071DE",
"2#	c #009AE9",
"3#	c #00C1EF",
"4#	c #00ADD3",
"5#	c #007E9A",
"6#	c #00739D",
"7#	c #00A5DC",
"8#	c #00BEEF",
"9#	c #00A9E5",
"0#	c #00A1E0",
"a#	c #0092CC",
"b#	c #0087B0",
"c#	c #0084A1",
"                  . + @ # $ %                   ",
"            & * = - ; > , ' ) ! ~ {             ",
"          ] ^ / ( _ : < [ } ) | 1 2 3           ",
"        4 5 6 7 8 9 0 a b c d e f g h i         ",
"      j k l m n o p q r s t u v w x y z A       ",
"    B C D E F G H I J K L M N O P Q R S T U     ",
"  V W X Y Z `  ...+.@.#.$.%.&.*.=.-.;.>.,.'.).  ",
"  !.~.{.].^./.(._.:.<.[.}.|.1.2.3.4.5.6.7.8.9.  ",
"  0.a.b.c.d.e.f.g.h.i.i.i.i.j.k.l.m.n.o.p.q.r.s.",
"t.u.v.w.x.y.z.A.B.C.i.i.i.i.i.D.E.F.G.H.I.J.K.L.",
"M.N.O.P.Q.R.S.T.U.i.i.i.i.i.i.V.W.X.Y.Z.`. +.+++",
"@+#+$+%+&+*+=+-+;+i.i.i.i.i.i.>+,+'+)+!+~+{+]+^+",
"/+(+_+:+<+[+}+|+1+i.i.i.i.i.i.2+3+4+5+6+7+8+9+0+",
"a+b+c+d+e+f+g+h+i+i.i.i.i.i.i.j+k+l+m+n+o+p+q+r+",
"s+t+u+v+w+x+y+z+A+B+i.i.i.i.C+D+E+F+G+H+I+J+K+L+",
"  M+N+O+P+Q+R+S+T+U+V+W+X+Y+Z+`+ @.@+@@@#@$@h %@",
"  &@*@=@-@;@>@,@'@)@!@~@{@]@^@/@(@_@:@<@[@}@|@1@",
"  2@3@4@}@5@6@7@8@9@0@a@b@c@d@e@f@2 g@h@i@j@k@  ",
"    l@m@n@} o@p@q@r@s@t@u@v@w@x@y@z@A@K+B@^+C@  ",
"      D@E@F@G@H@I@J@K@L@M@N@O@P@Q@R@S@T@U@V@    ",
"        W@X@Y@Z@`@ #.#+#@###$#%#&#*#=#$@-#      ",
"          ;#>#,#'#)#!#~#{#]#^#/#(#6.7._#        ",
"            :#<#[#f 1 }#q.|#1#2#3#4#5#          ",
"                6#@ 7#8#9#0#a#b#c#              "};
