/* XPM */
static char * button_move_xy_xpm[] = {
"24 24 115 2",
"  	c None",
". 	c #0C0C0C",
"+ 	c #323232",
"@ 	c #B9B9B9",
"# 	c #2F2F2F",
"$ 	c #101010",
"% 	c #696969",
"& 	c #D9D9D9",
"* 	c #CECECE",
"= 	c #D7D7D7",
"- 	c #505050",
"; 	c #0E0E0E",
"> 	c #111111",
", 	c #969696",
"' 	c #D8D8D8",
") 	c #DBDBDB",
"! 	c #B6B6B6",
"~ 	c #DCDCDC",
"{ 	c #DDDDDD",
"] 	c #787878",
"^ 	c #0F0F0F",
"/ 	c #050505",
"( 	c #121212",
"_ 	c #282828",
": 	c #B8B8B8",
"< 	c #202020",
"[ 	c #151515",
"} 	c #0D0D0D",
"| 	c #010101",
"1 	c #BBBBBB",
"2 	c #DFDFDF",
"3 	c #1F1F1F",
"4 	c #030303",
"5 	c #070707",
"6 	c #252525",
"7 	c #262626",
"8 	c #535353",
"9 	c #DEDEDE",
"0 	c #BFBFBF",
"a 	c #E0E0E0",
"b 	c #3B3B3B",
"c 	c #242424",
"d 	c #0B0B0B",
"e 	c #040404",
"f 	c #131313",
"g 	c #181818",
"h 	c #E1E1E1",
"i 	c #C2C2C2",
"j 	c #E2E2E2",
"k 	c #3D3D3D",
"l 	c #606060",
"m 	c #C5C5C5",
"n 	c #626262",
"o 	c #3F3F3F",
"p 	c #CCCCCC",
"q 	c #E3E3E3",
"r 	c #222222",
"s 	c #9C9C9C",
"t 	c #3E3E3E",
"u 	c #232323",
"v 	c #303030",
"w 	c #B1B1B1",
"x 	c #868686",
"y 	c #D0D0D0",
"z 	c #E5E5E5",
"A 	c #EBEBEB",
"B 	c #6D6D6D",
"C 	c #C8C8C8",
"D 	c #CACACA",
"E 	c #000000",
"F 	c #7A7A7A",
"G 	c #CFCFCF",
"H 	c #D3D3D3",
"I 	c #EAEAEA",
"J 	c #ECECEC",
"K 	c #E9E9E9",
"L 	c #404040",
"M 	c #C7C7C7",
"N 	c #C9C9C9",
"O 	c #CDCDCD",
"P 	c #D2D2D2",
"Q 	c #D6D6D6",
"R 	c #E8E8E8",
"S 	c #3C3C3C",
"T 	c #E6E6E6",
"U 	c #E7E7E7",
"V 	c #D4D4D4",
"W 	c #D5D5D5",
"X 	c #EDEDED",
"Y 	c #EFEFEF",
"Z 	c #2B2B2B",
"` 	c #616161",
" .	c #1B1B1B",
"..	c #090909",
"+.	c #161616",
"@.	c #F0F0F0",
"#.	c #555555",
"$.	c #888888",
"%.	c #191919",
"&.	c #171717",
"*.	c #EEEEEE",
"=.	c #8C8C8C",
"-.	c #F1F1F1",
";.	c #343434",
">.	c #E4E4E4",
",.	c #F2F2F2",
"'.	c #060606",
").	c #333333",
"!.	c #F3F3F3",
"~.	c #AFAFAF",
"{.	c #F4F4F4",
"].	c #F6F6F6",
"^.	c #979797",
"/.	c #585858",
"(.	c #292929",
"                                                ",
"                        .                       ",
"                      + @ #                     ",
"                  $ % & * = - ;                 ",
"                > , ' ) ! ~ { ] ^               ",
"              / ( ( _ ) : { < [ } |             ",
"                    _ { 1 2 3                   ",
"          4   5 6 7 8 9 0 a b 7 c d   e         ",
"        f ;   g h { 9 ~ i 9 h j j $   } $       ",
"      ( 1 7   g h i k l m n o p q $   r s $     ",
"    ( @ j t u v q m w $ x $ ! y z > g v A B }   ",
"  > ! ' { h h j j C D ] E F G H I I A J J K L   ",
"  < ' y m M C N D p O O E y P H Q = ' & ) R D } ",
"    S h T T U R R G y P E V W & X J J X Y R Z   ",
"    ; ` U ^ [  .I P V W E = & ~ J ..+.; @.#.    ",
"      > $.%.  &.A Q = ' & ) ~ 9 *.[   g =.>     ",
"        > }   &.X *.*.*.{ @.@.-.@.g   ( f       ",
"          4   . [ [ ;.@.a -.7 +.+.;   e         ",
"                    r -.>.,.%.                  ",
"              '.f &.).!.U !.Z < $ /             ",
"                [ ~.!.{.I ].].^.f               ",
"                  f ] !.{.@./.(                 ",
"                    ^ S D (.                    ",
"                        >                       "};
