/* XPM */
static char * button_draw_cylinder_xpm[] = {
"24 24 115 2",
"  	c None",
". 	c #0B0B0B",
"+ 	c #0F0F0F",
"@ 	c #0E0E0E",
"# 	c #0D0D0D",
"$ 	c #9B9B9B",
"% 	c #E7E7E7",
"& 	c #ECECEC",
"* 	c #EBEBEB",
"= 	c #D4D4D4",
"- 	c #747474",
"; 	c #080808",
"> 	c #090909",
", 	c #CFCFCF",
"' 	c #F4F4F4",
") 	c #E2E2E2",
"! 	c #E1E1E1",
"~ 	c #E0E0E0",
"{ 	c #DFDFDF",
"] 	c #DEDEDE",
"^ 	c #DDDDDD",
"/ 	c #DCDCDC",
"( 	c #DBDBDB",
"_ 	c #D0D0D0",
": 	c #B3B3B3",
"< 	c #BEBEBE",
"[ 	c #EAEAEA",
"} 	c #8E8E8E",
"| 	c #858585",
"1 	c #F6F6F6",
"2 	c #DADADA",
"3 	c #D9D9D9",
"4 	c #D8D8D8",
"5 	c #D7D7D7",
"6 	c #D6D6D6",
"7 	c #D5D5D5",
"8 	c #CECECE",
"9 	c #A3A3A3",
"0 	c #9C9C9C",
"a 	c #9A9A9A",
"b 	c #A9A9A9",
"c 	c #E9E9E9",
"d 	c #373737",
"e 	c #E6E6E6",
"f 	c #E4E4E4",
"g 	c #D3D3D3",
"h 	c #D2D2D2",
"i 	c #D1D1D1",
"j 	c #B1B1B1",
"k 	c #9E9E9E",
"l 	c #989898",
"m 	c #C6C6C6",
"n 	c #B8B8B8",
"o 	c #0C0C0C",
"p 	c #393939",
"q 	c #CACACA",
"r 	c #A1A1A1",
"s 	c #E5E5E5",
"t 	c #030303",
"u 	c #868686",
"v 	c #CDCDCD",
"w 	c #CCCCCC",
"x 	c #CBCBCB",
"y 	c #BCBCBC",
"z 	c #A0A0A0",
"A 	c #969696",
"B 	c #E3E3E3",
"C 	c #2C2C2C",
"D 	c #010101",
"E 	c #A5A5A5",
"F 	c #C9C9C9",
"G 	c #C8C8C8",
"H 	c #C7C7C7",
"I 	c #B5B5B5",
"J 	c #5E5E5E",
"K 	c #C5C5C5",
"L 	c #C4C4C4",
"M 	c #C3C3C3",
"N 	c #AFAFAF",
"O 	c #808080",
"P 	c #050505",
"Q 	c #B7B7B7",
"R 	c #C2C2C2",
"S 	c #C1C1C1",
"T 	c #C0C0C0",
"U 	c #AEAEAE",
"V 	c #6A6A6A",
"W 	c #9D9D9D",
"X 	c #BFBFBF",
"Y 	c #BDBDBD",
"Z 	c #3D3D3D",
"` 	c #7C7C7C",
" .	c #BBBBBB",
"..	c #BABABA",
"+.	c #B9B9B9",
"@.	c #B0B0B0",
"#.	c #131313",
"$.	c #282828",
"%.	c #EDEDED",
"&.	c #B6B6B6",
"*.	c #B4B4B4",
"=.	c #B2B2B2",
"-.	c #8A8A8A",
";.	c #7F7F7F",
">.	c #ADADAD",
",.	c #ACACAC",
"'.	c #AAAAAA",
").	c #9F9F9F",
"!.	c #0A0A0A",
"~.	c #A6A6A6",
"{.	c #484848",
"].	c #919191",
"^.	c #4D4D4D",
"/.	c #070707",
"(.	c #060606",
"                                                ",
"                                                ",
"                                                ",
"          . + + + @ @ @ @ @ # # # # @           ",
"        . $ % & & & & & & * * * * * = - ;       ",
"      > , ' % ) ! ~ { ] ^ ^ / ( _ : < [ } .     ",
"    ; | 1 { ^ / ( 2 3 4 5 6 7 8 9 0 a b c d     ",
"    > e f 2 3 4 5 6 7 = g h i j k 0 a l m n o   ",
"    p 1 5 6 7 = g h i _ , 8 q r k 0 a l 9 s t   ",
"    u * = g h i _ , 8 v w x y z k 0 a l A B C   ",
"  D E f _ , 8 v w x q F G H I z k 0 a l A 3 J   ",
"  . < ^ w x q F G H m K L M N z k 0 a l A _ O   ",
"  P Q ( F G H m K L M R S T U z k 0 a l A 5 V   ",
"    W ^ K L M R S T X < Y y N z k 0 a l A ) Z   ",
"    ` ! S T X < Y y  ...+.n @.z k 0 a l $ [ #.  ",
"    $.%.< y  . ...+.n Q &.*.j z k 0 a l &.v o   ",
"    # ( m +.n Q &.I *.: =.j @.E k 0 a l 7 -.    ",
"      ;.f I *.: =.j @.N U >.,.'.).0 a Q ^ +     ",
"      !.F ^ S +.Q &.I *.=.=.@.N ,.~.Y % {.      ",
"        #.].5 ^ ] { ~ ~ ! ! ) ) B f R ^./.      ",
"          /.!.!.> > > ; ; /././.(.(.; D         ",
"                                                ",
"                                                ",
"                                                "};
