/* XPM */
static char * button_help_bulb_xpm[] = {
"24 24 184 2",
"  	c None",
". 	c #394A77",
"+ 	c #384977",
"@ 	c #364877",
"# 	c #374878",
"$ 	c #3A4A77",
"% 	c #374977",
"& 	c #4B5B86",
"* 	c #9DA6BE",
"= 	c #D1D7E2",
"- 	c #EAEEF3",
"; 	c #E5EBF2",
"> 	c #C7CFDD",
", 	c #919EB9",
"' 	c #475884",
") 	c #838EAC",
"! 	c #F1F3F7",
"~ 	c #DAE3EF",
"{ 	c #D5E0EC",
"] 	c #D6E2EE",
"^ 	c #D3DFED",
"/ 	c #BECFE4",
"( 	c #B3C8DD",
"_ 	c #D4DEE9",
": 	c #7483A5",
"< 	c #EFF3F6",
"[ 	c #D7E3EE",
"} 	c #EDF1F7",
"| 	c #ECF1F7",
"1 	c #E5ECF3",
"2 	c #DCE6F0",
"3 	c #D4E0ED",
"4 	c #CAD9E9",
"5 	c #92B0D1",
"6 	c #C6D5E4",
"7 	c #7081A3",
"8 	c #4A5B86",
"9 	c #F0F2F6",
"0 	c #D0DEEB",
"a 	c #EEF3F8",
"b 	c #F8F9FB",
"c 	c #F3F7FA",
"d 	c #EBF0F6",
"e 	c #E0E8F2",
"f 	c #C7D7E8",
"g 	c #A1BCD8",
"h 	c #618CBD",
"i 	c #C2D0E2",
"j 	c #455683",
"k 	c #364878",
"l 	c #9CA5BD",
"m 	c #D4DDE8",
"n 	c #E3EBF2",
"o 	c #EEF3F7",
"p 	c #F8FAFD",
"q 	c #F5F7FA",
"r 	c #E9EFF6",
"s 	c #DCE6F1",
"t 	c #CFDDEB",
"u 	c #C2D3E6",
"v 	c #A6BFDA",
"w 	c #87A8CC",
"x 	c #7F90B0",
"y 	c #374877",
"z 	c #D0D6E1",
"A 	c #B5CAE0",
"B 	c #E8EFF5",
"C 	c #F0F4F8",
"D 	c #EAEFF6",
"E 	c #E0E9F2",
"F 	c #D5E2ED",
"G 	c #C8D7E7",
"H 	c #C4CED8",
"I 	c #93B0D0",
"J 	c #4E7FB4",
"K 	c #A3B5CD",
"L 	c #E7ECF3",
"M 	c #B3C7DE",
"N 	c #D7E2EE",
"O 	c #F6F8FB",
"P 	c #EAEEF1",
"Q 	c #E1E6EC",
"R 	c #D5DADE",
"S 	c #CDD6DF",
"T 	c #7B9EC4",
"U 	c #4276AE",
"V 	c #B1C4DA",
"W 	c #E3E9F1",
"X 	c #9AB6D3",
"Y 	c #CAD8E8",
"Z 	c #CCDBEA",
"` 	c #DFE8F0",
" .	c #DAE4F0",
"..	c #C3D4E6",
"+.	c #BDCEDE",
"@.	c #AFC4DA",
"#.	c #93B1D2",
"$.	c #497EB3",
"%.	c #3C75AE",
"&.	c #ADC2D8",
"*.	c #C4CDDB",
"=.	c #99B5D1",
"-.	c #BBCEE2",
";.	c #BCCFE3",
">.	c #BDCFE3",
",.	c #D9E3EE",
"'.	c #B0C7DE",
").	c #A7BFD9",
"!.	c #95B4D3",
"~.	c #4D7FB3",
"{.	c #4277AF",
"].	c #4275AF",
"^.	c #96ACC8",
"/.	c #909CB8",
"(.	c #C5D0DD",
"_.	c #98B5D4",
":.	c #A1BBD7",
"<.	c #C5D5E6",
"[.	c #90B0D0",
"}.	c #7B9FC6",
"|.	c #4478B1",
"1.	c #3B71AC",
"2.	c #9AB3D7",
"3.	c #7287AB",
"4.	c #D1DBE8",
"5.	c #8EAAC9",
"6.	c #779DC5",
"7.	c #6894C0",
"8.	c #4B7EB4",
"9.	c #648EC6",
"0.	c #A3BAD4",
"a.	c #415481",
"b.	c #7382A4",
"c.	c #C4D0DE",
"d.	c #8BA7C8",
"e.	c #497EB4",
"f.	c #4B7FB4",
"g.	c #487BB3",
"h.	c #3F75AC",
"i.	c #376EAB",
"j.	c #7297CB",
"k.	c #A9BDD6",
"l.	c #61759C",
"m.	c #6F80A3",
"n.	c #BFCFE1",
"o.	c #B2C0D3",
"p.	c #93ACCA",
"q.	c #5F8BBB",
"r.	c #4477B0",
"s.	c #88A3C8",
"t.	c #A6B8D6",
"u.	c #A3B9D3",
"v.	c #60759C",
"w.	c #445683",
"x.	c #7D8EAF",
"y.	c #8D9FBD",
"z.	c #99ACC7",
"A.	c #95ABC5",
"B.	c #8499B9",
"C.	c #7186AA",
"D.	c #404D69",
"E.	c #9AA08B",
"F.	c #B7B985",
"G.	c #B9BB85",
"H.	c #A1A585",
"I.	c #535957",
"J.	c #898966",
"K.	c #A7A75F",
"L.	c #F2F4D1",
"M.	c #F7F9D0",
"N.	c #E3E5B2",
"O.	c #B4B588",
"P.	c #C1C17E",
"Q.	c #E2E4AD",
"R.	c #D7D8A0",
"S.	c #F1F3CC",
"T.	c #F7FAD2",
"U.	c #E7E9BE",
"V.	c #BCBC98",
"W.	c #858560",
"X.	c #565655",
"Y.	c #6A6B64",
"Z.	c #545451",
"`.	c #454545",
"                                                ",
"                  . + @ # + $                   ",
"              % & * = - ; > , ' .               ",
"            + ) ! ~ { ] ^ / ( _ : $             ",
"          @ ) < [ } | 1 2 3 4 5 6 7 +           ",
"          8 9 0 a b c d e 3 f g h i j           ",
"        k l m n o p q r s t u v   w x y         ",
"        @ z A e B C D E F G H I   J K %         ",
"        @ L M N s O q P Q R S T   U V @         ",
"        @ W X Y Z `  ...+.@.#.  $.%.&.@         ",
"        k *.=.-.;.>.,.'.).!.  ~.{.].^.@         ",
"        k /.(.  _.:.<.[.}.    |.1.2.3.k         ",
"          ' 4.5.    6.7.  8.|.1.9.0.a.          ",
"          k b.c.d.e.f.g.|.h.i.j.k.l.k           ",
"            k m.n.o.p.q.r.s.t.u.v.k             ",
"              k w.x.y.z.A.B.C.a.k               ",
"                  D.E.F.F.G.H.I.                ",
"                  J.K.L.M.N.O.J.                ",
"                    J.P.Q.R.J.                  ",
"                  J.P.S.T.U.V.J.                ",
"                    W.X.Y.Z.J.                  ",
"                      X.`.X.                    ",
"                                                ",
"                                                "};
