/* XPM */
static char * circular_arrow_xpm[] = {
"16 16 71 1",
" 	c None",
".	c #5E5E5E",
"+	c #666666",
"@	c #3D3D3D",
"#	c #878787",
"$	c #B4B4B4",
"%	c #C2C2C2",
"&	c #CCCCCC",
"*	c #CBCBCB",
"=	c #BABABA",
"-	c #A1A1A1",
";	c #131313",
">	c #242424",
",	c #BFBFBF",
"'	c #C9C9C9",
")	c #CACACA",
"!	c #D3D3D3",
"~	c #BCBCBC",
"{	c #373737",
"]	c #8A8A8A",
"^	c #D8D8D8",
"/	c #BBBBBB",
"(	c #CDCDCD",
"_	c #DEDEDE",
":	c #D1D1D1",
"<	c #DDDDDD",
"[	c #B7B7B7",
"}	c #C6C6C6",
"|	c #B6B6B6",
"1	c #292929",
"2	c #686868",
"3	c #D7D7D7",
"4	c #E5E5E5",
"5	c #151515",
"6	c #626262",
"7	c #C8C8C8",
"8	c #C5C5C5",
"9	c #D2D2D2",
"0	c #DADADA",
"a	c #EAEAEA",
"b	c #3F3F3F",
"c	c #4A4A4A",
"d	c #A9A9A9",
"e	c #ADADAD",
"f	c #B3B3B3",
"g	c #515151",
"h	c #090909",
"i	c #A5A5A5",
"j	c #DFDFDF",
"k	c #656565",
"l	c #212121",
"m	c #8D8D8D",
"n	c #AAAAAA",
"o	c #E2E2E2",
"p	c #AFAFAF",
"q	c #676767",
"r	c #070707",
"s	c #494949",
"t	c #E7E7E7",
"u	c #E9E9E9",
"v	c #EDEDED",
"w	c #BDBDBD",
"x	c #0F0F0F",
"y	c #545454",
"z	c #CFCFCF",
"A	c #ECECEC",
"B	c #EFEFEF",
"C	c #BEBEBE",
"D	c #323232",
"E	c #2B2B2B",
"F	c #C7C7C7",
"                ",
"                ",
"     .+.@       ",
"   #$%&*=-;     ",
" >,*,%'')!~{    ",
" ]),&^/(_:<]    ",
" [%}|1  23^45   ",
"6789#    [0ab   ",
"cdefg   hijak   ",
"   l  lmn^oa7pqr",
"       s9ttuvwx ",
"        yzABCD  ",
"         EFwx   ",
"          D1    ",
"                ",
"                "};
