/* XPM */
static char * circular_arrow_xy_xpm[] = {
"24 24 75 1",
" 	c None",
".	c #2C2C2C",
"+	c #4E4E4E",
"@	c #FFFFFF",
"#	c #FEFEFE",
"$	c #454545",
"%	c #505050",
"&	c #F7F7F7",
"*	c #F3F3F3",
"=	c #3D3D3D",
"-	c #313131",
";	c #202020",
">	c #000000",
",	c #F2F2F2",
"'	c #E6E6E6",
")	c #4D4D4D",
"!	c #FBFBFB",
"~	c #888888",
"{	c #B6B6B6",
"]	c #6C6C6C",
"^	c #1C1C1C",
"/	c #141414",
"(	c #6F6F6F",
"_	c #0C0C0C",
":	c #111111",
"<	c #464646",
"[	c #A8A8A8",
"}	c #CCCCCC",
"|	c #0B0B0B",
"1	c #DADADA",
"2	c #565656",
"3	c #696969",
"4	c #E7E7E7",
"5	c #343434",
"6	c #BDBDBD",
"7	c #838383",
"8	c #616161",
"9	c #FDFDFD",
"0	c #595959",
"a	c #303030",
"b	c #3E3E3E",
"c	c #ECECEC",
"d	c #F8F8F8",
"e	c #8B8B8B",
"f	c #666666",
"g	c #F1F1F1",
"h	c #090909",
"i	c #4B4B4B",
"j	c #FCFCFC",
"k	c #939393",
"l	c #7B7B7B",
"m	c #727272",
"n	c #AFAFAF",
"o	c #B2B2B2",
"p	c #919191",
"q	c #9A9A9A",
"r	c #5E5E5E",
"s	c #B3B3B3",
"t	c #767676",
"u	c #686868",
"v	c #D7D7D7",
"w	c #252525",
"x	c #737373",
"y	c #070707",
"z	c #1F1F1F",
"A	c #C8C8C8",
"B	c #0F0F0F",
"C	c #B9B9B9",
"D	c #636363",
"E	c #707070",
"F	c #E8E8E8",
"G	c #5F5F5F",
"H	c #626262",
"I	c #414141",
"J	c #3F3F3F",
"            ..          ",
"           +@#$         ",
"          %&@@*=        ",
"         -@@@@@@;       ",
"         >>>,'>>>       ",
"           )!~          ",
"           {@>          ",
"          ]@^           ",
"    />    (@_      >:   ",
"   <@>    [}|       12  ",
"  3@4>   -@5       >6@7 ",
" 8@@940> a@b    >>.cd@@e",
" f@@#g@@h=@i|__>'@@gj@@k",
"  l@4>mn@@@@@@@@@op>6@q ",
"   r@>  3fs@tuuu]   v(  ",
"    w>    x@y      >z   ",
"           AB           ",
"           C@>          ",
">> >>>> >> D#E          ",
" >>>  > >>>>,F>>>       ",
"  >    > a@!@@!@z       ",
"  >    > >G9@@!$        ",
" > >   >   H@@2         ",
">  >>  >    IJ          "};
