/* XPM */
static char * cube_xpm[] = {
"20 20 84 1",
" 	c None",
".	c #2E2E2E",
"+	c #747474",
"@	c #818181",
"#	c #828282",
"$	c #838383",
"%	c #7E7E7E",
"&	c #2C2C2C",
"*	c #343434",
"=	c #A9A9A9",
"-	c #D8D8D8",
";	c #D9D9D9",
">	c #DADADA",
",	c #DBDBDB",
"'	c #DCDCDC",
")	c #DDDDDD",
"!	c #DEDEDE",
"~	c #D1D1D1",
"{	c #C8C8C8",
"]	c #4C4C4C",
"^	c #4B4B4B",
"/	c #BABABA",
"(	c #D2D2D2",
"_	c #D4D4D4",
":	c #D5D5D5",
"<	c #D6D6D6",
"[	c #D7D7D7",
"}	c #CACACA",
"|	c #A3A3A3",
"1	c #B5B5B5",
"2	c #1C1C1C",
"3	c #6A6A6A",
"4	c #CFCFCF",
"5	c #D3D3D3",
"6	c #C3C3C3",
"7	c #999999",
"8	c #B7B7B7",
"9	c #454545",
"0	c #CECECE",
"a	c #C9C9C9",
"b	c #CBCBCB",
"c	c #CCCCCC",
"d	c #CDCDCD",
"e	c #BCBCBC",
"f	c #9E9E9E",
"g	c #9C9C9C",
"h	c #B6B6B6",
"i	c #A6A6A6",
"j	c #9F9F9F",
"k	c #A0A0A0",
"l	c #A2A2A2",
"m	c #BEBEBE",
"n	c #4D4D4D",
"o	c #A4A4A4",
"p	c #A5A5A5",
"q	c #A8A8A8",
"r	c #C2C2C2",
"s	c #4E4E4E",
"t	c #ACACAC",
"u	c #AAAAAA",
"v	c #C5C5C5",
"w	c #B0B0B0",
"x	c #AFAFAF",
"y	c #B2B2B2",
"z	c #4F4F4F",
"A	c #B4B4B4",
"B	c #B3B3B3",
"C	c #505050",
"D	c #B8B8B8",
"E	c #D0D0D0",
"F	c #515151",
"G	c #BDBDBD",
"H	c #BFBFBF",
"I	c #C4C4C4",
"J	c #C6C6C6",
"K	c #989898",
"L	c #272727",
"M	c #C1C1C1",
"N	c #919191",
"O	c #181818",
"P	c #8C8C8C",
"Q	c #131313",
"R	c #0E0E0E",
"S	c #1B1B1B",
"                    ",
"                    ",
"     .+@@####$$$$%& ",
"    *=---;>,,')!~{] ",
"   ^/-(((_:<<[-}|1^ ",
" 234[(5_:<--;[6778] ",
" 900a}bbcdd00efgf/] ",
" ^bhhhhhhhhhhijklmn ",
" ^bhhhhhhhhhh=opqrs ",
" ^bhhhhhhhhhhtqutvs ",
" ^bhhhhhhhhhhwxwy{z ",
" ^bhhhhhhhhhhAB18cC ",
" ^bhhhhhhhhhh8D/eEF ",
" ^bhhhhhhhhhh/GHI<F ",
" ^bhhhhhhhhhhGrJ<KL ",
" ^bhhhhhhhhhhM}<NO  ",
" ^bhhhhhhhhhh{,PQ   ",
" ^:}}}}}}}}}}-PR    ",
" SCCCCCCCCCCCC2     ",
"                    "};
