/* XPM */
static const char * gnr_icon_xpm[] = {
"32 32 606 2",
"  	c None",
". 	c #D95937",
"+ 	c #CB5834",
"@ 	c #2F530F",
"# 	c #30540F",
"$ 	c #31560F",
"% 	c #315710",
"& 	c #325810",
"* 	c #925926",
"= 	c #995E2A",
"- 	c #355E11",
"; 	c #366012",
"> 	c #376112",
", 	c #376212",
"' 	c #386413",
") 	c #376312",
"! 	c #DD6140",
"~ 	c #DA5D3B",
"{ 	c #D85937",
"] 	c #435A15",
"^ 	c #355C13",
"/ 	c #365E13",
"( 	c #375F14",
"_ 	c #845C24",
": 	c #E16441",
"< 	c #A26130",
"[ 	c #3B6715",
"} 	c #3C6916",
"| 	c #3D6A16",
"1 	c #3E6C17",
"2 	c #366112",
"3 	c #DA5B39",
"4 	c #E06E4D",
"5 	c #CF6C4F",
"6 	c #CD593A",
"7 	c #706121",
"8 	c #3C6617",
"9 	c #3E6818",
"0 	c #906028",
"a 	c #E16A47",
"b 	c #D76F4E",
"c 	c #995C2F",
"d 	c #42711A",
"e 	c #43731A",
"f 	c #44741B",
"g 	c #44741A",
"h 	c #3C6915",
"i 	c #345E11",
"j 	c #DE6443",
"k 	c #E08060",
"l 	c #C57055",
"m 	c #A2553D",
"n 	c #B44E32",
"o 	c #9A622B",
"p 	c #45701C",
"q 	c #9C622C",
"r 	c #E26F4D",
"s 	c #DC8463",
"t 	c #BB6548",
"u 	c #86592B",
"v 	c #497B1E",
"w 	c #4A7D1F",
"x 	c #396514",
"y 	c #335C10",
"z 	c #DA5A38",
"A 	c #E47B5A",
"B 	c #DB8E6F",
"C 	c #BA755A",
"D 	c #985842",
"E 	c #773E2A",
"F 	c #915028",
"G 	c #C25E33",
"H 	c #A7632F",
"I 	c #E27351",
"J 	c #E19977",
"K 	c #C07A5D",
"L 	c #9B5A3B",
"M 	c #577C24",
"N 	c #508523",
"O 	c #518623",
"P 	c #4B7E1F",
"Q 	c #417019",
"R 	c #325A10",
"S 	c #D46140",
"T 	c #DF6947",
"U 	c #E99877",
"V 	c #D49375",
"W 	c #B5765C",
"X 	c #975943",
"Y 	c #784329",
"Z 	c #536B1F",
"` 	c #7A6C27",
" .	c #E17452",
"..	c #E6AC8B",
"+.	c #C68B6E",
"@.	c #A55F45",
"#.	c #677929",
"$.	c #568D27",
"%.	c #578F28",
"&.	c #528824",
"*.	c #487A1E",
"=.	c #31580F",
"-.	c #92543E",
";.	c #E4A182",
">.	c #D69375",
",.	c #BA755B",
"'.	c #9D5840",
").	c #7B4A28",
"!.	c #547A21",
"~.	c #518622",
"{.	c #6A7526",
"].	c #D35E3D",
"^.	c #DB603D",
"/.	c #E17754",
"(.	c #EABC9A",
"_.	c #CC9879",
":.	c #AC694E",
"<.	c #78702E",
"[.	c #5C962B",
"}.	c #5D972C",
"|.	c #5A9229",
"1.	c #508423",
"2.	c #46761D",
"3.	c #3C6816",
"4.	c #335B11",
"5.	c #30560F",
"6.	c #497E18",
"7.	c #723520",
"8.	c #BE7459",
"9.	c #BF7559",
"0.	c #A3573E",
"a.	c #7B5628",
"b.	c #568823",
"c.	c #558E24",
"d.	c #579026",
"e.	c #5A8025",
"f.	c #7D4734",
"g.	c #C19478",
"h.	c #EBC6A4",
"i.	c #D2A283",
"j.	c #B27358",
"k.	c #896433",
"l.	c #639E2F",
"m.	c #63A030",
"n.	c #619C2E",
"o.	c #557629",
"p.	c #635839",
"q.	c #67543D",
"r.	c #6C5341",
"s.	c #694F3E",
"t.	c #4C8819",
"u.	c #4D881A",
"v.	c #4F8A1B",
"w.	c #66401C",
"x.	c #994A32",
"y.	c #A8563C",
"z.	c #786527",
"A.	c #599325",
"B.	c #5A9627",
"C.	c #5C9828",
"D.	c #5E9A2A",
"E.	c #60962B",
"F.	c #692D1C",
"G.	c #9A624B",
"H.	c #CE9F81",
"I.	c #B97D62",
"J.	c #955D39",
"K.	c #6B9F33",
"L.	c #69A834",
"M.	c #68A633",
"N.	c #5F9A2D",
"O.	c #656B38",
"P.	c #8E3861",
"Q.	c #A74476",
"R.	c #BF5389",
"S.	c #C4578E",
"T.	c #8A2F5D",
"U.	c #822A57",
"V.	c #4F8E1A",
"W.	c #51901B",
"X.	c #53921D",
"Y.	c #55941F",
"Z.	c #5C771F",
"`.	c #755B23",
" +	c #737927",
".+	c #5D9C27",
"++	c #5F9E29",
"@+	c #61A02A",
"#+	c #62A22C",
"$+	c #64A42E",
"%+	c #66A630",
"&+	c #66341C",
"*+	c #7D3B27",
"=+	c #AF7459",
"-+	c #9E5C40",
";+	c #769A35",
">+	c #70B138",
",+	c #6FB038",
"'+	c #67A432",
")+	c #6A5F3E",
"!+	c #86335D",
"~+	c #9F4372",
"{+	c #BB588A",
"]+	c #C66094",
"^+	c #8A305E",
"/+	c #52921A",
"(+	c #51911A",
"_+	c #54941D",
":+	c #579720",
"<+	c #5B9C23",
"[+	c #5FA027",
"}+	c #62A42A",
"|+	c #65A72C",
"1+	c #67AA2E",
"2+	c #69AC30",
"3+	c #6BAE32",
"4+	c #6DB034",
"5+	c #66461F",
"6+	c #74301D",
"7+	c #914932",
"8+	c #808A36",
"9+	c #76B93C",
"0+	c #75B93C",
"a+	c #6EA938",
"b+	c #685041",
"c+	c #7F345A",
"d+	c #9D4A74",
"e+	c #BE6391",
"f+	c #CA6A9B",
"g+	c #8A325F",
"h+	c #5A1D3C",
"i+	c #692246",
"j+	c #54961B",
"k+	c #54951B",
"l+	c #53951B",
"m+	c #53941B",
"n+	c #53941A",
"o+	c #52931A",
"p+	c #56971E",
"q+	c #5A9C22",
"r+	c #5FA226",
"s+	c #65A82B",
"t+	c #6AAE30",
"u+	c #6EB333",
"v+	c #71AD35",
"w+	c #739732",
"x+	c #7B9033",
"y+	c #7BC13F",
"z+	c #7CC240",
"A+	c #74B43C",
"B+	c #624140",
"C+	c #7C3A5B",
"D+	c #9E547A",
"E+	c #C06E98",
"F+	c #CF76A4",
"G+	c #8B325F",
"H+	c #5C1E3E",
"I+	c #3D1429",
"J+	c #531B37",
"K+	c #55961C",
"L+	c #589A1F",
"M+	c #5C9F23",
"N+	c #62A528",
"O+	c #67AC2D",
"P+	c #6DB232",
"Q+	c #73B937",
"R+	c #72B43B",
"S+	c #5A293E",
"T+	c #7D3D5D",
"U+	c #A0587C",
"V+	c #C3739C",
"W+	c #C8719E",
"X+	c #662145",
"Y+	c #471830",
"Z+	c #4E1A35",
"`+	c #5F2040",
" @	c #75782A",
".@	c #966538",
"+@	c #A0643C",
"@@	c #8E7435",
"#@	c #668C24",
"$@	c #54961C",
"%@	c #56991D",
"&@	c #5A9D21",
"*@	c #67AB2C",
"=@	c #77BD3C",
"-@	c #71B239",
";@	c #593E39",
">@	c #753757",
",@	c #985276",
"'@	c #BB6D95",
")@	c #CD78A3",
"!@	c #642545",
"~@	c #723454",
"{@	c #8D476B",
"]@	c #9B4A73",
"^@	c #5E8720",
"/@	c #9E403D",
"(@	c #CB2751",
"_@	c #DC2B57",
":@	c #EA2F5F",
"<@	c #F43366",
"[@	c #FB386E",
"}@	c #D0565E",
"|@	c #7A8432",
"1@	c #61A427",
"2@	c #74B939",
"3@	c #6EAE38",
"4@	c #595635",
"5@	c #6D3150",
"6@	c #904C6F",
"7@	c #B3678E",
"8@	c #CC7AA4",
"9@	c #852F5B",
"0@	c #884066",
"a@	c #AE7B9A",
"b@	c #D8B0CC",
"c@	c #C48BAE",
"d@	c #616723",
"e@	c #822134",
"f@	c #8F1C39",
"g@	c #A22041",
"h@	c #C62850",
"i@	c #E5315F",
"j@	c #F53A6C",
"k@	c #FE457A",
"l@	c #FF5087",
"m@	c #FE5891",
"n@	c #B37661",
"o@	c #56951C",
"p@	c #5C9F22",
"q@	c #70B635",
"r@	c #6CAA37",
"s@	c #5A6C32",
"t@	c #652C49",
"u@	c #884768",
"v@	c #AB6287",
"w@	c #C4759E",
"x@	c #8C3762",
"y@	c #953E6C",
"z@	c #C66EA1",
"A@	c #E88FC6",
"B@	c #9A4674",
"C@	c #661429",
"D@	c #68142A",
"E@	c #831C36",
"F@	c #CC3960",
"G@	c #FE6194",
"H@	c #FF74AA",
"I@	c #FF7CB5",
"J@	c #FF75B0",
"K@	c #C17671",
"L@	c #55961B",
"M@	c #589A1E",
"N@	c #6CB131",
"O@	c #6AA835",
"P@	c #5B822F",
"Q@	c #5D2642",
"R@	c #804161",
"S@	c #A35C80",
"T@	c #BB6E95",
"U@	c #92406A",
"V@	c #943766",
"W@	c #C95B92",
"X@	c #B24A7F",
"Y@	c #712E49",
"Z@	c #781730",
"`@	c #723B2C",
" #	c #613925",
".#	c #661629",
"+#	c #671429",
"@#	c #953654",
"##	c #F397C9",
"$#	c #FFA0D6",
"%#	c #FF87C0",
"&#	c #FF67A2",
"*#	c #9D794C",
"=#	c #55981C",
"-#	c #66AB2C",
";#	c #6AA834",
">#	c #5C912D",
",#	c #55243B",
"'#	c #783B5A",
")#	c #9B5679",
"!#	c #B1678D",
"~#	c #95466E",
"{#	c #8C315F",
"]#	c #B5487F",
"^#	c #842B59",
"/#	c #812B56",
"(#	c #791831",
"_#	c #B22347",
":#	c #8E6535",
"<#	c #57831D",
"[#	c #613C25",
"}#	c #843550",
"|#	c #F4A2D3",
"1#	c #FF86BC",
"2#	c #FF629A",
"3#	c #F74E80",
"4#	c #618F23",
"5#	c #61A527",
"6#	c #69A832",
"7#	c #5A902C",
"8#	c #513534",
"9#	c #703653",
"0#	c #935172",
"a#	c #A76085",
"b#	c #954A70",
"c#	c #8C2E5E",
"d#	c #7C2853",
"e#	c #7F2955",
"f#	c #A21F41",
"g#	c #CC2851",
"h#	c #B55246",
"i#	c #5E4E23",
"j#	c #913B58",
"k#	c #FD75A8",
"l#	c #FF588D",
"m#	c #EF4173",
"n#	c #717F2A",
"o#	c #68A930",
"p#	c #578C2A",
"q#	c #4E452E",
"r#	c #68304D",
"s#	c #8B4B6C",
"t#	c #9D597C",
"u#	c #924C70",
"v#	c #812A56",
"w#	c #4A1832",
"x#	c #551C39",
"y#	c #B12247",
"z#	c #D92B57",
"A#	c #ED355F",
"B#	c #5B921E",
"C#	c #613D25",
"D#	c #C24368",
"E#	c #E94672",
"F#	c #77722E",
"G#	c #589B1F",
"H#	c #67A92E",
"I#	c #558929",
"J#	c #4B5529",
"K#	c #602A46",
"L#	c #834565",
"M#	c #935273",
"N#	c #8F4D6F",
"O#	c #802956",
"P#	c #622042",
"Q#	c #3E1429",
"R#	c #72254D",
"S#	c #A92144",
"T#	c #E12D5B",
"U#	c #F53467",
"V#	c #9F6C40",
"W#	c #6A512B",
"X#	c #862B45",
"Y#	c #78213A",
"Z#	c #892642",
"`#	c #8E5D41",
" $	c #5A9220",
".$	c #64A72B",
"+$	c #558928",
"@$	c #486424",
"#$	c #58253F",
"$$	c #7B405E",
"%$	c #894B6B",
"&$	c #8A4B6B",
"*$	c #7D2A54",
"=$	c #552138",
"-$	c #4E1934",
";$	c #851B36",
">$	c #E63260",
",$	c #F93C6F",
"'$	c #F14A75",
")$	c #648C25",
"!$	c #68472C",
"~$	c #832D48",
"{$	c #984262",
"]$	c #AC5679",
"^$	c #BF5D86",
"/$	c #D05F8D",
"($	c #DF6192",
"_$	c #D56E85",
":$	c #7B8939",
"<$	c #558A27",
"[$	c #467020",
"}$	c #502238",
"|$	c #733A57",
"1$	c #7F4462",
"2$	c #814563",
"3$	c #7B2D55",
"4$	c #D5365F",
"5$	c #FF5285",
"6$	c #FF5F98",
"7$	c #D45C7D",
"8$	c #6A182E",
"9$	c #792941",
"0$	c #964766",
"a$	c #B86C91",
"b$	c #CE82AB",
"c$	c #E18AB9",
"d$	c #F28CC0",
"e$	c #F879B1",
"f$	c #A67358",
"g$	c #568E26",
"h$	c #436E1E",
"i$	c #492B2F",
"j$	c #6A344F",
"k$	c #753C5A",
"l$	c #773D5B",
"m$	c #782E54",
"n$	c #86233E",
"o$	c #FB7AAC",
"p$	c #FF8AC1",
"q$	c #FF79B4",
"r$	c #8E2847",
"s$	c #6D1C32",
"t$	c #8D3F5C",
"u$	c #BC7298",
"v$	c #F6A2D5",
"w$	c #E96DA1",
"x$	c #BD5C64",
"y$	c #589226",
"z$	c #416B1D",
"A$	c #423527",
"B$	c #622E48",
"C$	c #6B3551",
"D$	c #6D3652",
"E$	c #712E50",
"F$	c #A55475",
"G$	c #FEA8DC",
"H$	c #FF79B0",
"I$	c #FF5088",
"J$	c #E9386B",
"K$	c #AC2F47",
"L$	c #702E2C",
"M$	c #661729",
"N$	c #CF7BA6",
"O$	c #D85D8D",
"P$	c #CC4369",
"Q$	c #55951C",
"R$	c #56981C",
"S$	c #599624",
"T$	c #3F691C",
"U$	c #3C3F20",
"V$	c #592741",
"W$	c #612E48",
"X$	c #632F4A",
"Y$	c #682B4A",
"Z$	c #A24869",
"`$	c #F85D8E",
" %	c #FB4174",
".%	c #F03567",
"+%	c #ED2F60",
"@%	c #E32D5A",
"#%	c #93233A",
"$%	c #A55072",
"%%	c #C74E7A",
"&%	c #C73560",
"*%	c #668625",
"=%	c #589722",
"-%	c #3F691B",
";%	c #354819",
">%	c #502139",
",%	c #572740",
"'%	c #592841",
")%	c #5C2642",
"!%	c #7F1D36",
"~%	c #C02B51",
"{%	c #D52B56",
"]%	c #CB2851",
"^%	c #B82449",
"/%	c #911C3A",
"(%	c #832F4A",
"_%	c #B74067",
":%	c #B82B52",
"<%	c #6D7C28",
"[%	c #579820",
"}%	c #406C1A",
"|%	c #304E13",
"1%	c #471C31",
"2%	c #4D2037",
"3%	c #4F2138",
"4%	c #73172E",
"5%	c #831934",
"6%	c #7D1832",
"7%	c #6D152C",
"8%	c #6C1A30",
"9%	c #A53154",
"0%	c #815B32",
"a%	c #427119",
"b%	c #2D4D11",
"c%	c #3C2026",
"d%	c #43192F",
"e%	c #451A30",
"f%	c #461A31",
"g%	c #74264E",
"h%	c #794632",
"i%	c #55971C",
"j%	c #447719",
"k%	c #2B4A0F",
"l%	c #253E0C",
"m%	c #477C18",
"n%	c #2A4A0E",
"o%	c #498118",
"                          . + @ # $ % & * . = - ; > , ' )       ",
"                      . ! ~ { ] ^ / ( _ . : < [ } | 1 | 2       ",
"                    3 4 5 6 . 7 8 9 0 . a b c d e f g h i       ",
"                . j k l m n . o p q . r s t u v w w e x y       ",
"              z A B C D E F . G H . I J K L M N O P Q > R       ",
"          S T U V W X Y Z ` . . .  ...+.@.#.$.%.&.*.1 - =.      ",
"          -.;.>.,.'.).!.~.{.].^./.(._.:.<.[.}.|.1.2.3.4.5.      ",
"        6.7.8.9.0.a.b.c.d.e.f.g.h.i.j.k.l.m.n.%.o.p.q.r.s.      ",
"    t.u.v.w.x.y.z.A.B.C.D.E.F.G.H.I.J.K.L.M.N.O.P.Q.R.S.T.U.    ",
"  V.W.X.Y.Z.`. +.+++@+#+$+%+&+*+=+-+;+>+,+'+)+!+~+{+]+^+U.U.    ",
"  /+(+/+_+:+<+[+}+|+1+2+3+4+5+6+7+8+9+0+a+b+c+d+e+f+g+U.h+i+    ",
"  j+k+l+m+n+o+m+p+q+r+s+t+u+v+w+x+y+z+A+B+C+D+E+F+G+U.H+I+J+U.  ",
"  j+j+j+j+j+j+j+k+l+l+K+L+M+N+O+P+Q+y+R+S+T+U+V+W+U.X+Y+Z+`+U.  ",
"    j+j+j+j+ @.@+@@@#@j+j+j+$@%@&@*@=@-@;@>@,@'@)@U.!@~@{@]@U.  ",
"    j+j+^@/@(@_@:@<@[@}@|@j+j+j+j+1@2@3@4@5@6@7@8@9@0@a@b@c@    ",
"    j+d@e@f@g@h@i@j@k@l@m@n@o@j+j+p@q@r@s@t@u@v@w@x@y@z@A@B@    ",
"      C@C@C@C@D@E@F@G@H@I@J@K@L@j+M@N@O@P@Q@R@S@T@U@V@W@X@Y@    ",
"    C@C@C@Z@`@ #.#+#@###$#%#&#*#j+=#-#;#>#,#'#)#!#~#{#]#^#/#    ",
"    C@C@(#_#:#j+<#[#C@}#|#1#2#3#4#j+5#6#7#8#9#0#a#b#^#c#d#e#U.  ",
"    C@D@f#g#h#j+j+j+i#C@j#k#l#m#n#j+p@o#p#q#r#s#t#u#U.v#w#x#U.  ",
"    C@+#y#z#A#B#j+j+j+C#C@D#E#F#j+j+G#H#I#J#K#L#M#N#O#P#I+Q#R#U.",
"      C@S#T#U#V#j+k+W#X#Y#Z#`# $j+j+=#.$+$@$#$$$%$&$*$=$I+I+-$  ",
"      C@;$>$,$'$)$!$~${$]$^$/$($_$:$j+1@<$[$}$|$1$2$3$          ",
"        +#4$5$6$7$8$9$0$a$b$c$d$e$f$j+p@g$h$i$j$k$l$m$U.        ",
"        C@n$o$p$q$r$C@C@s$t$u$v$w$x$j+G#y$z$A$B$C$D$E$U.        ",
"          C@F$G$H$I$J$K$L$M$C@N$O$P$Q$R$S$T$U$V$W$X$Y$U.        ",
"            C@Z$`$ %.%+%@%#%C@$%%%&%*%j+=%-%;%>%,%'%)%U.        ",
"              C@!%~%{%]%^%/%C@(%_%:%<%j+[%}%|%1%2%3%>%e#        ",
"                  C@4%5%6%7%C@8%9%0%j+j+p+a%b%c%d%e%f%g%        ",
"                      C@C@C@C@C@h%k+j+j+i%j%k%l%                ",
"                                    j+j+j+m%n%                  ",
"                                        j+o%                    "};
