/* XPM */
static const char * GNR_ICON[] = {
"29 31 459 2",
"  	c None",
". 	c #B0B0B0",
"+ 	c #A1A4A7",
"@ 	c #012548",
"# 	c #012649",
"$ 	c #01264A",
"% 	c #01274C",
"& 	c #062C50",
"* 	c #868F98",
"= 	c #B1B1B1",
"- 	c #4D657C",
"; 	c #022A52",
"> 	c #022B53",
", 	c #022B54",
"' 	c #022C55",
") 	c #022D56",
"! 	c #B8B8B8",
"~ 	c #B2B2B2",
"{ 	c #163859",
"] 	c #042B51",
"^ 	c #042C53",
"/ 	c #0B3257",
"( 	c #7E8A95",
"_ 	c #BCBCBC",
": 	c #556B81",
"< 	c #05305A",
"[ 	c #05315C",
"} 	c #05325D",
"| 	c #05325E",
"1 	c #032E59",
"2 	c #B3B3B3",
"3 	c #C0C0C0",
"4 	c #ADADAD",
"5 	c #A5A5A5",
"6 	c #435E77",
"7 	c #07325A",
"8 	c #113960",
"9 	c #87919B",
"0 	c #C2C2C2",
"a 	c #AEAEAE",
"b 	c #54697D",
"c 	c #083764",
"d 	c #083765",
"e 	c #083866",
"f 	c #073562",
"g 	c #00284F",
"h 	c #BDBDBD",
"i 	c #C8C8C8",
"j 	c #AAAAAA",
"k 	c #868686",
"l 	c #8E8E8E",
"m 	c #6E8091",
"n 	c #184169",
"o 	c #8F98A0",
"p 	c #BABABA",
"q 	c #979797",
"r 	c #3D5975",
"s 	c #0C3D6D",
"t 	c #0C3E6E",
"u 	c #0A3C6C",
"v 	c #06335F",
"w 	c #012A53",
"x 	c #00274D",
"y 	c #CFCFCF",
"z 	c #CACACA",
"A 	c #A7A7A7",
"B 	c #838383",
"C 	c #5B5F64",
"D 	c #5E6E7E",
"E 	c #9DA2A8",
"F 	c #969EA5",
"G 	c #CDCDCD",
"H 	c #C6C6C6",
"I 	c #A2A2A2",
"J 	c #606F7F",
"K 	c #104375",
"L 	c #0F4376",
"M 	c #0E4275",
"N 	c #0A3A69",
"O 	c #012950",
"P 	c #00264C",
"Q 	c #9F9F9F",
"R 	c #E0E0E0",
"S 	c #C9C9C9",
"T 	c #858585",
"U 	c #566069",
"V 	c #15416C",
"W 	c #3E5F7E",
"X 	c #D2D2D2",
"Y 	c #ACACAC",
"Z 	c #787F86",
"` 	c #194B7C",
" .	c #12497E",
"..	c #12487E",
"+.	c #0E4173",
"@.	c #093866",
"#.	c #042F58",
"$.	c #00274E",
"%.	c #00254A",
"&.	c #636668",
"*.	c #CCCCCC",
"=.	c #888888",
"-.	c #4F6070",
";.	c #104374",
">.	c #0E4477",
",.	c #295178",
"'.	c #A0A0A0",
").	c #BBBBBB",
"!.	c #D3D3D3",
"~.	c #DCDCDC",
"{.	c #B4B4B4",
"].	c #898B8D",
"^.	c #295683",
"/.	c #164F86",
"(.	c #154F86",
"_.	c #12487D",
":.	c #0D3F70",
"<.	c #083662",
"[.	c #032D55",
"}.	c #00274C",
"|.	c #002548",
"1.	c #023A70",
"2.	c #41505E",
"3.	c #939393",
"4.	c #8B8B8B",
"5.	c #0E467C",
"6.	c #0F477E",
"7.	c #114980",
"8.	c #1A4B7B",
"9.	c #646464",
"0.	c #DEDEDE",
"a.	c #959595",
"b.	c #3F6386",
"c.	c #19548E",
"d.	c #19558F",
"e.	c #164F87",
"f.	c #1A4C7C",
"g.	c #6B8094",
"h.	c #97A2AC",
"i.	c #ABB4BE",
"j.	c #9FA8B1",
"k.	c #385067",
"l.	c #013D76",
"m.	c #023E77",
"n.	c #044079",
"o.	c #2F4B66",
"p.	c #6F6F6F",
"q.	c #8A8C8D",
"r.	c #355A7E",
"s.	c #0E4983",
"t.	c #104B85",
"u.	c #124D87",
"v.	c #134F89",
"w.	c #16518A",
"x.	c #525354",
"y.	c #808080",
"z.	c #9D9D9D",
"A.	c #597087",
"B.	c #1C5A96",
"C.	c #1C5A97",
"D.	c #1A5691",
"E.	c #255686",
"F.	c #8A939C",
"G.	c #DBDBDB",
"H.	c #D9D9D9",
"I.	c #888E93",
"J.	c #003F7A",
"K.	c #01407B",
"L.	c #04427E",
"M.	c #064581",
"N.	c #0C4881",
"O.	c #24517C",
"P.	c #225585",
"Q.	c #0E4D8A",
"R.	c #104F8C",
"S.	c #12518E",
"T.	c #145390",
"U.	c #165592",
"V.	c #185794",
"W.	c #4B535A",
"X.	c #636363",
"Y.	c #949494",
"Z.	c #707C87",
"`.	c #22609C",
" +	c #20609F",
".+	c #1E5D9A",
"++	c #305E8B",
"@+	c #878C90",
"#+	c #D6D6D6",
"$+	c #969696",
"%+	c #01417E",
"&+	c #01407D",
"*+	c #00407D",
"=+	c #00407C",
"-+	c #02427E",
";+	c #054582",
">+	c #084986",
",+	c #0C4D8C",
"'+	c #105290",
")+	c #135594",
"!+	c #165898",
"~+	c #195B9B",
"{+	c #1B5D9D",
"]+	c #3B5772",
"^+	c #575D63",
"/+	c #6D7175",
"(+	c #2E679F",
"_+	c #2366A7",
":+	c #2263A4",
"<+	c #2D5E8D",
"[+	c #808183",
"}+	c #A9A9A9",
"|+	c #D0D0D0",
"1+	c #E4E4E4",
"2+	c #A6A6A6",
"3+	c #9A9A9A",
"4+	c #555555",
"5+	c #7D7D7D",
"6+	c #014280",
"7+	c #01427F",
"8+	c #01417F",
"9+	c #034380",
"0+	c #064784",
"a+	c #0B4C8A",
"b+	c #0F5190",
"c+	c #145697",
"d+	c #185C9D",
"e+	c #1C60A2",
"f+	c #2264A4",
"g+	c #2368AB",
"h+	c #256AAC",
"i+	c #2162A1",
"j+	c #2D5B88",
"k+	c #DFDFDF",
"l+	c #A1A1A1",
"m+	c #585858",
"n+	c #024380",
"o+	c #044583",
"p+	c #084987",
"q+	c #0C4E8D",
"r+	c #115394",
"s+	c #175B9D",
"t+	c #2367A9",
"u+	c #20609D",
"v+	c #20568B",
"w+	c #787878",
"x+	c #C7C7C7",
"y+	c #9E9E9E",
"z+	c #737373",
"A+	c #919191",
"B+	c #2A4157",
"C+	c #0E4981",
"D+	c #5B758D",
"E+	c #8A959F",
"F+	c #9DA4AC",
"G+	c #8F9FAE",
"H+	c #6988A6",
"I+	c #255B8E",
"J+	c #034482",
"K+	c #105394",
"L+	c #2164A5",
"M+	c #1F5D9A",
"N+	c #1A548C",
"O+	c #6B6E71",
"P+	c #989898",
"Q+	c #A3A3A3",
"R+	c #0C2742",
"S+	c #27537C",
"T+	c #7B8084",
"U+	c #DADBDB",
"V+	c #9AB0C6",
"W+	c #17528A",
"X+	c #0B4E8E",
"Y+	c #1D61A2",
"Z+	c #1E5B96",
"`+	c #195289",
" @	c #5A6570",
".@	c #D4D4D4",
"+@	c #ECECEC",
"@@	c #A0A3A6",
"#@	c #001D39",
"$@	c #324B63",
"%@	c #525252",
"&@	c #515151",
"*@	c #6C6C6C",
"=@	c #929292",
"-@	c #C1C1C1",
";@	c #DADADA",
">@	c #EFEFEF",
",@	c #F9F9F9",
"'@	c #E7EDF2",
")@	c #306598",
"!@	c #074988",
"~@	c #195D9E",
"{@	c #1D5993",
"]@	c #185086",
"^@	c #4A5C6E",
"/@	c #898989",
"(@	c #A8A8A8",
"_@	c #D5D5D5",
":@	c #636E79",
"<@	c #001C37",
"[@	c #4C4C4C",
"}@	c #656565",
"|@	c #FDFDFD",
"1@	c #FFFFFF",
"2@	c #1C568D",
"3@	c #044584",
"4@	c #15599A",
"5@	c #1C5891",
"6@	c #174D82",
"7@	c #3B546D",
"8@	c #828282",
"9@	c #BFBFBF",
"0@	c #C5C5C5",
"a@	c #7B8289",
"b@	c #011C37",
"c@	c #4D4D4D",
"d@	c #686868",
"e@	c #556E86",
"f@	c #104475",
"g@	c #2C4862",
"h@	c #4A4C4D",
"i@	c #505050",
"j@	c #FBFBFB",
"k@	c #A8BBCE",
"l@	c #024381",
"m@	c #1B5791",
"n@	c #164B7E",
"o@	c #2D4D6B",
"p@	c #7A7A7A",
"q@	c #B5B5B5",
"r@	c #616161",
"s@	c #8A8A8A",
"t@	c #77899A",
"u@	c #0D4478",
"v@	c #414B54",
"w@	c #4E4E4E",
"x@	c #B9B9B9",
"y@	c #FEFEFE",
"z@	c #F1F1F1",
"A@	c #DFDFE0",
"B@	c #285C8D",
"C@	c #0C4E8E",
"D@	c #195691",
"E@	c #15497B",
"F@	c #20466A",
"G@	c #727272",
"H@	c #5B5B5B",
"I@	c #7B7B7B",
"J@	c #747474",
"K@	c #999999",
"L@	c #A7ABAF",
"M@	c #094782",
"N@	c #09437A",
"O@	c #434B52",
"P@	c #535353",
"Q@	c #D8D8D8",
"R@	c #8193A3",
"S@	c #144777",
"T@	c #143F69",
"U@	c #6B6B6B",
"V@	c #9C9C9C",
"W@	c #878787",
"X@	c #595959",
"Y@	c #4D759B",
"Z@	c #0D457B",
"`@	c #465768",
" #	c #768797",
".#	c #064480",
"+#	c #135391",
"@#	c #134575",
"##	c #0F3B66",
"$#	c #5D6164",
"%#	c #868788",
"&#	c #47494A",
"*#	c #818181",
"=#	c #606060",
"-#	c #B5BEC7",
";#	c #074783",
">#	c #104678",
",#	c #585F65",
"'#	c #797979",
")#	c #9CA7B1",
"!#	c #7D98B2",
"~#	c #5680A7",
"{#	c #0E4C87",
"]#	c #105190",
"^#	c #124474",
"/#	c #0E3963",
"(#	c #4D565F",
"_#	c #84898E",
":#	c #E7E7E7",
"<#	c #8DA6BF",
"[#	c #4F5357",
"}#	c #6E6E6E",
"|#	c #A4A4A4",
"1#	c #D1D1D1",
"2#	c #F8F8F8",
"3#	c #5B83AA",
"4#	c #114475",
"5#	c #0D3760",
"6#	c #3D4C5A",
"7#	c #7F7F7F",
"8#	c #9FA0A0",
"9#	c #EAEAEA",
"0#	c #FAFAFA",
"a#	c #ABABAB",
"b#	c #F7F7F7",
"c#	c #7F9BB5",
"d#	c #084988",
"e#	c #0F4478",
"f#	c #0C355C",
"g#	c #2E4255",
"h#	c #757575",
"i#	c #767676",
"j#	c #595E62",
"k#	c #4B4C4C",
"l#	c #565656",
"m#	c #9CAAB7",
"n#	c #044684",
"o#	c #0D467C",
"p#	c #0B3259",
"q#	c #20384F",
"r#	c #666666",
"s#	c #6A6A6A",
"t#	c #F6F6F6",
"u#	c #BDBDBE",
"v#	c #8A95A0",
"w#	c #5B6065",
"x#	c #ACADAF",
"y#	c #0B467E",
"z#	c #0A3157",
"A#	c #132F4A",
"B#	c #5C5C5C",
"C#	c #8C8C8C",
"D#	c #9B9B9B",
"E#	c #1E5284",
"F#	c #084580",
"G#	c #083057",
"H#	c #072645",
"I#	c #525353",
"J#	c #575757",
"K#	c #6D6D6D",
"L#	c #8F8F8F",
"M#	c #607486",
"N#	c #073159",
"O#	c #032241",
"P#	c #11273C",
"Q#	c #4F4F4F",
"R#	c #616D78",
"S#	c #074580",
"T#	c #02203D",
"U#	c #001B36",
"V#	c #024280",
"W#	c #033361",
"X#	c #011F3B",
"Y#	c #023566",
"Z#	c #01203E",
"                      . . + @ # $ % & * = - ; > , ' )     ",
"                    . ! ~ . { ] ^ / ( = _ : < [ } | 1     ",
"                . 2 3 4 5 . 6 7 8 9 = 0 a b c d e f ) g   ",
"              . h i j k l . m n o = i p q r s t u v w x   ",
"          . 2 y z A B C D . E F . G H I J K L M N [ O P   ",
"        Q H R S A T U V W . . . y X Y Z `  ...+.@.#.$.%.  ",
"        &.i *.j =.-.;.>.,.'.).!.~.{.].^./.(._.:.<.[.}.|.  ",
"      1.2.3.4 4.6 5.6.7.8.9.Y 0.h a.b.c.d.e.f.g.h.i.j.k.  ",
"  l.m.n.o.p.q.r.s.t.u.v.w.x.y.p z.A.B.C.D.E.F.).G.H.5 I.  ",
"J.K.L.M.N.O.P.Q.R.S.T.U.V.W.X.Y.Z.`. +.+++@+= #+G.5 $+z.  ",
"%+&+*+=+-+;+>+,+'+)+!+~+{+]+^+/+(+_+:+<+[+}+|+1+2+3+4+5+  ",
"6+6+6+6+7+8+%+%+9+0+a+b+c+d+e+f+g+h+i+j+y.A y k+l+X.m+5+  ",
"  6+6+6+6+6+6+6+6+6+7+n+o+p+q+r+s+t+u+v+w+'.x+0.y+z+A+2+B+",
"  6+6+6+C+D+E+F+G+H+I+6+6+6+6+J+K+L+M+N+O+P+3 G.Q+. G.S R+",
"  6+6+S+T+Y.'.4 _ *.U+V+W+6+6+6+X+Y+Z+`+ @A+! .@5 S +@@@#@",
"    $@%@&@m+*@=@-@;@>@,@'@)@6+6+!@~@{@]@^@/@. z (@_@X :@<@",
"    [@[@[@[@[@[@}@z |@1@1@'@2@6+3@4@5@6@7@8@}+9@(@0@A a@b@",
"  [@[@c@d@e@f@g@h@i@~ 1@1@j@k@6+l@K+m@n@o@p@l+q@2+2+$+Q   ",
"  [@[@r@s@t@6+6+u@v@w@x@y@z@A@B@6+C@D@E@F@G@3+j I I H@I@Q+",
"    [@J@K@L@M@6+6+N@O@P@Q@;@R@M.6+!@U.S@T@U@=@Q V@W@[@X@I ",
"    [@G@I x@Y@6+6+Z@`@[@G@ #.#6+6+3@+#@###$#s@a.3.%#&#[@*#",
"    [@=#(@9@-#;#>#,#'#W@K@)#!#~#{#l@]#^#/#(#*#s@/@_#      ",
"      c@V@G :#<#[#}#4.|#).1#:#2#3#6+q+4#5#6#w+y.7#8#      ",
"      [@*@9#0#y@U@[@X@p@a#R b#9#c#6+d#e#f#g#p.h#i#3+      ",
"        [@a 1@1@Q@a.j#k#[@l#G.!.m#6+n#o#p#q#r#s#*@Y.      ",
"          w@! t#H.i u#v#w#[@2+_ x#M.l@y#z#A#B#=#r@C#      ",
"            c@*#= Y Q+$+G@[@I@2+D#E#6+F#G#H#I#4+J#7#      ",
"              [@&@*@i#K#X@[@B#L#M#9+6+.#N#O#P#  Q#        ",
"                  [@[@[@[@[@c@R#S#6+6+9+} T#U#            ",
"                                6+6+6+V#W#X#              ",
"                                      6+Y#Z#              "};
