/* XPM */
static const char * icon_library_assembly_xpm[] = {
"16 16 151 2",
"  	c None",
". 	c #6292B3",
"+ 	c #82ABC6",
"@ 	c #7BA4C1",
"# 	c #6FA0C3",
"$ 	c #639BC2",
"% 	c #5D95BB",
"& 	c #4F8EB8",
"* 	c #7EA9C7",
"= 	c #8CAFC9",
"- 	c #C3DAEB",
"; 	c #C0D9ED",
"> 	c #B5D3EA",
", 	c #A6CBE7",
"' 	c #98C3E4",
") 	c #8CBCE1",
"! 	c #79B1DA",
"~ 	c #70A7D0",
"{ 	c #91B8D7",
"] 	c #93B5CB",
"^ 	c #D2E4F2",
"/ 	c #C7DFF1",
"( 	c #BBD9EF",
"_ 	c #AFD2EC",
": 	c #A1CBE8",
"< 	c #93C3E6",
"[ 	c #86BAE0",
"} 	c #91BDDF",
"| 	c #9AC2E0",
"1 	c #AECCE1",
"2 	c #99B8CE",
"3 	c #D7E7F3",
"4 	c #B4D8EE",
"5 	c #96C9E8",
"6 	c #8BC4E5",
"7 	c #86C1E4",
"8 	c #7CBAE1",
"9 	c #79B7DE",
"0 	c #A1C8E2",
"a 	c #CFE4F3",
"b 	c #9BC1DD",
"c 	c #8BB3CE",
"d 	c #9CBACF",
"e 	c #E1ECF5",
"f 	c #D9EAF5",
"g 	c #D0E5F4",
"h 	c #C6DFF2",
"i 	c #B1D3EC",
"j 	c #9CC6E5",
"k 	c #91BCDC",
"l 	c #AACCE5",
"m 	c #96C0E0",
"n 	c #73A4C8",
"o 	c #9EBBCF",
"p 	c #E3EEF6",
"q 	c #BFDFF1",
"r 	c #A1CFEA",
"s 	c #9BCBE9",
"t 	c #90C6E6",
"u 	c #8AC3E5",
"v 	c #83BFE3",
"w 	c #6FB1DB",
"x 	c #6DAED9",
"y 	c #80B6DD",
"z 	c #679EC5",
"A 	c #A3BECF",
"B 	c #EAF2F8",
"C 	c #E3F0F9",
"D 	c #DCECF6",
"E 	c #D6E8F5",
"F 	c #CCE3F3",
"G 	c #C3DEF1",
"H 	c #BAD9EE",
"I 	c #A4CCE9",
"J 	c #9BC6E7",
"K 	c #73A8CD",
"L 	c #A4C0CF",
"M 	c #EBF3F8",
"N 	c #CBE7F4",
"O 	c #B4DCEF",
"P 	c #B1DAEE",
"Q 	c #ABD4EC",
"R 	c #A6D0EB",
"S 	c #93C7E7",
"T 	c #93C7E6",
"U 	c #A3CBE9",
"V 	c #7CAFD1",
"W 	c #A5C0CF",
"X 	c #F0F5F8",
"Y 	c #E4F2F9",
"Z 	c #DEEEF8",
"` 	c #DAECF7",
" .	c #D5E8F5",
"..	c #CFE5F4",
"+.	c #C5E0F2",
"@.	c #BDDBF0",
"#.	c #B4D6ED",
"$.	c #BAD7EE",
"%.	c #8CB4D1",
"&.	c #D2EAF5",
"*.	c #C1E2F2",
"=.	c #BEE1F2",
"-.	c #BBDFF1",
";.	c #B7DDF0",
">.	c #B2D7EE",
",.	c #ACD3EC",
"'.	c #A5CFEA",
").	c #BDDAEF",
"!.	c #95B9D3",
"~.	c #F2F6F9",
"{.	c #D8ECF7",
"].	c #CAE7F4",
"^.	c #C9E6F4",
"/.	c #C7E5F3",
"(.	c #C4E3F3",
"_.	c #C0DEF1",
":.	c #BBDBEF",
"<.	c #C9E1F2",
"[.	c #9CC0D7",
"}.	c #A7C0CF",
"|.	c #F4F7F9",
"1.	c #E0F0F8",
"2.	c #D7ECF6",
"3.	c #D6ECF6",
"4.	c #D3EAF6",
"5.	c #D0E9F6",
"6.	c #CDE7F4",
"7.	c #C9E4F3",
"8.	c #C4E0F1",
"9.	c #D5E7F5",
"0.	c #A4C3D8",
"a.	c #F6F9FA",
"b.	c #FFFFFF",
"c.	c #FEFEFE",
"d.	c #FDFDFE",
"e.	c #FBFCFE",
"f.	c #F9FBFD",
"g.	c #F8FBFD",
"h.	c #F4F9FC",
"i.	c #F1F7FC",
"j.	c #ECF4FA",
"k.	c #B6CDDD",
"l.	c #98B7C7",
"m.	c #C0D2DD",
"n.	c #C3D4DE",
"o.	c #C2D3DE",
"p.	c #C1D3DE",
"q.	c #BED2DD",
"r.	c #BCD1DD",
"s.	c #B8CEDD",
"t.	c #A0BCCF",
"                                ",
"    . + + @ # $ % & *           ",
"    = - ; > , ' ) ! ~ {         ",
"    ] ^ / ( _ : < [ } | 1       ",
"    2 3 4 5 6 7 8 9 0 a b c     ",
"    d e f g h ( i j k l m n     ",
"    o p q r s t u v w x y z     ",
"    A B C D E F G H i I J K     ",
"    L M N O P Q R s S T U V     ",
"    W X Y Z `  ...+.@.#.$.%.    ",
"    W X &.*.=.-.;.>.,.'.).!.    ",
"    W ~.{.].^./.(._.:.4 <.[.    ",
"    }.|.1.2.3.4.5.6.7.8.9.0.    ",
"    }.a.b.c.d.e.f.g.h.i.j.k.    ",
"    l.m.n.n.n.o.o.p.q.r.s.t.    ",
"                                "};
