/* XPM */
static const char * icon_library_trash_xpm[] = {
"32 32 335 2",
"  	c None",
". 	c #656565",
"+ 	c #8B8B8C",
"@ 	c #ADADAF",
"# 	c #C3C3C4",
"$ 	c #D8D8D8",
"% 	c #E4E4E4",
"& 	c #EAEAEB",
"* 	c #EFEFEF",
"= 	c #F2F2F3",
"- 	c #F0F0F0",
"; 	c #EAEAEA",
"> 	c #E2E2E2",
", 	c #D9D9D9",
"' 	c #C5C5C5",
") 	c #B4B4B4",
"! 	c #989899",
"~ 	c #777777",
"{ 	c #4B4B4B",
"] 	c #8D8D8D",
"^ 	c #ABABAB",
"/ 	c #AAAAAA",
"( 	c #A5A5A6",
"_ 	c #A8A8AC",
": 	c #B3B3B8",
"< 	c #B3B3B7",
"[ 	c #B1B1B2",
"} 	c #A2A2A5",
"| 	c #939399",
"1 	c #95959D",
"2 	c #8F8F96",
"3 	c #848488",
"4 	c #89898B",
"5 	c #8B8B8B",
"6 	c #969696",
"7 	c #A0A0A0",
"8 	c #ABABAC",
"9 	c #B8B8BC",
"0 	c #C3C3C7",
"a 	c #CDCDCF",
"b 	c #CCCCCB",
"c 	c #A4A4A4",
"d 	c #5F5F5F",
"e 	c #818181",
"f 	c #AEAEAE",
"g 	c #858585",
"h 	c #626262",
"i 	c #515152",
"j 	c #555557",
"k 	c #515154",
"l 	c #4C4C50",
"m 	c #454547",
"n 	c #494949",
"o 	c #4F4F50",
"p 	c #464649",
"q 	c #49494C",
"r 	c #47474A",
"s 	c #434346",
"t 	c #4A4A4C",
"u 	c #1F1F20",
"v 	c #333334",
"w 	c #404040",
"x 	c #3F3F40",
"y 	c #59595C",
"z 	c #737378",
"A 	c #8D8D91",
"B 	c #9D9D9E",
"C 	c #A0A09F",
"D 	c #9B9B9B",
"E 	c #888888",
"F 	c #9C9C9C",
"G 	c #555555",
"H 	c #292928",
"I 	c #1E1E1E",
"J 	c #1C1C1C",
"K 	c #141414",
"L 	c #131313",
"M 	c #262627",
"N 	c #2A2A2A",
"O 	c #373739",
"P 	c #1B1B1C",
"Q 	c #3B3B3D",
"R 	c #2D2D2F",
"S 	c #272728",
"T 	c #1D1D1D",
"U 	c #373737",
"V 	c #5C5C5C",
"W 	c #8A8A8A",
"X 	c #797979",
"Y 	c #BFBFBF",
"Z 	c #CACACA",
"` 	c #808080",
" .	c #7B7B7B",
"..	c #575757",
"+.	c #585859",
"@.	c #4D4D4E",
"#.	c #2D2D2E",
"$.	c #363638",
"%.	c #3F3F43",
"&.	c #222223",
"*.	c #4D4D4F",
"=.	c #5A5A5A",
"-.	c #5E5E5E",
";.	c #6A6A69",
">.	c #DBDBDB",
",.	c #D3D3D3",
"'.	c #F1F1F1",
").	c #FFFFFF",
"!.	c #F4F4FA",
"~.	c #E8E8EE",
"{.	c #D7D7D7",
"].	c #CECECE",
"^.	c #CBCBCB",
"/.	c #DFDFE0",
"(.	c #E2E2E3",
"_.	c #F0F0F1",
":.	c #F3F3F3",
"<.	c #E9E9E9",
"[.	c #E6E6E7",
"}.	c #D4D4D4",
"|.	c #D9D9DB",
"1.	c #DBDBDE",
"2.	c #DDDDE1",
"3.	c #C4C4C8",
"4.	c #A5A5A7",
"5.	c #9F9F9F",
"6.	c #BBBBBB",
"7.	c #878787",
"8.	c #505050",
"9.	c #9A9A9A",
"0.	c #E6E6E6",
"a.	c #F5F5F9",
"b.	c #FDFDFF",
"c.	c #F8F8FF",
"d.	c #E2E2E5",
"e.	c #D5D5D5",
"f.	c #D1D1D1",
"g.	c #CBCBCC",
"h.	c #D8D8DA",
"i.	c #E3E3E9",
"j.	c #F1F1FC",
"k.	c #FBFBFF",
"l.	c #DBDBE6",
"m.	c #B3B3BB",
"n.	c #88888A",
"o.	c #868686",
"p.	c #666666",
"q.	c #262626",
"r.	c #212121",
"s.	c #353533",
"t.	c #4F4F4F",
"u.	c #5B5B5D",
"v.	c #78787D",
"w.	c #8F8F8E",
"x.	c #A2A2A2",
"y.	c #B4B4B5",
"z.	c #C2C2C5",
"A.	c #CFCFD5",
"B.	c #CFCFD9",
"C.	c #D5D5E1",
"D.	c #EDEDF6",
"E.	c #EFEFF5",
"F.	c #EBEBEC",
"G.	c #D2D2D5",
"H.	c #ADADB1",
"I.	c #A0A0A8",
"J.	c #39393A",
"K.	c #323232",
"L.	c #272727",
"M.	c #1B1B1B",
"N.	c #232323",
"O.	c #2B2B2C",
"P.	c #2E2E2E",
"Q.	c #505053",
"R.	c #1A1A1B",
"S.	c #3F3F42",
"T.	c #424245",
"U.	c #222222",
"V.	c #555558",
"W.	c #353536",
"X.	c #242424",
"Y.	c #202020",
"Z.	c #252525",
"`.	c #181818",
" +	c #1A1A1A",
".+	c #242425",
"++	c #29292A",
"@+	c #38383B",
"#+	c #121213",
"$+	c #1C1C1D",
"%+	c #212122",
"&+	c #171717",
"*+	c #282828",
"=+	c #232324",
"-+	c #2F2F31",
";+	c #464648",
">+	c #202021",
",+	c #222224",
"'+	c #161616",
")+	c #191919",
"!+	c #262625",
"~+	c #2C2C2E",
"{+	c #343435",
"]+	c #28282A",
"^+	c #3C3C40",
"/+	c #4A4A4D",
"(+	c #1F1F1F",
"_+	c #383839",
":+	c #252526",
"<+	c #151515",
"[+	c #29292B",
"}+	c #3B3B3E",
"|+	c #2A2A2C",
"1+	c #39393B",
"2+	c #313133",
"3+	c #1E1E1D",
"4+	c #1A1A19",
"5+	c #3D3D3F",
"6+	c #2F2F2F",
"7+	c #2E2E2F",
"8+	c #303031",
"9+	c #2C2C2D",
"0+	c #3C3C3E",
"a+	c #1E1E1F",
"b+	c #20201E",
"c+	c #474749",
"d+	c #272729",
"e+	c #2E2E30",
"f+	c #181816",
"g+	c #171718",
"h+	c #262628",
"i+	c #4B4B4E",
"j+	c #1D1D1E",
"k+	c #19191A",
"l+	c #181817",
"m+	c #2A2A2B",
"n+	c #343436",
"o+	c #3E3E41",
"p+	c #0F0F0F",
"q+	c #1B1B1D",
"r+	c #313132",
"s+	c #2D2D30",
"t+	c #3A3A3D",
"u+	c #4A4A4B",
"v+	c #535353",
"w+	c #353538",
"x+	c #2B2B2B",
"y+	c #2C2C2C",
"z+	c #333333",
"A+	c #484848",
"B+	c #575758",
"C+	c #626263",
"D+	c #7C7C7D",
"E+	c #777778",
"F+	c #727275",
"G+	c #7D7D7E",
"H+	c #676769",
"I+	c #595959",
"J+	c #4B4B4C",
"K+	c #383838",
"L+	c #0E0E0E",
"M+	c #343434",
"N+	c #515151",
"O+	c #646465",
"P+	c #6E6E6E",
"Q+	c #737373",
"R+	c #7E7E7F",
"S+	c #727274",
"T+	c #818182",
"U+	c #838385",
"V+	c #737375",
"W+	c #7B7B7C",
"X+	c #646464",
"Y+	c #363636",
"Z+	c #3F3F3F",
"`+	c #3B3B3B",
" @	c #545454",
".@	c #696969",
"+@	c #717172",
"@@	c #7A7A7B",
"#@	c #79797B",
"$@	c #9E9E9E",
"%@	c #959596",
"&@	c #909091",
"*@	c #808081",
"=@	c #78787A",
"-@	c #767677",
";@	c #6B6B6C",
">@	c #6A6A6A",
",@	c #7F7F7F",
"'@	c #909090",
")@	c #8C8C8F",
"!@	c #8C8C8E",
"~@	c #8F8F90",
"{@	c #8E8E8F",
"]@	c #707070",
"^@	c #A9A9A9",
"/@	c #8F8F8F",
"(@	c #7C7C7C",
"_@	c #969697",
":@	c #888889",
"<@	c #7D7D7F",
"[@	c #979797",
"}@	c #868687",
"|@	c #7E7E7E",
"1@	c #9E9E9F",
"2@	c #C3C3C3",
"3@	c #D3D3D2",
"4@	c #EBEBF5",
"5@	c #D9D9DA",
"6@	c #C6C6C6",
"7@	c #CCCCCC",
"8@	c #B2B2B3",
"9@	c #C5C5C9",
"0@	c #D1D1D6",
"a@	c #C0C0C2",
"b@	c #E3E3E3",
"c@	c #E1E1E3",
"d@	c #EBEBF2",
"e@	c #DBDBE4",
"f@	c #C0C0C0",
"g@	c #959595",
"h@	c #9F9FA0",
"i@	c #E0E0E6",
"j@	c #DDDDE8",
"k@	c #C8C8CB",
"l@	c #BEBEBE",
"m@	c #B8B8B8",
"n@	c #C9C9CB",
"o@	c #D8D8E0",
"p@	c #E7E7EF",
"q@	c #E6E6EF",
"r@	c #CBCBD6",
"s@	c #949499",
"t@	c #444444",
"                                                                ",
"                                                                ",
"              . + @ # $ % & * = = - ; > , ' ) ! ~               ",
"      { ] ^ / ( _ : < [ / } | 1 2 3 4 5 6 7 8 9 0 a b c d       ",
"    e f g h i j k l m n   o p q r s t u v w x y z A B C D E     ",
"    c F G H I J K L   I M N O P   Q R S M   L L J T U V W '     ",
"    X Y Z 7 `  .. ..+.n @.#.  $.%.  &.*.{ =.-.;.` e W / >.,.    ",
"    U ) '.).).!.~.{.].Z ^./.(._.:.<.[.{.}.|.1.2.3.4.5.6.{.7.    ",
"      8.9.0.a.b.c.d.e.f.g.h.i.j.b.).).).).).k.l.m.n.o.g p.      ",
"      q.r.s.t.u.v.+ w.x.y.z.A.B.C.D.E.F.G.H.I.z @.J.K.r.L.      ",
"      M.q.I M.N.I J O.P.Q.N R.S.T.U.&.V.W.O.r.J N.J T X.Y.      ",
"      L Z.Z.`.M. +U.q..+  ++  @+T.  .+#+$+++%+ +M.&+Z.X.`.      ",
"      L *+U.N.`.`.&+  u =+-+;+>+  p W.>+,+  `.'+)+r.N.L.)+      ",
"        X.N.)+I !+X.K.~+{+]+  ^+/+  (+_+O.v :+X.Y.`.N.q.        ",
"        X.N.q.<+<+(+'+:+  [+}+|+S 1+2+  X.<+3+K K X.N.q.        ",
"        Y.X.r.J Y.4+U.R.5+6+7+:+u 8+9+0+>+a+ +Y.J Y.N.X.        ",
"        <+q.N.&+b+Z.:+2+P |+  Q c+  d+$+e+d+Z.Y.`.r.Z. +        ",
"        &+L.X.I f+g+`.&+%+h+i+.+P i+#.j+P K k+l+J Z.Z.T         ",
"          X.U. +Y.Y.M m+9+7+  n+o+  ++R [+L.(+r. +r.q.p+        ",
"          q.N.N.&+`.P &+>+>+;+:+(+c+[+a+q+R. +&+Y.X.L.          ",
"          I X.J (+N.L.N m+r+  s+O   O.9+++*+N.Y.M.N.r.          ",
"          J Z.X.'+`.U.L.M #.t+u+v+t+w+N.x+U.M.<+N.X.r.          ",
"          L q.r.y+z+A+B+C+C+D+E+F+G+H+C+I+J+K+6+N.Z.)+          ",
"          L+N M+N+O+C+P+Q+R+S+T+U+V+W+E+P+O+X+=.Y+6+K           ",
"            Z+`+ @I+.@+@@@#@$@%@&@7 *@=@-@;@V ..w K+            ",
"            ` p...>@Q+,@o.'@)@'@!@~@{@+ *@-@]@X+=.^@            ",
"            /@}., 5.T+X (@4 _@:@<@[@}@D+~ |@W 1@2@'.            ",
"            Z+3@).).4@5@6@7@8@9@0@a@b@c@d@e@H.'@f@g@            ",
"                h@i@j@k@l@m@n@o@p@* * * q@r@s@X+t@              ",
"                                                                ",
"                                                                ",
"                                                                "};
