/* XPM */
static const char * icon_library_container_xpm[] = {
"32 32 471 2",
"  	c None",
". 	c #743623",
"+ 	c #763724",
"@ 	c #936355",
"# 	c #B39187",
"$ 	c #C2A7A0",
"% 	c #814939",
"& 	c #966248",
"* 	c #9C6748",
"= 	c #8B5132",
"- 	c #874D32",
"; 	c #854C33",
"> 	c #814931",
", 	c #8F5C4B",
"' 	c #9C7164",
") 	c #8D5B4B",
"! 	c #8A5543",
"~ 	c #AA7659",
"{ 	c #AD7455",
"] 	c #A66B49",
"^ 	c #A8724F",
"/ 	c #AB7957",
"( 	c #A26E4C",
"_ 	c #915737",
": 	c #884B2C",
"< 	c #8A4F32",
"[ 	c #895239",
"} 	c #8A533F",
"| 	c #88523F",
"1 	c #763C27",
"2 	c #936356",
"3 	c #AD897F",
"4 	c #8E5744",
"5 	c #9B5D40",
"6 	c #925134",
"7 	c #9C5D41",
"8 	c #AA6F50",
"9 	c #AC7050",
"0 	c #AF7755",
"a 	c #AF7855",
"b 	c #AA7453",
"c 	c #A97253",
"d 	c #AD7956",
"e 	c #A36F4D",
"f 	c #955B3A",
"g 	c #986344",
"h 	c #925C40",
"i 	c #844A31",
"j 	c #814635",
"k 	c #A57F74",
"l 	c #884932",
"m 	c #955438",
"n 	c #96583B",
"o 	c #A77053",
"p 	c #A06446",
"q 	c #A16346",
"r 	c #A7684A",
"s 	c #AA6B49",
"t 	c #B17956",
"u 	c #AE7654",
"v 	c #AD7453",
"w 	c #AF7856",
"x 	c #AD7655",
"y 	c #AF7B5B",
"z 	c #B27F5C",
"A 	c #A97452",
"B 	c #8B4C31",
"C 	c #7F402C",
"D 	c #9D7064",
"E 	c #9D7365",
"F 	c #89482E",
"G 	c #9A593A",
"H 	c #B47D5B",
"I 	c #DCB99E",
"J 	c #CBA389",
"K 	c #A46D52",
"L 	c #9A593C",
"M 	c #A36446",
"N 	c #A56545",
"O 	c #A86A48",
"P 	c #B17A57",
"Q 	c #B37D5B",
"R 	c #B07A57",
"S 	c #AF7654",
"T 	c #B07957",
"U 	c #AE7653",
"V 	c #A06647",
"W 	c #813F25",
"X 	c #793925",
"Y 	c #885444",
"Z 	c #8F5A4A",
"` 	c #935438",
" .	c #9D5D3B",
"..	c #BD8055",
"+.	c #C99774",
"@.	c #E0BDA0",
"#.	c #D1AD97",
"$.	c #B27A58",
"%.	c #9B5835",
"&.	c #985739",
"*.	c #9E5D3E",
"=.	c #A05E3D",
"-.	c #AA6E4B",
";.	c #B88767",
">.	c #A9724E",
",.	c #AC754E",
"'.	c #B2805B",
").	c #AB7550",
"!.	c #B07953",
"~.	c #985D3F",
"{.	c #7E3C23",
"].	c #834936",
"^.	c #966859",
"/.	c #BB9E97",
"(.	c #8B513C",
"_.	c #965638",
":.	c #A9673F",
"<.	c #C68856",
"[.	c #B57448",
"}.	c #D09769",
"|.	c #D5A885",
"1.	c #CB9974",
"2.	c #C48B62",
"3.	c #9F5C37",
"4.	c #8D4828",
"5.	c #934F32",
"6.	c #A97157",
"7.	c #C1987E",
"8.	c #B18362",
"9.	c #99603B",
"0.	c #9E6640",
"a.	c #9F6843",
"b.	c #9D663F",
"c.	c #A5724A",
"d.	c #A3714B",
"e.	c #9B643F",
"f.	c #8D512F",
"g.	c #83472A",
"h.	c #86503D",
"i.	c #97695C",
"j.	c #935940",
"k.	c #AE6B3F",
"l.	c #C78754",
"m.	c #B06E43",
"n.	c #C88753",
"o.	c #C28150",
"p.	c #B8784C",
"q.	c #D39F75",
"r.	c #BC8057",
"s.	c #A65D30",
"t.	c #9A512B",
"u.	c #B88A75",
"v.	c #C59F89",
"w.	c #A77254",
"x.	c #8C4629",
"y.	c #8B4528",
"z.	c #8A4527",
"A.	c #8B4628",
"B.	c #8C492A",
"C.	c #8D4B2C",
"D.	c #8C4A2B",
"E.	c #8B4A2A",
"F.	c #77361D",
"G.	c #763923",
"H.	c #965A3F",
"I.	c #8F4C2D",
"J.	c #AB663B",
"K.	c #C78652",
"L.	c #B26E41",
"M.	c #BA7847",
"N.	c #C27F4B",
"O.	c #B26D3E",
"P.	c #BF7A47",
"Q.	c #B67142",
"R.	c #B16735",
"S.	c #B76F3E",
"T.	c #BB896D",
"U.	c #AF7D61",
"V.	c #99583A",
"W.	c #904A2C",
"X.	c #8F492B",
"Y.	c #7F381D",
"Z.	c #88503F",
"`.	c #874F3D",
" +	c #8B4A2D",
".+	c #98542F",
"++	c #AE693C",
"@+	c #C5824C",
"#+	c #B67242",
"$+	c #B06B3C",
"%+	c #C47E49",
"&+	c #B16A3A",
"*+	c #B76F3C",
"=+	c #BA703C",
"-+	c #AC6131",
";+	c #AC6437",
">+	c #A46848",
",+	c #9C603E",
"'+	c #A05E3B",
")+	c #A96640",
"!+	c #A25F3B",
"~+	c #904B2B",
"{+	c #9D5833",
"]+	c #9D5631",
"^+	c #8F4726",
"/+	c #904826",
"(+	c #853E21",
"_+	c #7D3922",
":+	c #A67E73",
"<+	c #834530",
"[+	c #894529",
"}+	c #A35B31",
"|+	c #B16B3B",
"1+	c #B97341",
"2+	c #B87240",
"3+	c #AF6739",
"4+	c #C17944",
"5+	c #B06838",
"6+	c #B36937",
"7+	c #BB703A",
"8+	c #A75C2D",
"9+	c #A15A32",
"0+	c #9E603F",
"a+	c #9B5C3A",
"b+	c #B87A51",
"c+	c #C48758",
"d+	c #AF6E45",
"e+	c #A45F38",
"f+	c #B36E41",
"g+	c #A25B31",
"h+	c #9C5128",
"i+	c #954A23",
"j+	c #7C3317",
"k+	c #82442F",
"l+	c #885344",
"m+	c #7F3C23",
"n+	c #8A4426",
"o+	c #AE6637",
"p+	c #B26A39",
"q+	c #B16A39",
"r+	c #BE7641",
"s+	c #AC6435",
"t+	c #B86F3B",
"u+	c #B66C39",
"v+	c #AA6030",
"w+	c #B76B36",
"x+	c #AA5F2F",
"y+	c #9C5936",
"z+	c #9E6341",
"A+	c #A1603D",
"B+	c #BA7B50",
"C+	c #A86840",
"D+	c #B27046",
"E+	c #BA7649",
"F+	c #9E5831",
"G+	c #9D552D",
"H+	c #A75D2F",
"I+	c #8A411E",
"J+	c #782F16",
"K+	c #885040",
"L+	c #8F5B4A",
"M+	c #88462A",
"N+	c #8F4723",
"O+	c #B96E3A",
"P+	c #B26836",
"Q+	c #AE6434",
"R+	c #BD733D",
"S+	c #AA6031",
"T+	c #B46936",
"U+	c #B96D38",
"V+	c #A3582B",
"W+	c #B46732",
"X+	c #AA5E30",
"Y+	c #9E5F3D",
"Z+	c #9F6340",
"`+	c #A25F3A",
" @	c #AE6D44",
".@	c #AB6840",
"+@	c #B77448",
"@@	c #A6623B",
"#@	c #9F5830",
"$@	c #AE6436",
"%@	c #9E542A",
"&@	c #80371A",
"*@	c #7F3E28",
"=@	c #824832",
"-@	c #995D41",
";@	c #8B4321",
">@	c #A95D2D",
",@	c #AB602F",
"'@	c #B66A36",
")@	c #AE6230",
"!@	c #AD612F",
"~@	c #B66933",
"{@	c #A55828",
"]@	c #AE5F2C",
"^@	c #A15730",
"/@	c #A06543",
"(@	c #975736",
"_@	c #9E5933",
":@	c #B06C41",
"<@	c #B67246",
"[@	c #A05B33",
"}@	c #A25B33",
"|@	c #B0683A",
"1@	c #A1572D",
"2@	c #863C1B",
"3@	c #762F15",
"4@	c #8C5645",
"5@	c #86513F",
"6@	c #8F553B",
"7@	c #8A4629",
"8@	c #8D4421",
"9@	c #A5582A",
"0@	c #A85B2A",
"a@	c #B46733",
"b@	c #B36530",
"c@	c #A15426",
"d@	c #B3642F",
"e@	c #AA5A28",
"f@	c #9F5125",
"g@	c #9B5633",
"h@	c #A16745",
"i@	c #995532",
"j@	c #AB663A",
"k@	c #AF6A3D",
"l@	c #A05A32",
"m@	c #A35C32",
"n@	c #B06739",
"o@	c #A45A2F",
"p@	c #924822",
"q@	c #82391A",
"r@	c #7A361E",
"s@	c #96665A",
"t@	c #915F51",
"u@	c #84422B",
"v@	c #864024",
"w@	c #893F1E",
"x@	c #944922",
"y@	c #B46C3D",
"z@	c #B2642F",
"A@	c #9E5023",
"B@	c #AE5E29",
"C@	c #AC5C28",
"D@	c #954A25",
"E@	c #995A3B",
"F@	c #9C613E",
"G@	c #A15932",
"H@	c #AA6235",
"I@	c #9E562D",
"J@	c #A0582D",
"K@	c #AD6436",
"L@	c #9C532A",
"M@	c #9D5126",
"N@	c #984C23",
"O@	c #7F3518",
"P@	c #854632",
"Q@	c #844C3D",
"R@	c #7C3A24",
"S@	c #823B1E",
"T@	c #853C1E",
"U@	c #9C5530",
"V@	c #B36838",
"W@	c #AC6438",
"X@	c #A85828",
"Y@	c #AB5925",
"Z@	c #944A27",
"`@	c #9C5F40",
" #	c #9A5935",
".#	c #9D532A",
"+#	c #974D25",
"@#	c #A2572C",
"##	c #9B5026",
"$#	c #9D4F25",
"%#	c #883D1C",
"&#	c #783016",
"*#	c #8A5142",
"=#	c #793F2F",
"-#	c #803A1E",
";#	c #7E3519",
">#	c #97502D",
",#	c #BA7C56",
"'#	c #AD6840",
")#	c #A45527",
"!#	c #945334",
"~#	c #9E6444",
"{#	c #904927",
"]#	c #974A21",
"^#	c #9A4D23",
"/#	c #9E5227",
"(#	c #8E441E",
"_#	c #853A19",
":#	c #843A1B",
"<#	c #833A1D",
"[#	c #843E23",
"}#	c #783017",
"|#	c #7A3D2D",
"1#	c #97685B",
"2#	c #7D402B",
"3#	c #7C361B",
"4#	c #7F391D",
"5#	c #924F32",
"6#	c #A6633F",
"7#	c #974C26",
"8#	c #95583A",
"9#	c #945738",
"0#	c #7E3619",
"a#	c #863C19",
"b#	c #8B401E",
"c#	c #873E1F",
"d#	c #823B1F",
"e#	c #8C472A",
"f#	c #965536",
"g#	c #965637",
"h#	c #915033",
"i#	c #7A3720",
"j#	c #916154",
"k#	c #824835",
"l#	c #773219",
"m#	c #762F16",
"n#	c #823A1C",
"o#	c #874124",
"p#	c #9A6142",
"q#	c #8E4D2E",
"r#	c #843D21",
"s#	c #8A4529",
"t#	c #8F4C2F",
"u#	c #99593A",
"v#	c #9E6141",
"w#	c #98593B",
"x#	c #8C4B2F",
"y#	c #824127",
"z#	c #814430",
"A#	c #9D7267",
"B#	c #824836",
"C#	c #742F17",
"D#	c #753018",
"E#	c #814229",
"F#	c #A16A49",
"G#	c #9D603F",
"H#	c #9C5E3F",
"I#	c #9E5F41",
"J#	c #9D6040",
"K#	c #915133",
"L#	c #803C21",
"M#	c #7B3B25",
"N#	c #854C3C",
"O#	c #7E4535",
"P#	c #AC877D",
"Q#	c #824A39",
"R#	c #7F422B",
"S#	c #9B684E",
"T#	c #A57153",
"U#	c #9D6142",
"V#	c #864227",
"W#	c #7C3921",
"X#	c #793924",
"Y#	c #926154",
"Z#	c #A27970",
"`#	c #AB867D",
" $	c #8E5842",
".$	c #A97A5E",
"+$	c #905034",
"@$	c #79341B",
"#$	c #7D3E2A",
"$$	c #916051",
"%$	c #9D7366",
"&$	c #87503F",
"*$	c #804530",
"=$	c #804431",
"-$	c #96685B",
"                                                                ",
"                                                                ",
"                                                                ",
"                                                                ",
"              . + @ # $                                         ",
"            % & * = - ; > , ' )                                 ",
"            ! ~ { ] ^ / ( _ : < [ } | 1 2 3                     ",
"            4 5 6 7 8 9 0 a b c d e f g h i j k                 ",
"            l m n o p q r s t u v w x y z A B C D               ",
"          E F G H I J K L M N O P Q R S P T U V W X Y           ",
"          Z `  ...+.@.#.$.%.&.*.=.-.;.>.,.'.).!.R ~.{.].^.      ",
"        /.(._.:.<.[.}.|.1.2.3.4.5.6.7.8.9.0.a.b.c.d.e.f.g.h.    ",
"        i.j.6 k.l.m.n.o.p.q.r.s.t.u.v.w.x.y.z.z.A.B.C.D.E.F.    ",
"        G.H.I.J.K.L.M.N.O.P.Q.R.S.T.U.V.W.W.X.X.W.X.X.x.Y.Z.    ",
"        `. +.+++@+#+$+%+&+*+=+-+;+>+,+'+)+!+~+{+]+^+/+(+_+:+    ",
"        <+[+}+|+1+2+3+4+5+6+7+8+9+0+a+b+c+d+e+f+g+h+i+j+k+      ",
"      l+m+n+o+p+q+r+s+t+u+v+w+x+y+z+A+B+C+D+E+F+G+H+I+J+K+      ",
"      L+M+N+O+P+Q+R+S+T+U+V+W+X+Y+Z+`+ @.@+@@@#@$@%@&@*@        ",
"      =@-@;@>@w+,@'@)@!@~@{@]@^@/@(@_@:@<@[@}@|@1@2@3@4@        ",
"      5@6@7@8@9@0@a@b@c@d@e@f@g@h@i@j@k@l@m@n@o@p@q@r@s@        ",
"        t@u@v@w@x@y@z@A@B@C@D@E@F@G@H@I@J@K@L@M@N@O@P@          ",
"          Q@R@S@T@U@V@W@X@Y@Z@`@ #.#+#@#H+##N@$#%#&#*#          ",
"            =#k+-#;#>#,#'#)#!#~#{#]#^#/#(#_#:#<#[#}#|#          ",
"              1#2#3#4#5#6#7#8#9#0#a#b#c#d#e#f#g#h#i#            ",
"                j#k#l#m#n#o#p#q#r#s#t#u#v#w#x#y#z#)             ",
"                  A#B#C#D#E#F#G#H#I#J#K#L#M#N#O#                ",
"                    P#Q#R#S#T#U#_.V#W#X#Y#Z#                    ",
"                      `# $.$+$@$#$$$%$                          ",
"                        &$*$=$-$                                ",
"                                                                ",
"                                                                ",
"                                                                "};
