/* XPM */
static const char * icon_library_folder_xpm[] = {
"16 16 116 2",
"  	c None",
". 	c #345B9D",
"+ 	c #567DBE",
"@ 	c #5A81C2",
"# 	c #4F77BA",
"$ 	c #345FA7",
"% 	c #365FA1",
"& 	c #6991D3",
"* 	c #6E96D8",
"= 	c #6791D5",
"- 	c #4570B5",
"; 	c #295294",
"> 	c #678FD2",
", 	c #557DC0",
"' 	c #547CBE",
") 	c #3F6AB2",
"! 	c #6890D2",
"~ 	c #668FD4",
"{ 	c #5A84C9",
"] 	c #5983C8",
"^ 	c #416EB7",
"/ 	c #678FD1",
"( 	c #4E7AC2",
"_ 	c #527DC3",
": 	c #5F86C7",
"< 	c #648AC8",
"[ 	c #6A8ECA",
"} 	c #7B9BCF",
"| 	c #8CA7D3",
"1 	c #92ABD5",
"2 	c #96AED6",
"3 	c #9AB2D7",
"4 	c #9EB4D8",
"5 	c #9FB5D8",
"6 	c #A2B8D9",
"7 	c #6789C2",
"8 	c #618ACE",
"9 	c #4D77BC",
"0 	c #84A4D8",
"a 	c #9DB7E3",
"b 	c #A9C0E7",
"c 	c #B2C7EA",
"d 	c #C0D2ED",
"e 	c #CEDCF2",
"f 	c #D7E2F4",
"g 	c #E0E9F6",
"h 	c #E8EEF9",
"i 	c #EFF3FA",
"j 	c #F4F7FC",
"k 	c #E2EAF6",
"l 	c #7796CA",
"m 	c #517DC5",
"n 	c #507DC7",
"o 	c #88A8DE",
"p 	c #99B5E3",
"q 	c #A5BEE6",
"r 	c #BBCEED",
"s 	c #C5D5EF",
"t 	c #D8E3F4",
"u 	c #E1E9F6",
"v 	c #E8EFF9",
"w 	c #EFF3FB",
"x 	c #BDCCE5",
"y 	c #446CB0",
"z 	c #4872B8",
"A 	c #5D85C7",
"B 	c #81A3DC",
"C 	c #8EADE0",
"D 	c #98B4E3",
"E 	c #A5BDE6",
"F 	c #D7E3F4",
"G 	c #E1E9F7",
"H 	c #E5ECF8",
"I 	c #98B0D7",
"J 	c #2B569C",
"K 	c #3C6CBB",
"L 	c #5D89D0",
"M 	c #759BD9",
"N 	c #82A4DD",
"O 	c #8EACE0",
"P 	c #B1C7EA",
"Q 	c #BBCEEC",
"R 	c #CFDCF2",
"S 	c #D8E2F4",
"T 	c #CEDAEE",
"U 	c #6385C0",
"V 	c #274E8E",
"W 	c #3C6AB4",
"X 	c #5A87D1",
"Y 	c #6891D5",
"Z 	c #82A4DC",
"` 	c #B1C7E9",
" .	c #C4D5EF",
"..	c #CEDCF1",
"+.	c #B3C6E4",
"@.	c #557BB9",
"#.	c #244A88",
"$.	c #3A6AB9",
"%.	c #4F7FCE",
"&.	c #5C88D2",
"*.	c #6891D6",
"=.	c #829FCF",
"-.	c #224580",
";.	c #2D59A1",
">.	c #3560A8",
",.	c #3C65A9",
"'.	c #4068AB",
").	c #466DAC",
"!.	c #4C71AE",
"~.	c #5274AF",
"{.	c #5679B2",
"].	c #5C7CB2",
"^.	c #6181B4",
"/.	c #6785B6",
"(.	c #6A87B6",
"_.	c #486EAD",
"                                ",
"                                ",
". + @ @ # $                     ",
"% & * * = - ;                   ",
"% & * * * > , ' ' ' ' ' ' )     ",
"% ! ~ { ] ] ] ] ] ] ] ] ] ^     ",
"% / ( _ : < [ } | 1 2 3 4 5 6 7 ",
"% 8 9 0 a b c d e f g h i j k l ",
"% m n o p q c r s e t u v w x y ",
"% z A B C D E c r s e F G H I   ",
"J K L M N O p E P Q s R S T U   ",
"V W X Y M Z O D E ` Q  ...+.@.  ",
"#.$.%.&.*.M N C p E P Q s =.    ",
"-.;.>.,.'.).!.~.{.].^./.(._.    ",
"                                ",
"                                "};
