/* XPM */
static const char * icon_library_trash_xpm[] = {
"16 16 127 2",
"  	c None",
". 	c #9C9C9C",
"+ 	c #919192",
"@ 	c #A5A5A8",
"# 	c #C0C0C1",
"$ 	c #C6C6C8",
"% 	c #C2C2C6",
"& 	c #BDBDC0",
"* 	c #B8B8B8",
"= 	c #B5B5B5",
"- 	c #ACACAD",
"; 	c #ADADAF",
"> 	c #595959",
", 	c #383839",
"' 	c #313133",
") 	c #39393A",
"! 	c #353536",
"~ 	c #38383A",
"{ 	c #424244",
"] 	c #2F2F31",
"^ 	c #333334",
"/ 	c #303030",
"( 	c #4E4E50",
"_ 	c #747474",
": 	c #898989",
"< 	c #D6D6D6",
"[ 	c #BCBCBD",
"} 	c #9F9FA0",
"| 	c #8E8E8E",
"1 	c #89898A",
"2 	c #B4B4B5",
"3 	c #8B8B8C",
"4 	c #949495",
"5 	c #A0A0A2",
"6 	c #9A9A9C",
"7 	c #A4A4A4",
"8 	c #C3C3C3",
"9 	c #3B3B3B",
"0 	c #767675",
"a 	c #A7A7A9",
"b 	c #B7B7BB",
"c 	c #B6B6B6",
"d 	c #DCDCE5",
"e 	c #F0F0F5",
"f 	c #F6F6F8",
"g 	c #DFDFE1",
"h 	c #BABAC1",
"i 	c #707073",
"j 	c #585858",
"k 	c #464646",
"l 	c #171717",
"m 	c #242424",
"n 	c #1C1C1C",
"o 	c #1E1E1E",
"p 	c #292929",
"q 	c #363638",
"r 	c #303033",
"s 	c #373739",
"t 	c #2B2B2D",
"u 	c #29292A",
"v 	c #222222",
"w 	c #2A2A2B",
"x 	c #2C2C2D",
"y 	c #48484B",
"z 	c #2B2B2C",
"A 	c #252525",
"B 	c #232323",
"C 	c #1C1C1B",
"D 	c #323233",
"E 	c #2E2E30",
"F 	c #333335",
"G 	c #1B1B1B",
"H 	c #1D1D1D",
"I 	c #1F1F1F",
"J 	c #1D1D1C",
"K 	c #212122",
"L 	c #232324",
"M 	c #39393B",
"N 	c #3A3A3C",
"O 	c #202020",
"P 	c #202021",
"Q 	c #262628",
"R 	c #353537",
"S 	c #373738",
"T 	c #272729",
"U 	c #262626",
"V 	c #2C2C2C",
"W 	c #3B3B3D",
"X 	c #414143",
"Y 	c #282828",
"Z 	c #212121",
"` 	c #101010",
" .	c #454545",
"..	c #5C5C5C",
"+.	c #6D6D6E",
"@.	c #7A7A7B",
"#.	c #79797B",
"$.	c #6F6F70",
"%.	c #5E5E5E",
"&.	c #494949",
"*.	c #2B2B2B",
"=.	c #161616",
"-.	c #737373",
";.	c #828283",
">.	c #939394",
",.	c #848486",
"'.	c #767677",
").	c #626262",
"!.	c #5F5F5F",
"~.	c #9D9D9D",
"{.	c #DEDEDE",
"].	c #B0B0B2",
"^.	c #A6A6A6",
"/.	c #A5A5A7",
"(.	c #A9A9AC",
"_.	c #B2B2B2",
":.	c #AFAFB3",
"<.	c #99999A",
"[.	c #C2C2C2",
"}.	c #C0C0C3",
"|.	c #D2D2DA",
"1.	c #BBBBBB",
"2.	c #D0D0D6",
"3.	c #EBEBEF",
"4.	c #EFEFEF",
"5.	c #D8D8E2",
"6.	c #7C7C7E",
"                                ",
"    . + @ # $ % & * = - ; *     ",
"  . > , ' ) ! ~ { ] ^ / ( _ .   ",
"  : < [ } | 1 ; 2 3 4 5 6 7 8   ",
"  9 0 a b c $ d e f g h i j k   ",
"  l m n o p q r s t u o n v n   ",
"    m n o w x q y z z o n A     ",
"    B o C o D E x F o G H m     ",
"    o I J K L M N L K o o O     ",
"    A O n P Q R S T K n O I     ",
"    H v n U V W X x Y H Z Z     ",
"    ` p  ...+.@.#.$.%.&.*.=.    ",
"      j ..-.;.4 >.,.'.).!.      ",
"      ~.{.].^./.(._.:.<.[.      ",
"        }.|.1.2.3.4.5.6.        ",
"                                "};
