/* XPM */
static const char * icon_library_scene_xpm[] = {
"16 16 98 2",
"  	c None",
". 	c #040204",
"+ 	c #252425",
"@ 	c #2F2D2F",
"# 	c #FFFFFF",
"$ 	c #5A595A",
"% 	c #252325",
"& 	c #312F31",
"* 	c #4E4D4E",
"= 	c #DDDEDD",
"- 	c #E9EAE9",
"; 	c #A7A6A7",
"> 	c #4B4A4B",
", 	c #454445",
"' 	c #A0A1A0",
") 	c #CBCCCB",
"! 	c #E8E9E8",
"~ 	c #959395",
"{ 	c #979597",
"] 	c #B4B3B4",
"^ 	c #FCFEFC",
"/ 	c #E5E6E5",
"( 	c #9D9D9D",
"_ 	c #2B292B",
": 	c #313031",
"< 	c #8D8D8D",
"[ 	c #EEF0EE",
"} 	c #939093",
"| 	c #FBFDFB",
"1 	c #C6C7C6",
"2 	c #292829",
"3 	c #0B090B",
"4 	c #A2A0A2",
"5 	c #5C5A5C",
"6 	c #000000",
"7 	c #EAECEA",
"8 	c #FBFCFB",
"9 	c #AAA8AA",
"0 	c #373537",
"a 	c #A8A6A8",
"b 	c #1B191B",
"c 	c #A6A4A6",
"d 	c #9F9D9F",
"e 	c #AFADAF",
"f 	c #151215",
"g 	c #0F0D0F",
"h 	c #F5F6F5",
"i 	c #3B3A3B",
"j 	c #ABA9AB",
"k 	c #918F91",
"l 	c #A19FA1",
"m 	c #1C1A1C",
"n 	c #9C9A9C",
"o 	c #9B999B",
"p 	c #060306",
"q 	c #8E8C8E",
"r 	c #797679",
"s 	c #666466",
"t 	c #1C1B1C",
"u 	c #605E60",
"v 	c #1F1D1F",
"w 	c #9D9B9D",
"x 	c #7A787A",
"y 	c #504E50",
"z 	c #676467",
"A 	c #757575",
"B 	c #888888",
"C 	c #BBBCBB",
"D 	c #5A585A",
"E 	c #1E1C1E",
"F 	c #737173",
"G 	c #161416",
"H 	c #F9FBF9",
"I 	c #B2B3B2",
"J 	c #F1F3F1",
"K 	c #E4E6E4",
"L 	c #686668",
"M 	c #AAABAA",
"N 	c #5B595B",
"O 	c #807E80",
"P 	c #898789",
"Q 	c #A9AAA9",
"R 	c #444244",
"S 	c #1D1B1D",
"T 	c #545254",
"U 	c #A4A2A4",
"V 	c #727072",
"W 	c #1A181A",
"X 	c #878787",
"Y 	c #707070",
"Z 	c #333133",
"` 	c #3A383A",
" .	c #848284",
"..	c #565456",
"+.	c #282628",
"@.	c #515151",
"#.	c #131113",
"$.	c #0E0C0E",
"              . .               ",
"          + @ # # $ %           ",
"      & * = - ; # # # > ,       ",
"  . ' ) ! ~ { ] # ^ ^ # / ( _   ",
"  . : < # [ } ] # ^ | # 1 2 3   ",
"  . 4 5 6 7 8 9 # # # 6 0 a b   ",
"  . c d e f g | h i 6 j k l m   ",
"  . c n o c l p 6 q r s t u v   ",
"  . c n n n w x y z A B C D E   ",
"  . c n n n n F y G H # I D E   ",
"  . c n n n n F y b J K 6 L E   ",
"  . c n n n n F y b J # M N E   ",
"  . O P l n n F y b J # Q R S   ",
"    6 _ T n U V y W # X Y 6     ",
"          Z `  ...+.@.          ",
"              #.$.              "};
