/* XPM */
static const char * icon_library_container_xpm[] = {
"16 16 50 1",
" 	c None",
".	c #E7E8E9",
"+	c #BDC0C2",
"@	c #969A9E",
"#	c #777C81",
"$	c #696F74",
"%	c #BCBEC0",
"&	c #787C84",
"*	c #9C9FAB",
"=	c #BDC0CF",
"-	c #D8DAEC",
";	c #E4E5F9",
">	c #E5E6F9",
",	c #F4F5FD",
"'	c #EFF0F7",
")	c #757A7D",
"!	c #C9CBE2",
"~	c #DEDFF9",
"{	c #D9D9F8",
"]	c #D3D4F7",
"^	c #D0D1F7",
"/	c #E7E8FB",
"(	c #EBECFC",
"_	c #8E9294",
":	c #676B74",
"<	c #8C8FA1",
"[	c #AEB0CB",
"}	c #E9EAF8",
"|	c #EEEFFD",
"1	c #DEDFFC",
"2	c #D6D8FB",
"3	c #C9CBED",
"4	c #B5B8CB",
"5	c #9DA0B0",
"6	c #757984",
"7	c #565B61",
"8	c #4A4F52",
"9	c #D5D7FB",
"0	c #72767A",
"a	c #9D9EA0",
"b	c #E9E9E9",
"c	c #B8B8B9",
"d	c #939596",
"e	c #717578",
"f	c #565A5C",
"g	c #F6F6F6",
"h	c #E8E8E8",
"i	c #DBDBDB",
"j	c #D0D0D0",
"k	c #CCCCCC",
"                ",
"   .+@#$$$#@+.  ",
"  %&*=-;>,'=*&% ",
"  )!~{]^/(]{~!) ",
"  _:<[}|123[<:_ ",
"  )45678887654) ",
"  _:<[39993[<:_ ",
"  )45678887654) ",
"  _:<[39993[<:_ ",
"  )45678887654) ",
"  _:<[39993[<:_ ",
"  0456788876540 ",
"  a:<[39993[<:a ",
"  bcdef888fedcb ",
"   ghijkkkjihg  ",
"                "};
