/* XPM */
static const char * icon_library_root_xpm[] = {
"16 16 21 1",
" 	c None",
".	c #215284",
"+	c #FFFFFF",
"@	c #F7F7FF",
"#	c #EFF7FF",
"$	c #E7F7FF",
"%	c #E7EFFF",
"&	c #000031",
"*	c #F7FFFF",
"=	c #8CADC6",
"-	c #DEEFFF",
";	c #ADCEEF",
">	c #B5D6F7",
",	c #BDDEF7",
"'	c #CEDEF7",
")	c #D6EFFF",
"!	c #84B5EF",
"~	c #8CBDEF",
"{	c #5A9CE7",
"]	c #CEE7FF",
"^	c #C6E7FF",
"                ",
"                ",
"     .........  ",
"    .+++@@##$%& ",
"  ..++++###$%%& ",
"  .+.**=====%-& ",
"...-%.*@#$%%--& ",
".;;>,'.@$%%--)& ",
"&&&!~&@=====))& ",
"  .{&###--))]]& ",
"  &&+###-----]& ",
"    .##=====)^& ",
"    .#%%)--))^& ",
"    .$%%--)]^^& ",
"     &&&&&&&&&  ",
"                "};
