/* XPM */
static char * please_wait_xpm[] = {
"24 24 144 2",
"  	c None",
". 	c #FFFFFF",
"+ 	c #010101",
"@ 	c #0D0D0D",
"# 	c #070707",
"$ 	c #0E0E0E",
"% 	c #303030",
"& 	c #B4B4B4",
"* 	c #2A2A2A",
"= 	c #474747",
"- 	c #9A9A9A",
"; 	c #D6D6D6",
"> 	c #D9D9D9",
", 	c #D2D2D2",
"' 	c #E0E0E0",
") 	c #EAEAEA",
"! 	c #E1E1E1",
"~ 	c #D0D0D0",
"{ 	c #8E8E8E",
"] 	c #111111",
"^ 	c #3E3E3E",
"/ 	c #E5E5E5",
"( 	c #ABABA9",
"_ 	c #A7A794",
": 	c #A0A085",
"< 	c #AFAF9E",
"[ 	c #94948A",
"} 	c #A8A8A7",
"| 	c #D8D8D8",
"1 	c #E7E7E7",
"2 	c #CCCCCC",
"3 	c #424242",
"4 	c #040404",
"5 	c #3D3D3D",
"6 	c #F2F2F2",
"7 	c #969695",
"8 	c #585845",
"9 	c #4A4A14",
"0 	c #5E5E11",
"a 	c #5E5E17",
"b 	c #424210",
"c 	c #1F1F06",
"d 	c #040401",
"e 	c #4F4F4F",
"f 	c #D4D4D4",
"g 	c #BBBBBB",
"h 	c #181818",
"i 	c #232323",
"j 	c #242423",
"k 	c #181804",
"l 	c #303009",
"m 	c #3F3F0C",
"n 	c #3D3D0B",
"o 	c #2B2B08",
"p 	c #121203",
"q 	c #010100",
"r 	c #000000",
"s 	c #1B1B1B",
"t 	c #C4C4C4",
"u 	c #828282",
"v 	c #222222",
"w 	c #FAFAFA",
"x 	c #050501",
"y 	c #141404",
"z 	c #1E1E06",
"A 	c #1D1D05",
"B 	c #111103",
"C 	c #030300",
"D 	c #151515",
"E 	c #CACACA",
"F 	c #BABABA",
"G 	c #DCDCDC",
"H 	c #E4E4E4",
"I 	c #B8B8B8",
"J 	c #060606",
"K 	c #1C1C1C",
"L 	c #5C5C5C",
"M 	c #0A0A09",
"N 	c #030301",
"O 	c #3B3B3B",
"P 	c #BDBDBD",
"Q 	c #9C9C9C",
"R 	c #878787",
"S 	c #848484",
"T 	c #ACACAC",
"U 	c #0F0F0F",
"V 	c #FCFCFC",
"W 	c #F6F6F6",
"X 	c #F1F1F1",
"Y 	c #DFDFDF",
"Z 	c #A8A8A8",
"` 	c #7A7A7A",
" .	c #7D7D7D",
"..	c #8F8F8F",
"+.	c #D3D3D3",
"@.	c #A4A4A4",
"#.	c #979797",
"$.	c #323232",
"%.	c #050505",
"&.	c #676767",
"*.	c #B2B2B2",
"=.	c #020202",
"-.	c #D5D5D5",
";.	c #EFEFEF",
">.	c #F3F3F3",
",.	c #E2E2E2",
"'.	c #D7D7D7",
").	c #C7C7C7",
"!.	c #B5B5B5",
"~.	c #A2A2A2",
"{.	c #959595",
"].	c #6C6C6C",
"^.	c #A6A6A6",
"/.	c #9B9B9B",
"(.	c #080808",
"_.	c #353535",
":.	c #E9E9E9",
"<.	c #F0F0F0",
"[.	c #BEBEBE",
"}.	c #B6B6B6",
"|.	c #ADADAD",
"1.	c #A5A5A5",
"2.	c #969696",
"3.	c #777777",
"4.	c #5A5A5A",
"5.	c #191919",
"6.	c #838383",
"7.	c #DBDBDB",
"8.	c #C3C3C3",
"9.	c #B9B9B9",
"0.	c #B0B0B0",
"a.	c #9F9F9F",
"b.	c #626262",
"c.	c #272727",
"d.	c #9D9D9D",
"e.	c #DADADA",
"f.	c #B3B3B3",
"g.	c #ABABAB",
"h.	c #A1A1A1",
"i.	c #202020",
"j.	c #0A0A0A",
"k.	c #121212",
"l.	c #171717",
"m.	c #131313",
"                                                ",
"                                                ",
"                  .                             ",
"                .                               ",
"              . .                               ",
"              . . .                             ",
"                        . .                     ",
"                          . . .                 ",
"                          . .                   ",
"              + @ # $ % & * =                   ",
"          $ - ; > , ' ) ! ~ { ]                 ",
"        ^ / & ( _ : < [ } | 1 2 3 4             ",
"      5 6 7 8 9 0 a b c d # e f g h             ",
"      i ! j k l m n o p q r r s t u ] 4 r       ",
"      v w % x y z A B C r r r D E F G H I J     ",
"      K . H L M N C r r r J O P Q R S T ) s     ",
"      U V W X Y Z R `  ..., +.@.#.$.%.&.*.=.    ",
"      =.-.;.1 W >.,.'.~ ).!.~.- {.].^./.(.      ",
"        _.:.! <.>.E [.}.|.1.Q 2.3.4.5.r         ",
"        r 6.7.,.X 8.9.0.Z a.#.b.r r             ",
"          r c.d.e.8.f.g.h. .i.r                 ",
"              r j.k.l.m.%.r r                   ",
"                                                ",
"                                                "};
