/* XPM */
static char * quad_arrow_xpm[] = {
"24 24 94 2",
"  	c None",
". 	c #2A2A2A",
"+ 	c #606060",
"@ 	c #535353",
"# 	c #5B5B5B",
"$ 	c #686868",
"% 	c #1C1C1C",
"& 	c #5A5A5A",
"* 	c #5E5E5E",
"= 	c #999999",
"- 	c #E8E8E8",
"; 	c #E7E7E7",
"> 	c #DFDFDF",
", 	c #E1E1E1",
"' 	c #9B9B9B",
") 	c #1F1F1F",
"! 	c #B0B0B0",
"~ 	c #FDFDFD",
"{ 	c #FFFFFF",
"] 	c #E6E6E6",
"^ 	c #020202",
"/ 	c #C4C4C4",
"( 	c #DBDBDB",
"_ 	c #6F6F6F",
": 	c #171717",
"< 	c #CECECE",
"[ 	c #CDCDCD",
"} 	c #C9C9C9",
"| 	c #EEEEEE",
"1 	c #949494",
"2 	c #2B2B2B",
"3 	c #CBCBCB",
"4 	c #CFCFCF",
"5 	c #505050",
"6 	c #2D2D2D",
"7 	c #2E2E2E",
"8 	c #A0A0A0",
"9 	c #FCFCFC",
"0 	c #FBFBFB",
"a 	c #B7B7B7",
"b 	c #3F3F3F",
"c 	c #000000",
"d 	c #1B1B1B",
"e 	c #848484",
"f 	c #EBEBEB",
"g 	c #D0D0D0",
"h 	c #878787",
"i 	c #0F0F0F",
"j 	c #646464",
"k 	c #D1D1D1",
"l 	c #393939",
"m 	c #BFBFBF",
"n 	c #474747",
"o 	c #141414",
"p 	c #666666",
"q 	c #D8D8D8",
"r 	c #F8F8F8",
"s 	c #272727",
"t 	c #8C8C8C",
"u 	c #7B7B7B",
"v 	c #6B6B6B",
"w 	c #3A3A3A",
"x 	c #373737",
"y 	c #B1B1B1",
"z 	c #F9F9F9",
"A 	c #FEFEFE",
"B 	c #A5A5A5",
"C 	c #363636",
"D 	c #090909",
"E 	c #6A6A6A",
"F 	c #AEAEAE",
"G 	c #DADADA",
"H 	c #F0F0F0",
"I 	c #8A8A8A",
"J 	c #1E1E1E",
"K 	c #B6B6B6",
"L 	c #D5D5D5",
"M 	c #6C6C6C",
"N 	c #131313",
"O 	c #595959",
"P 	c #D9D9D9",
"Q 	c #ECECEC",
"R 	c #030303",
"S 	c #323232",
"T 	c #909090",
"U 	c #DCDCDC",
"V 	c #DEDEDE",
"W 	c #DDDDDD",
"X 	c #9D9D9D",
"Y 	c #222222",
"Z 	c #303030",
"` 	c #353535",
" .	c #383838",
"..	c #0B0B0B",
"                                                ",
"                                                ",
"                                                ",
"                                                ",
"  . + + @ # $ %               % $ & @ * + .     ",
"  = - ; > , ' )               ) ' , > ; - =     ",
"  ! ~ { { ] * ^               ^ * ; { { ~ !     ",
"  / { { { { ( _ :           : _ ( { { { { /     ",
"  < [ } { { { | 1 2       2 1 | { { { 3 < 4     ",
"  5 6 7 8 9 { { 0 a b c b a 0 { { 9 8 7 6 5     ",
"        d e f { { { g h g { { { f e d           ",
"          i j k { { { { { { { k j i             ",
"              l m ~ { { { ~ m l                 ",
"              n } { { { { { } n                 ",
"          o p q { { { r { { { q p o             ",
"  ^     s t f { { { / u / { { { f t s     c     ",
"  v w x y z { { A B C D C B A { { z y x w E     ",
"  F G ( { { { H I J       J I H { { { ( G F     ",
"  K { { { A L M N           N O P A { { { K     ",
"  K { { { Q j R               c S Q { { { K     ",
"  T U V > W X Y               Y ' U > V ( T     ",
"  N Z Z ` Z  ...              D  .Z x Z Z N     ",
"                                                ",
"                                                "};
