/* XPM */
static char * quad_arrow_xpm[] = {
"16 16 80 1",
" 	c None",
".	c #282828",
"+	c #717171",
"@	c #636363",
"#	c #C5C5C5",
"$	c #CCCCCC",
"%	c #A3A3A3",
"&	c #373737",
"*	c #0E0E0E",
"=	c #505050",
"-	c #B6B6B6",
";	c #C4C4C4",
">	c #898989",
",	c #292929",
"'	c #070707",
")	c #A6A6A6",
"!	c #C9C9C9",
"~	c #5E5E5E",
"{	c #0A0A0A",
"]	c #A9A9A9",
"^	c #CDCDCD",
"/	c #0D0D0D",
"(	c #7C7C7C",
"_	c #595959",
":	c #303030",
"<	c #AFAFAF",
"[	c #D1D1D1",
"}	c #606060",
"|	c #1D1D1D",
"1	c #8E8E8E",
"2	c #353535",
"3	c #6B6B6B",
"4	c #D5D5D5",
"5	c #BABABA",
"6	c #A5A5A5",
"7	c #ACACAC",
"8	c #D2D2D2",
"9	c #D4D4D4",
"0	c #BEBEBE",
"a	c #AAAAAA",
"b	c #D8D8D8",
"c	c #9E9E9E",
"d	c #838383",
"e	c #D3D3D3",
"f	c #D6D6D6",
"g	c #DADADA",
"h	c #DCDCDC",
"i	c #DEDEDE",
"j	c #DFDFDF",
"k	c #E1E1E1",
"l	c #CFCFCF",
"m	c #484848",
"n	c #888888",
"o	c #616161",
"p	c #686868",
"q	c #C3C3C3",
"r	c #DDDDDD",
"s	c #8F8F8F",
"t	c #C0C0C0",
"u	c #757575",
"v	c #383838",
"w	c #2B2B2B",
"x	c #080808",
"y	c #B2B2B2",
"z	c #E5E5E5",
"A	c #656565",
"B	c #0B0B0B",
"C	c #2A2A2A",
"D	c #B5B5B5",
"E	c #EAEAEA",
"F	c #6A6A6A",
"G	c #111111",
"H	c #939393",
"I	c #E0E0E0",
"J	c #EDEDED",
"K	c #CBCBCB",
"L	c #555555",
"M	c #9F9F9F",
"N	c #727272",
"O	c #4A4A4A",
"                ",
"       .+       ",
"      @#$%&     ",
"     *=-;>,'    ",
"       )!~      ",
"   {   ]^~   /  ",
"  (_  :<[}  |12 ",
" 3456)7890]a7bc ",
" d98e9ffeghijklm",
"  7noopqrs}o}tu ",
"  vw   <k@   =  ",
"   x   yzA   B  ",
"      CDEF      ",
"     GHIJKLB    ",
"      2MfN      ",
"        O       "};
