/* XPM */
static char * right_arrow_xpm[] = {
"16 16 75 1",
" 	c None",
".	c #454545",
"+	c #393939",
"@	c #484848",
"#	c #CDCDCD",
"$	c #BBBBBB",
"%	c #717171",
"&	c #D4D4D4",
"*	c #E2E2E2",
"=	c #E9E9E9",
"-	c #BDBDBD",
";	c #404040",
">	c #6A6A6A",
",	c #D6D6D6",
"'	c #DEDEDE",
")	c #DFDFDF",
"!	c #EAEAEA",
"~	c #BCBCBC",
"{	c #383838",
"]	c #A4A4A4",
"^	c #CBCBCB",
"/	c #E0E0E0",
"(	c #DCDCDC",
"_	c #B4B4B4",
":	c #6B6B6B",
"<	c #7C7C7C",
"[	c #DADADA",
"}	c #DDDDDD",
"|	c #B2B2B2",
"1	c #181818",
"2	c #303030",
"3	c #3D3D3D",
"4	c #D8D8D8",
"5	c #6C6C6C",
"6	c #BEBEBE",
"7	c #D7D7D7",
"8	c #D1D1D1",
"9	c #D5D5D5",
"0	c #D0D0D0",
"a	c #7E7E7E",
"b	c #757575",
"c	c #737373",
"d	c #9B9B9B",
"e	c #F3F3F3",
"f	c #C1C1C1",
"g	c #444444",
"h	c #CFCFCF",
"i	c #D2D2D2",
"j	c #E3E3E3",
"k	c #E6E6E6",
"l	c #ECECEC",
"m	c #EFEFEF",
"n	c #C2C2C2",
"o	c #D3D3D3",
"p	c #CCCCCC",
"q	c #E4E4E4",
"r	c #E7E7E7",
"s	c #808080",
"t	c #7F7F7F",
"u	c #E1E1E1",
"v	c #EBEBEB",
"w	c #E8E8E8",
"x	c #EEEEEE",
"y	c #A3A3A3",
"z	c #2E2E2E",
"A	c #666666",
"B	c #686868",
"C	c #696969",
"D	c #6D6D6D",
"E	c #6E6E6E",
"F	c #969696",
"G	c #F0F0F0",
"H	c #929292",
"I	c #9E9E9E",
"J	c #151515",
"    .+          ",
"   @#$          ",
"  %&*=-;        ",
" >,')*!~        ",
"{]^/()'_:       ",
"  <'[}|1        ",
"  <(,[_   23    ",
"  <[&4_   56    ",
"  <7890abcdefg  ",
"  <,hi'jk=llmn  ",
"  <oph&7()qrles ",
"  tu()ujk=vwxy  ",
"  zABC::DEFGH   ",
"          BI    ",
"          J     ",
"                "};
