/* XPM */
static char * right_arrow_xpm[] = {
"24 24 58 1",
" 	c None",
".	c #464646",
"+	c #404040",
"@	c #5D5D5D",
"#	c #FFFFFF",
"$	c #F8F8F8",
"%	c #383838",
"&	c #252525",
"*	c #080808",
"=	c #000000",
"-	c #C0C0C0",
";	c #D9D9D9",
">	c #C9C9C9",
",	c #B9B9B9",
"'	c #858585",
")	c #545454",
"!	c #868686",
"~	c #575757",
"{	c #131313",
"]	c #A8A8A8",
"^	c #DADADA",
"/	c #3E3E3E",
"(	c #BFBFBF",
"_	c #585858",
":	c #5A5A5A",
"<	c #595959",
"[	c #BABABA",
"}	c #9B9B9B",
"|	c #565656",
"1	c #DBDBDB",
"2	c #2E2E2E",
"3	c #444444",
"4	c #FAFAFA",
"5	c #F2F2F2",
"6	c #222222",
"7	c #4B4B4B",
"8	c #242424",
"9	c #696969",
"0	c #D5D5D5",
"a	c #8F8F8F",
"b	c #909090",
"c	c #D2D2D2",
"d	c #BEBEBE",
"e	c #8E8E8E",
"f	c #E8E8E8",
"g	c #4E4E4E",
"h	c #363636",
"i	c #ACACAC",
"j	c #555555",
"k	c #E1E1E1",
"l	c #818181",
"m	c #C1C1C1",
"n	c #A7A7A7",
"o	c #7D7D7D",
"p	c #2B2B2B",
"q	c #757575",
"r	c #484848",
"s	c #777777",
"                        ",
"           .+           ",
"          @#$%          ",
"         &####*         ",
"        =-;##>,=        ",
"          '##)          ",
"          !##~          ",
"          !##~          ",
"    =     !##~     =    ",
"   {]     !##~     ^=   ",
"  /#(_:::<[##}::::|1#2  ",
" 34##################56 ",
" 7####################8 ",
"  9#0abbbbc##dbbbbef#g  ",
"   hi     '##j     k8   ",
"    =     !##~     =    ",
"          !##~          ",
"          !##~          ",
"          !##~          ",
"        =lm##no=        ",
"         .####p         ",
"          q##r          ",
"           s9           ",
"                        "};
